<svg width="16" height="16" viewBox="0 0 16 16" fill="none" xmlns="http://www.w3.org/2000/svg">
<path d="M13.7359 4.76768C13.5667 4.59628 13.3373 4.5 13.098 4.5C12.8588 4.5 12.6294 4.59628 12.4602 4.76768L7.99455 9.2932L3.52889 4.76768C3.35874 4.60114 3.13086 4.50899 2.89431 4.51107C2.65777 4.51316 2.4315 4.60931 2.26423 4.77882C2.09697 4.94833 2.00209 5.17763 2.00003 5.41734C1.99798 5.65706 2.08891 5.888 2.25324 6.06043L7.35673 11.2323C7.52591 11.4037 7.75533 11.5 7.99455 11.5C8.23377 11.5 8.4632 11.4037 8.63238 11.2323L13.7359 6.06042C13.905 5.88898 14 5.65648 14 5.41405C14 5.17163 13.905 4.93913 13.7359 4.76768Z" fill="#52559F"/>
</svg>
