<svg width="8" height="12" viewBox="0 0 8 12" fill="none" xmlns="http://www.w3.org/2000/svg">
<path d="M7.23232 11.7359C7.40372 11.5667 7.5 11.3373 7.5 11.098C7.5 10.8588 7.40372 10.6294 7.23232 10.4602L2.7068 5.99455L7.23232 1.52889C7.39886 1.35874 7.49101 1.13086 7.48893 0.894313C7.48684 0.657771 7.39069 0.431499 7.22119 0.264233C7.05168 0.0969667 6.82237 0.00208849 6.58266 3.32984e-05C6.34295 -0.00202189 6.11201 0.08891 5.93958 0.253244L0.767681 5.35673C0.596286 5.52591 0.500002 5.75533 0.500002 5.99455C0.500002 6.23377 0.596286 6.4632 0.767681 6.63238L5.93958 11.7359C6.11102 11.905 6.34352 12 6.58595 12C6.82837 12 7.06087 11.905 7.23232 11.7359Z" fill="#52559F"/>
</svg>
