<svg width="28" height="28" viewBox="0 0 28 28" fill="none" xmlns="http://www.w3.org/2000/svg">
<g clip-path="url(#clip0_1502_1341)">
<rect width="28" height="28" rx="14" fill="white"/>
<path d="M13.2572 19.7374C13.2572 19.0835 13.2526 18.4203 13.2433 17.7478C13.2387 17.0707 13.2201 16.4029 13.1877 15.7443C13.1598 15.0812 13.1158 14.4319 13.0555 13.7965C12.9998 13.1565 12.9187 12.5467 12.812 11.967C12.71 11.3872 12.5801 10.8423 12.4224 10.3322C12.2648 9.82203 12.0746 9.36058 11.852 8.94783L13.4659 7.95304C13.7024 8.31478 13.8995 8.70667 14.0572 9.1287C14.2149 9.55072 14.3471 9.99594 14.4538 10.4643C14.5651 10.9281 14.6578 11.4151 14.732 11.9252C14.8109 12.4307 14.8874 12.9455 14.9616 13.4696C15.0126 13.8684 15.052 14.302 15.0798 14.7704C15.1123 15.2342 15.1378 15.7072 15.1564 16.1896C15.1749 16.6719 15.1865 17.1472 15.1911 17.6157C15.1958 18.0841 15.1981 18.5223 15.1981 18.9304V19.2574V19.7374H13.2572Z" fill="#52559F"/>
</g>
<rect x="1" y="1" width="26" height="26" rx="13" stroke="#52559F" stroke-width="2"/>
<defs>
<clipPath id="clip0_1502_1341">
<rect width="28" height="28" rx="14" fill="white"/>
</clipPath>
</defs>
</svg>
