<svg width="28" height="28" viewBox="0 0 28 28" fill="none" xmlns="http://www.w3.org/2000/svg">
<g clip-path="url(#clip0_1502_1354)">
<rect width="28" height="28" rx="14" fill="white"/>
<path d="M17.6591 8.82783C17.7009 9.12 17.7357 9.40058 17.7635 9.66957C17.7913 9.93855 17.8052 10.1959 17.8052 10.4417C17.8052 10.9194 17.7403 11.3878 17.6104 11.847C17.4806 12.3061 17.2441 12.7536 16.9009 13.1896C16.6272 13.5235 16.2957 13.7762 15.9061 13.9478C15.5212 14.1148 15.0968 14.1983 14.633 14.1983C14.2713 14.1983 13.9351 14.1612 13.6243 14.087C13.6939 14.6203 13.7472 15.1768 13.7843 15.7565C13.8214 16.3316 13.8493 16.9067 13.8678 17.4817C13.891 18.0522 13.9026 18.6133 13.9026 19.1652C13.9072 19.7125 13.9096 20.2226 13.9096 20.6957H11.9757C11.9757 19.8655 11.9641 19.0261 11.9409 18.1774C11.9223 17.3287 11.8806 16.5055 11.8157 15.7078C11.7554 14.9055 11.6626 14.1449 11.5374 13.4261C11.4168 12.7026 11.2545 12.0487 11.0504 11.4643V11.4713C11.0087 11.3786 10.9716 11.2904 10.9391 11.207C10.9067 11.1188 10.8742 11.0354 10.8417 10.9565C10.7861 10.8081 10.7258 10.6574 10.6609 10.5043C10.5959 10.3513 10.4986 10.1704 10.3687 9.96174L11.9896 8.91826C12.073 9.05275 12.1426 9.17333 12.1983 9.28C12.2586 9.38667 12.3119 9.4887 12.3583 9.58609C12.4046 9.67884 12.4464 9.76928 12.4835 9.85739C12.5206 9.94551 12.56 10.0383 12.6017 10.1357C12.6388 10.2238 12.6736 10.3119 12.7061 10.4C12.7432 10.4835 12.7826 10.5739 12.8243 10.6713C12.931 10.9217 13.0377 11.1467 13.1443 11.3461C13.251 11.5455 13.3716 11.7148 13.5061 11.8539C13.6452 11.993 13.8029 12.0997 13.9791 12.1739C14.16 12.2481 14.378 12.2829 14.633 12.2783C14.9484 12.2736 15.1896 12.2064 15.3565 12.0765C15.5281 11.9467 15.6487 11.7843 15.7183 11.5896C15.7925 11.3901 15.8342 11.1722 15.8435 10.9357C15.8574 10.6945 15.8643 10.458 15.8643 10.2261C15.8643 10.022 15.8551 9.84348 15.8365 9.69043C15.8226 9.53739 15.8017 9.36116 15.7739 9.16174L17.6591 8.82783Z" fill="#52559F"/>
</g>
<rect x="1" y="1" width="26" height="26" rx="13" stroke="#52559F" stroke-width="2"/>
<defs>
<clipPath id="clip0_1502_1354">
<rect width="28" height="28" rx="14" fill="white"/>
</clipPath>
</defs>
</svg>
