<svg width="28" height="28" viewBox="0 0 28 28" fill="none" xmlns="http://www.w3.org/2000/svg">
<g clip-path="url(#clip0_1502_1367)">
<rect width="28" height="28" rx="14" fill="white"/>
<path d="M19.2171 7.91826L19.2936 8.34261C19.3261 8.51884 19.3539 8.68116 19.3771 8.82957C19.4049 8.97333 19.4258 9.11014 19.4397 9.24C19.4583 9.36985 19.4722 9.49971 19.4814 9.62957C19.4954 9.75942 19.5023 9.89855 19.5023 10.047C19.5023 10.5617 19.4397 11 19.3145 11.3617C19.1939 11.7235 19.0246 12.0412 18.8067 12.3148C18.5933 12.5559 18.3568 12.7484 18.0971 12.8922C17.8374 13.0313 17.529 13.1009 17.1719 13.1009C17.0467 13.1009 16.9075 13.0893 16.7545 13.0661C16.6014 13.0429 16.4438 13.0035 16.2814 12.9478C16.1238 12.8875 15.9638 12.8064 15.8014 12.7043C15.6438 12.6023 15.5 12.4725 15.3701 12.3148L15.3632 12.3217C15.2333 12.4609 15.1035 12.5884 14.9736 12.7043C14.8484 12.8203 14.7139 12.9177 14.5701 12.9965C14.4264 13.0754 14.2687 13.1357 14.0971 13.1774C13.9301 13.2191 13.7446 13.24 13.5406 13.24C13.4061 13.24 13.2809 13.233 13.1649 13.2191C13.049 13.2052 12.94 13.1867 12.838 13.1635V13.2052C12.8983 13.6875 12.9469 14.2093 12.984 14.7704C13.0212 15.327 13.0513 15.8928 13.0745 16.4678C13.0977 17.0383 13.1139 17.6017 13.1232 18.1583C13.1325 18.7101 13.1371 19.2203 13.1371 19.6887H11.1893C11.1939 19.5867 11.1962 19.4684 11.1962 19.3339C11.2009 19.2041 11.2055 19.0696 11.2101 18.9304C11.2148 18.7867 11.2171 18.6499 11.2171 18.52C11.2217 18.3855 11.224 18.2672 11.224 18.1652C11.224 17.7154 11.2171 17.2377 11.2032 16.7322C11.1939 16.2267 11.1707 15.7096 11.1336 15.1809C11.0965 14.6522 11.0432 14.1165 10.9736 13.5739C10.904 13.0313 10.809 12.5003 10.6884 11.9809C10.5725 11.4614 10.4287 10.9629 10.2571 10.4852C10.0901 10.0029 9.88608 9.55768 9.64492 9.14956L11.391 8.13391C11.4977 8.31015 11.602 8.50029 11.704 8.70435C11.8061 8.90377 11.8942 9.09391 11.9684 9.27478C12.0612 9.47884 12.1493 9.68522 12.2327 9.89391C12.3487 10.149 12.4554 10.367 12.5527 10.5478C12.6501 10.7241 12.7475 10.8701 12.8449 10.9861C12.9469 11.0974 13.0513 11.1786 13.158 11.2296C13.2693 11.2806 13.3968 11.3061 13.5406 11.3061C13.7075 11.3061 13.8397 11.2597 13.9371 11.167C14.0391 11.0696 14.1133 10.9397 14.1597 10.7774C14.2107 10.6151 14.2432 10.4319 14.2571 10.2278C14.2756 10.0238 14.2896 9.81739 14.2988 9.6087C14.2988 9.56232 14.2965 9.49275 14.2919 9.4C14.2919 9.30261 14.2872 9.20058 14.278 9.09391C14.2687 8.98261 14.2617 8.88058 14.2571 8.78783C14.2525 8.69507 14.2478 8.62551 14.2432 8.57913L16.0797 8.34261C16.0843 8.57913 16.0959 8.79014 16.1145 8.97565C16.1377 9.16116 16.1632 9.33739 16.191 9.50435C16.2235 9.66667 16.2629 9.82899 16.3093 9.9913C16.3556 10.149 16.4067 10.3275 16.4623 10.527H16.4554C16.5064 10.6846 16.569 10.8075 16.6432 10.8957C16.7174 10.9838 16.7893 11.0464 16.8588 11.0835C16.933 11.1206 16.998 11.1438 17.0536 11.153C17.1139 11.1623 17.1533 11.167 17.1719 11.167C17.362 11.167 17.4919 11.0835 17.5614 10.9165C17.6356 10.7496 17.6727 10.5432 17.6727 10.2974C17.6727 10.1443 17.6612 9.97739 17.638 9.79652C17.6148 9.61565 17.5846 9.43478 17.5475 9.25391C17.5151 9.07304 17.4756 8.89681 17.4293 8.72522C17.3875 8.55362 17.3481 8.4029 17.311 8.27304L19.2171 7.91826Z" fill="#52559F"/>
</g>
<rect x="1" y="1" width="26" height="26" rx="13" stroke="#52559F" stroke-width="2"/>
<defs>
<clipPath id="clip0_1502_1367">
<rect width="28" height="28" rx="14" fill="white"/>
</clipPath>
</defs>
</svg>
