<svg width="28" height="28" viewBox="0 0 28 28" fill="none" xmlns="http://www.w3.org/2000/svg">
<g clip-path="url(#clip0_1502_1380)">
<rect width="28" height="28" rx="14" fill="white"/>
<path d="M15.7623 14.1513C15.3449 14.1513 14.9344 14.1026 14.531 14.0052C14.1321 13.9078 13.7657 13.7525 13.4318 13.5391C13.5756 14.7264 13.6637 15.8255 13.6962 16.8365C13.7286 17.8429 13.7449 18.7843 13.7449 19.6609H11.811C11.811 18.6452 11.7901 17.6388 11.7483 16.6417C11.7112 15.6446 11.6278 14.687 11.4979 13.7687C11.3727 12.8504 11.1918 11.9878 10.9553 11.1809C10.7188 10.3739 10.4011 9.65739 10.0023 9.0313L11.6301 8.0087C11.8017 8.28696 11.9594 8.5629 12.1031 8.83652C12.2469 9.10551 12.3791 9.37913 12.4996 9.65739C12.6388 9.38377 12.8104 9.13797 13.0144 8.92C13.2185 8.70203 13.4434 8.51652 13.6892 8.36348C13.9396 8.21043 14.204 8.09217 14.4823 8.0087C14.7652 7.92058 15.0573 7.86956 15.3588 7.85565C15.5999 7.84174 15.855 7.85333 16.124 7.89043C16.3976 7.92754 16.6689 7.99478 16.9379 8.09217C17.2069 8.18493 17.4596 8.31014 17.6962 8.46783C17.9373 8.62551 18.146 8.82029 18.3223 9.05217L17.2231 10.4157C17.2231 10.4157 17.1721 10.3832 17.0701 10.3183C16.9681 10.2533 16.8336 10.1838 16.6666 10.1096C16.5043 10.0307 16.3165 9.95884 16.1031 9.89391C15.8944 9.82435 15.6788 9.78725 15.4562 9.78261C15.2707 9.8058 15.0712 9.86145 14.8579 9.94956C14.6492 10.0377 14.4591 10.1467 14.2875 10.2765C14.1159 10.4064 13.9744 10.5525 13.8631 10.7148C13.7565 10.8771 13.7147 11.0487 13.7379 11.2296V11.2226C13.775 11.4081 13.8608 11.5658 13.9953 11.6957C14.1344 11.8255 14.2991 11.9322 14.4892 12.0157C14.6794 12.0991 14.8834 12.1594 15.1014 12.1965C15.324 12.229 15.535 12.2452 15.7344 12.2452C15.9246 12.2452 16.1217 12.229 16.3257 12.1965C16.5344 12.1594 16.7408 12.1084 16.9449 12.0435C17.1489 11.9786 17.3437 11.9043 17.5292 11.8209C17.7194 11.7374 17.891 11.6493 18.044 11.5565L18.8927 13.1426C18.633 13.3374 18.371 13.4997 18.1066 13.6296C17.8469 13.7594 17.5849 13.8638 17.3205 13.9426C17.0608 14.0168 16.7988 14.0701 16.5344 14.1026C16.2701 14.1351 16.0127 14.1513 15.7623 14.1513Z" fill="#52559F"/>
</g>
<rect x="1" y="1" width="26" height="26" rx="13" stroke="#52559F" stroke-width="2"/>
<defs>
<clipPath id="clip0_1502_1380">
<rect width="28" height="28" rx="14" fill="white"/>
</clipPath>
</defs>
</svg>
