<svg width="28" height="28" viewBox="0 0 28 28" fill="none" xmlns="http://www.w3.org/2000/svg">
<g clip-path="url(#clip0_1502_1393)">
<rect width="28" height="28" rx="14" fill="white"/>
<path d="M15.922 19.7722C15.5463 19.7722 15.1985 19.6864 14.8785 19.5148C14.5631 19.3478 14.2988 19.1275 14.0854 18.8539C13.8443 19.1275 13.5614 19.3478 13.2367 19.5148C12.9121 19.6817 12.5596 19.7652 12.1793 19.7652C11.8037 19.7652 11.4628 19.6864 11.1567 19.5287C10.8553 19.3757 10.5933 19.1739 10.3707 18.9235C10.148 18.673 9.96717 18.3925 9.82804 18.0817C9.69355 17.771 9.60312 17.4603 9.55674 17.1496V17.1565C9.52891 17.0267 9.51036 16.8968 9.50109 16.767C9.49645 16.6325 9.49413 16.4957 9.49413 16.3565C9.49413 16.0829 9.51036 15.8093 9.54283 15.5357C9.57993 15.2574 9.63094 14.9768 9.69587 14.6939C9.78399 14.2904 9.90225 13.8916 10.0507 13.4974C10.1991 13.1032 10.3822 12.6951 10.6002 12.273C10.8228 11.851 11.0756 11.4012 11.3585 10.9235C11.646 10.4458 11.973 9.92174 12.3393 9.3513L12.0402 9.03826L13.3898 7.70957C13.7886 8.08522 14.1411 8.41681 14.4472 8.70435C14.7533 8.98725 15.0246 9.24696 15.2611 9.48348C15.5022 9.72 15.7202 9.94261 15.915 10.1513C16.1098 10.36 16.2953 10.5757 16.4715 10.7983C16.9678 11.4197 17.3898 12.0412 17.7376 12.6626C18.0901 13.2794 18.3776 13.938 18.6002 14.6383C18.6698 14.8655 18.7254 15.1136 18.7672 15.3826C18.8089 15.647 18.8298 15.9136 18.8298 16.1826C18.8298 16.6232 18.7741 17.0545 18.6628 17.4765C18.5515 17.8986 18.3776 18.2765 18.1411 18.6104C17.9046 18.9443 17.6031 19.218 17.2367 19.4313C16.875 19.6446 16.4414 19.7583 15.9359 19.7722H15.922ZM14.9411 15.3896C14.9411 15.5936 14.9527 15.8371 14.9759 16.12C14.9991 16.4029 15.0454 16.6742 15.115 16.9339C15.1892 17.1936 15.2889 17.4162 15.4141 17.6017C15.5393 17.7826 15.7063 17.8777 15.915 17.887C16.0866 17.8591 16.2489 17.7919 16.402 17.6852C16.555 17.5786 16.6872 17.4464 16.7985 17.2887C16.9144 17.131 17.0049 16.9594 17.0698 16.7739C17.1347 16.5884 17.1672 16.4052 17.1672 16.2243C17.1672 16.0435 17.1533 15.8603 17.1254 15.6748C17.0976 15.4893 17.0628 15.3293 17.0211 15.1948C16.868 14.7403 16.6663 14.309 16.4159 13.9009C16.1701 13.4881 15.8941 13.0939 15.588 12.7183C15.282 12.338 14.955 11.9739 14.6072 11.6261C14.264 11.2783 13.9254 10.9374 13.5915 10.6035C13.3272 10.9235 13.0698 11.2783 12.8193 11.6678C12.5736 12.0528 12.344 12.4423 12.1307 12.8365C11.9173 13.2307 11.7295 13.6226 11.5672 14.0122C11.4095 14.3971 11.2936 14.7542 11.2193 15.0835C11.1776 15.2968 11.1428 15.5264 11.115 15.7722C11.0872 16.0133 11.0733 16.2499 11.0733 16.4817C11.0733 16.6719 11.1011 16.8504 11.1567 17.0174C11.217 17.1843 11.2982 17.3304 11.4002 17.4557C11.5022 17.5809 11.6182 17.6806 11.748 17.7548C11.8825 17.829 12.0263 17.8661 12.1793 17.8661C12.2628 17.8661 12.3533 17.8452 12.4507 17.8035C12.5527 17.7571 12.6501 17.6899 12.7428 17.6017C12.8402 17.5136 12.9307 17.4046 13.0141 17.2748C13.0976 17.1449 13.1649 16.9896 13.2159 16.8087C13.2715 16.6139 13.3179 16.433 13.355 16.2661C13.3921 16.0945 13.4246 15.9414 13.4524 15.807C13.4756 15.6539 13.4918 15.5078 13.5011 15.3687L14.9411 15.3896Z" fill="#52559F"/>
</g>
<rect x="1" y="1" width="26" height="26" rx="13" stroke="#52559F" stroke-width="2"/>
<defs>
<clipPath id="clip0_1502_1393">
<rect width="28" height="28" rx="14" fill="white"/>
</clipPath>
</defs>
</svg>
