<svg width="28" height="28" viewBox="0 0 28 28" fill="none" xmlns="http://www.w3.org/2000/svg">
<g clip-path="url(#clip0_1502_1406)">
<rect width="28" height="28" rx="14" fill="white"/>
<path d="M10.8759 19.1252C10.8805 19.1067 10.9246 19.0046 11.008 18.8191C11.0915 18.6336 11.2051 18.3948 11.3489 18.1026C11.4973 17.8058 11.6712 17.4765 11.8707 17.1148C12.0747 16.7484 12.2973 16.3797 12.5385 16.0087C12.8121 15.5774 13.0741 15.1994 13.3246 14.8748C13.5796 14.5455 13.8579 14.2696 14.1593 14.047C13.8115 14.0423 13.4822 13.9704 13.1715 13.8313C12.8654 13.6875 12.5964 13.4974 12.3646 13.2609C12.1373 13.0197 11.9564 12.7391 11.822 12.4191C11.6875 12.0991 11.6202 11.7559 11.6202 11.3896C11.6202 11.153 11.6504 10.9165 11.7107 10.68C11.7709 10.4388 11.8591 10.2093 11.975 9.9913C12.0909 9.7687 12.2301 9.55768 12.3924 9.35826C12.5593 9.1542 12.7449 8.9687 12.9489 8.80174C13.2504 8.57449 13.5912 8.38899 13.9715 8.24522C14.3518 8.10145 14.7367 8.01797 15.1263 7.99478C15.1866 7.98551 15.2492 7.98087 15.3141 7.98087C15.3837 7.97623 15.4509 7.97391 15.5159 7.97391C15.8962 7.97391 16.2741 8.04116 16.6498 8.17565C17.0254 8.31014 17.4011 8.48174 17.7767 8.69043L16.7959 10.367C16.6336 10.2742 16.4875 10.2 16.3576 10.1443C16.2324 10.0841 16.1141 10.0377 16.0028 10.0052C15.8962 9.96812 15.7941 9.94493 15.6967 9.93565C15.5993 9.92174 15.502 9.91478 15.4046 9.91478C15.2793 9.91478 15.1425 9.92638 14.9941 9.94956C14.8504 9.97275 14.7089 10.0052 14.5698 10.047C14.4307 10.0841 14.2985 10.1281 14.1733 10.1791C14.0527 10.2301 13.9507 10.2812 13.8672 10.3322C13.7049 10.4667 13.568 10.6267 13.4567 10.8122C13.3501 10.9977 13.2967 11.1948 13.2967 11.4035C13.2967 11.5148 13.313 11.6261 13.3454 11.7374C13.364 11.8023 13.4196 11.8672 13.5124 11.9322C13.6051 11.9971 13.7211 12.0551 13.8602 12.1061C14.004 12.1571 14.1617 12.1988 14.3333 12.2313C14.5049 12.2591 14.6764 12.273 14.848 12.273C15.0707 12.2777 15.3072 12.2661 15.5576 12.2383C15.808 12.2058 16.0608 12.1641 16.3159 12.113C16.5756 12.0574 16.8353 11.9948 17.095 11.9252C17.3547 11.8557 17.6075 11.7838 17.8533 11.7096L18.5559 13.3861L17.9854 13.6574C17.5309 13.829 17.1066 14.047 16.7124 14.3113C16.3228 14.5757 15.9611 14.8655 15.6272 15.1809C15.2933 15.4916 14.9895 15.8186 14.7159 16.1617C14.4422 16.5049 14.1964 16.8435 13.9785 17.1774C13.7605 17.5113 13.5727 17.8313 13.415 18.1374C13.2573 18.4388 13.1251 18.7055 13.0185 18.9374C12.9118 19.1646 12.8307 19.3478 12.775 19.487C12.724 19.6307 12.6985 19.7049 12.6985 19.7096L10.8759 19.1252Z" fill="#52559F"/>
</g>
<rect x="1" y="1" width="26" height="26" rx="13" stroke="#52559F" stroke-width="2"/>
<defs>
<clipPath id="clip0_1502_1406">
<rect width="28" height="28" rx="14" fill="white"/>
</clipPath>
</defs>
</svg>
