<svg width="23" height="28" viewBox="0 0 23 28" fill="none" xmlns="http://www.w3.org/2000/svg">
<path d="M19.6 28C20.3426 28 21.0548 27.705 21.5799 27.1799C22.105 26.6548 22.4 25.9426 22.4 25.2V8.4L14 0H2.8C2.05739 0 1.3452 0.294999 0.820101 0.820101C0.294999 1.3452 0 2.05739 0 2.8V25.2C0 25.9426 0.294999 26.6548 0.820101 27.1799C1.3452 27.705 2.05739 28 2.8 28H19.6ZM12.6 2.8L19.6 9.8H12.6V2.8ZM4.2 8.4H8.4V11.2H4.2V8.4ZM4.2 14H18.2V16.8H4.2V14ZM4.2 19.6H18.2V22.4H4.2V19.6Z" fill="#232441"/>
</svg>
