<svg width="29" height="430" viewBox="0 0 29 430" fill="none" xmlns="http://www.w3.org/2000/svg">
<g clip-path="url(#clip0_1502_1338)">
<path d="M14.5 0L14.5 430" stroke="#232441" stroke-opacity="0.26" stroke-width="2" stroke-dasharray="5 5"/>
<g clip-path="url(#clip1_1502_1338)">
<rect y="43" width="28" height="28" rx="14" fill="white"/>
<path d="M13.2572 62.7374C13.2572 62.0835 13.2526 61.4203 13.2433 60.7478C13.2387 60.0707 13.2201 59.4029 13.1877 58.7443C13.1598 58.0812 13.1158 57.4319 13.0555 56.7965C12.9998 56.1565 12.9187 55.5467 12.812 54.967C12.71 54.3872 12.5801 53.8423 12.4224 53.3322C12.2648 52.822 12.0746 52.3606 11.852 51.9478L13.4659 50.953C13.7024 51.3148 13.8995 51.7067 14.0572 52.1287C14.2149 52.5507 14.3471 52.9959 14.4538 53.4643C14.5651 53.9281 14.6578 54.4151 14.732 54.9252C14.8109 55.4307 14.8874 55.9455 14.9616 56.4696C15.0126 56.8684 15.052 57.302 15.0798 57.7704C15.1123 58.2342 15.1378 58.7072 15.1564 59.1896C15.1749 59.6719 15.1865 60.1472 15.1911 60.6157C15.1958 61.0841 15.1981 61.5223 15.1981 61.9304V62.2574V62.7374H13.2572Z" fill="#52559F"/>
</g>
<rect x="1" y="44" width="26" height="26" rx="13" stroke="#52559F" stroke-width="2"/>
</g>
<defs>
<clipPath id="clip0_1502_1338">
<rect width="29" height="430" fill="white"/>
</clipPath>
<clipPath id="clip1_1502_1338">
<rect y="43" width="28" height="28" rx="14" fill="white"/>
</clipPath>
</defs>
</svg>
