<svg width="16" height="17" viewBox="0 0 16 17" fill="none" xmlns="http://www.w3.org/2000/svg">
<path d="M13.7359 5.26768C13.5667 5.09628 13.3373 5 13.098 5C12.8588 5 12.6294 5.09628 12.4602 5.26768L7.99455 9.7932L3.52889 5.26768C3.35874 5.10114 3.13086 5.00899 2.89431 5.01107C2.65777 5.01316 2.4315 5.10931 2.26423 5.27882C2.09697 5.44833 2.00209 5.67763 2.00003 5.91734C1.99798 6.15706 2.08891 6.388 2.25324 6.56043L7.35673 11.7323C7.52591 11.9037 7.75533 12 7.99455 12C8.23377 12 8.4632 11.9037 8.63238 11.7323L13.7359 6.56042C13.905 6.38898 14 6.15648 14 5.91405C14 5.67163 13.905 5.43913 13.7359 5.26768Z" fill="#52559F"/>
</svg>
