<svg width="21" height="20" viewBox="0 0 21 20" fill="none" xmlns="http://www.w3.org/2000/svg">
<path d="M4.92064 1.39621C4.6513 1.64998 4.5 1.99411 4.5 2.35294C4.5 2.71177 4.6513 3.05591 4.92064 3.30968L12.0322 10.0082L4.92064 16.7067C4.65894 16.9619 4.51413 17.3037 4.5174 17.6585C4.52068 18.0133 4.67177 18.3528 4.93814 18.6037C5.20451 18.8546 5.56485 18.9969 5.94154 19C6.31823 19.003 6.68114 18.8666 6.9521 18.6201L15.0794 10.9649C15.3487 10.7111 15.5 10.367 15.5 10.0082C15.5 9.64934 15.3487 9.3052 15.0794 9.05143L6.95209 1.39621C6.68268 1.14252 6.31732 1 5.93637 1C5.55541 1 5.19005 1.14252 4.92064 1.39621Z" fill="#6A7CBC"/>
</svg>
