<svg width="25" height="25" viewBox="0 0 25 25" fill="none" xmlns="http://www.w3.org/2000/svg">
<path d="M18.5 8.51086C18.5 6.91957 17.8679 5.39344 16.7426 4.26822C15.6174 3.14301 14.0913 2.51086 12.5 2.51086C10.9087 2.51086 9.38258 3.14301 8.25736 4.26822C7.13214 5.39344 6.5 6.91957 6.5 8.51086C6.5 15.5109 3.5 17.5109 3.5 17.5109H21.5C21.5 17.5109 18.5 15.5109 18.5 8.51086Z" stroke="#6A7CBC" stroke-width="2" stroke-linecap="round" stroke-linejoin="round"/>
<path d="M14.23 21.5109C14.0542 21.8139 13.8019 22.0655 13.4982 22.2404C13.1946 22.4153 12.8504 22.5073 12.5 22.5073C12.1496 22.5073 11.8054 22.4153 11.5018 22.2404C11.1982 22.0655 10.9458 21.8139 10.77 21.5109" stroke="#6A7CBC" stroke-width="2" stroke-linecap="round" stroke-linejoin="round"/>
</svg>
