<svg width="30" height="31" viewBox="0 0 30 31" fill="none" xmlns="http://www.w3.org/2000/svg">
<g clip-path="url(#clip0_1798_39)">
<path d="M28.7582 14.6899L25.3647 18.0834L19.8374 12.5561L19.6959 12.4147L19.5545 12.5561L11.9295 20.1811L11.7881 20.3225L11.9295 20.4639L17.4569 25.9925L14.0633 29.3861L14.0633 29.3861C13.7336 29.7158 13.3422 29.9774 12.9115 30.1558C12.4807 30.3343 12.0191 30.4261 11.5528 30.4261C11.0866 30.4261 10.6249 30.3343 10.1941 30.1558C9.7634 29.9774 9.37203 29.7158 9.04237 29.3861L9.04236 29.3861L6.02486 26.3686L5.88344 26.2272L5.74202 26.3686L3.38344 28.7272L1.89878 27.2425L4.25736 24.884L4.39875 24.7426L4.25739 24.6011L1.23989 21.5824L1.09844 21.7238L1.23988 21.5824C0.574358 20.9167 0.200488 20.0139 0.200488 19.0725C0.200488 18.1312 0.574358 17.2284 1.23988 16.5627L4.63345 13.1691L10.162 18.6965L10.3035 18.8379L10.4449 18.6965L18.0699 11.0715L18.2113 10.9301L18.0699 10.7886L12.5425 5.26005L15.9361 1.86646L15.9361 1.86645C16.2658 1.53674 16.6572 1.27519 17.0879 1.09675C17.5186 0.918308 17.9803 0.826465 18.4466 0.826465C18.9128 0.826465 19.3745 0.918308 19.8052 1.09675C20.236 1.27519 20.6273 1.53674 20.957 1.86645L20.957 1.86646L23.9745 4.88396L24.1159 5.02538L24.2574 4.88396L26.6159 2.52538L28.1006 4.01004L25.742 6.36862L25.6006 6.51001L25.742 6.65143L28.4182 9.32879H28.4169L28.7582 9.67019C29.4238 10.3359 29.7976 11.2387 29.7976 12.18C29.7976 13.1214 29.4238 14.0241 28.7583 14.6899C28.7583 14.6899 28.7583 14.6899 28.7582 14.6899ZM10.9975 28.2161L11.0741 28.0314L10.9976 28.2161C11.1736 28.2891 11.3623 28.3266 11.5528 28.3266C11.7434 28.3266 11.932 28.2891 12.1081 28.2161L12.0315 28.0314C12.1832 27.9685 12.3211 27.8763 12.4372 27.76L12.5786 27.9015L12.5787 27.9014L14.3461 26.134L14.4875 25.9925L14.3461 25.8511L4.77486 16.2799L4.63344 16.1384L4.49202 16.2799L2.72452 18.0474L2.72449 18.0474C2.45266 18.3193 2.29995 18.688 2.29995 19.0725C2.29995 19.457 2.45266 19.8258 2.72449 20.0977L2.7245 20.0977L10.5269 27.9014C10.527 27.9014 10.527 27.9014 10.527 27.9015C10.6617 28.0362 10.8216 28.1432 10.9975 28.2161ZM27.2749 13.2039L27.275 13.2038C27.5464 12.932 27.6988 12.5635 27.6988 12.1794C27.6988 11.7953 27.5464 11.4268 27.275 11.155L27.2749 11.1549L19.4724 3.3512C19.3378 3.21638 19.1779 3.10943 19.0018 3.03646C18.8258 2.96349 18.6371 2.92593 18.4466 2.92593C18.256 2.92593 18.0673 2.96349 17.8913 3.03646C17.7153 3.10942 17.5554 3.21634 17.4208 3.35112C17.4207 3.35114 17.4207 3.35117 17.4207 3.3512L15.6533 5.11862L15.5118 5.26004L15.6533 5.40146L25.2245 14.9727L25.366 15.1142L25.5074 14.9727L27.2749 13.2039Z" fill="#232441" stroke="#232441" stroke-width="0.4"/>
</g>
<defs>
<clipPath id="clip0_1798_39">
<rect width="30" height="30" fill="white" transform="translate(0 0.626221)"/>
</clipPath>
</defs>
</svg>
