<svg width="31" height="31" viewBox="0 0 31 31" fill="none" xmlns="http://www.w3.org/2000/svg">
<g clip-path="url(#clip0_1798_418)">
<path d="M4.25 28.2262H29.25C29.555 28.2262 29.8475 28.3474 30.0632 28.563C30.2788 28.7787 30.4 29.0712 30.4 29.3762C30.4 29.6812 30.2788 29.9737 30.0632 30.1894C29.8475 30.4051 29.555 30.5262 29.25 30.5262H4.25C3.28196 30.5262 2.35357 30.1417 1.66906 29.4572C0.984552 28.7727 0.6 27.8443 0.6 26.8762V1.87622C0.6 1.57122 0.72116 1.27871 0.936827 1.06305C1.15249 0.847381 1.445 0.726221 1.75 0.726221C2.055 0.726221 2.34751 0.847381 2.56317 1.06305C2.77884 1.27871 2.9 1.57122 2.9 1.87622V26.8762C2.9 27.2343 3.04223 27.5776 3.29541 27.8308C3.54858 28.084 3.89196 28.2262 4.25 28.2262Z" fill="#232441" stroke="#232441" stroke-width="0.2"/>
<path d="M20.0632 25.1901C19.8475 25.4058 19.555 25.527 19.25 25.527C18.945 25.527 18.6525 25.4058 18.4368 25.1901C18.2212 24.9745 18.1 24.682 18.1 24.377V15.627C18.1 15.322 18.2212 15.0294 18.4368 14.8138C18.6525 14.5981 18.945 14.477 19.25 14.477C19.555 14.477 19.8475 14.5981 20.0632 14.8138C20.2789 15.0294 20.4 15.322 20.4 15.627V24.377C20.4 24.682 20.2789 24.9745 20.0632 25.1901Z" fill="#232441" stroke="#232441" stroke-width="0.2"/>
<path d="M10.0632 25.1901C9.8475 25.4058 9.555 25.527 9.25 25.527C8.945 25.527 8.65249 25.4058 8.43683 25.1901C8.22116 24.9745 8.1 24.682 8.1 24.377V15.627C8.1 15.322 8.22116 15.0294 8.43683 14.8138C8.65249 14.5981 8.945 14.477 9.25 14.477C9.555 14.477 9.8475 14.5981 10.0632 14.8138C10.2788 15.0294 10.4 15.322 10.4 15.627V24.377C10.4 24.682 10.2788 24.9745 10.0632 25.1901Z" fill="#232441" stroke="#232441" stroke-width="0.2"/>
<path d="M25.0632 25.1894C24.8475 25.4051 24.555 25.5262 24.25 25.5262C23.945 25.5262 23.6525 25.4051 23.4368 25.1894C23.2212 24.9737 23.1 24.6812 23.1 24.3762V9.37622C23.1 9.07122 23.2212 8.77872 23.4368 8.56305C23.6525 8.34738 23.945 8.22622 24.25 8.22622C24.555 8.22622 24.8475 8.34738 25.0632 8.56305C25.2789 8.77872 25.4 9.07122 25.4 9.37622V24.3762C25.4 24.6812 25.2789 24.9737 25.0632 25.1894Z" fill="#232441" stroke="#232441" stroke-width="0.2"/>
<path d="M15.0632 25.1894C14.8475 25.4051 14.555 25.5262 14.25 25.5262C13.945 25.5262 13.6525 25.4051 13.4368 25.1894C13.2212 24.9737 13.1 24.6812 13.1 24.3762V9.37622C13.1 9.07122 13.2212 8.77872 13.4368 8.56305C13.6525 8.34738 13.945 8.22622 14.25 8.22622C14.555 8.22622 14.8475 8.34738 15.0632 8.56305C15.2789 8.77872 15.4 9.07122 15.4 9.37622V24.3762C15.4 24.6812 15.2789 24.9737 15.0632 25.1894Z" fill="#232441" stroke="#232441" stroke-width="0.2"/>
</g>
<defs>
<clipPath id="clip0_1798_418">
<rect width="30" height="30" fill="white" transform="translate(0.5 0.626221)"/>
</clipPath>
</defs>
</svg>
