<svg width="30" height="31" viewBox="0 0 30 31" fill="none" xmlns="http://www.w3.org/2000/svg">
<g clip-path="url(#clip0_1798_309)">
<path d="M13.1371 13.3002C16.132 13.3002 18.5599 10.9468 18.5599 8.04388C18.5599 5.14091 16.132 2.7876 13.1371 2.7876C10.1422 2.7876 7.71436 5.14091 7.71436 8.04388C7.71436 10.9468 10.1422 13.3002 13.1371 13.3002Z" stroke="#232441" stroke-width="2"/>
<path d="M28.0501 13.3003H25.3388M25.3388 13.3003H22.6274M25.3388 13.3003V10.6721M25.3388 13.3003V15.9284M23.9804 23.8128C23.9831 23.5973 23.9831 23.3779 23.9831 23.1558C23.9831 19.8903 19.127 17.2425 13.1375 17.2425C7.14808 17.2425 2.29199 19.8903 2.29199 23.1558C2.29199 26.4212 2.29199 29.0691 13.1375 29.0691C16.1621 29.0691 18.3434 28.8628 19.916 28.4949" stroke="#232441" stroke-width="2" stroke-linecap="round"/>
</g>
<defs>
<clipPath id="clip0_1798_309">
<rect width="28.8889" height="30" fill="white" transform="translate(0.555664 0.875)"/>
</clipPath>
</defs>
</svg>
