<svg width="29" height="31" viewBox="0 0 29 31" fill="none" xmlns="http://www.w3.org/2000/svg">
<path d="M5.37905 8.34814C5.12458 8.34814 4.85672 8.241 4.66922 8.0535C4.28083 7.66511 4.28083 7.02225 4.66922 6.63386L9.53083 1.77225C9.91922 1.38386 10.5621 1.38386 10.9505 1.77225C11.3389 2.16064 11.3389 2.8035 10.9505 3.19189L6.08887 8.0535C5.88797 8.241 5.63351 8.34814 5.37905 8.34814Z" fill="#232441"/>
<path d="M23.6205 8.34814C23.3661 8.34814 23.1116 8.25439 22.9107 8.0535L18.0491 3.19189C17.6607 2.8035 17.6607 2.16064 18.0491 1.77225C18.4375 1.38386 19.0804 1.38386 19.4688 1.77225L24.3304 6.63386C24.7188 7.02225 24.7188 7.66511 24.3304 8.0535C24.1429 8.241 23.875 8.34814 23.6205 8.34814Z" fill="#232441"/>
<path d="M25.4954 14.0001C25.4016 14.0001 25.3079 14.0001 25.2141 14.0001H24.9061H3.78557C2.84807 14.0135 1.77665 14.0135 0.99986 13.2367C0.383789 12.634 0.102539 11.6965 0.102539 10.3171C0.102539 6.63403 2.7945 6.63403 4.08022 6.63403H24.9195C26.2052 6.63403 28.8972 6.63403 28.8972 10.3171C28.8972 11.7099 28.6159 12.634 27.9999 13.2367C27.3034 13.9331 26.3659 14.0001 25.4954 14.0001ZM4.08022 11.9912H25.2275C25.8302 12.0046 26.3927 12.0046 26.5802 11.8171C26.674 11.7233 26.8749 11.4019 26.8749 10.3171C26.8749 8.80368 26.4999 8.64296 24.9061 8.64296H4.08022C2.48647 8.64296 2.11147 8.80368 2.11147 10.3171C2.11147 11.4019 2.32575 11.7233 2.40611 11.8171C2.59361 11.9912 3.1695 11.9912 3.75879 11.9912H4.08022Z" fill="#232441"/>
<path d="M11.5001 24.3125C10.951 24.3125 10.4956 23.8571 10.4956 23.308V18.5535C10.4956 18.0044 10.951 17.5491 11.5001 17.5491C12.0492 17.5491 12.5045 18.0044 12.5045 18.5535V23.308C12.5045 23.8705 12.0492 24.3125 11.5001 24.3125Z" fill="#232441"/>
<path d="M17.6607 24.3125C17.1116 24.3125 16.6562 23.8571 16.6562 23.308V18.5535C16.6562 18.0044 17.1116 17.5491 17.6607 17.5491C18.2098 17.5491 18.6652 18.0044 18.6652 18.5535V23.308C18.6652 23.8705 18.2098 24.3125 17.6607 24.3125Z" fill="#232441"/>
<path d="M18.3703 30.2723H10.2944C5.49972 30.2723 4.4283 27.4196 4.01312 24.9419L2.12472 13.3571C2.03097 12.808 2.40597 12.299 2.95508 12.2053C3.50419 12.1115 4.01312 12.4865 4.10687 13.0356L5.99526 24.6071C6.38365 26.9776 7.18722 28.2633 10.2944 28.2633H18.3703C21.8122 28.2633 22.2006 27.058 22.6426 24.7276L24.8926 13.0089C24.9997 12.4598 25.522 12.0981 26.0712 12.2187C26.6203 12.3258 26.9685 12.8481 26.8613 13.3973L24.6113 25.116C24.089 27.8348 23.2185 30.2723 18.3703 30.2723Z" fill="#232441"/>
</svg>
