<svg width="32" height="31" viewBox="0 0 32 31" fill="none" xmlns="http://www.w3.org/2000/svg">
<path d="M1.9375 29.6887C1.9375 29.6887 2.58156 26.294 2.875 25.0012C3.07 24.1415 3.8125 22.1887 11.3125 21.2512C11.3125 21.2512 12.25 24.0637 16 24.0637C19.75 24.0637 20.6875 21.2512 20.6875 21.2512C28.1875 22.1887 28.93 24.0834 29.125 25.0012C29.4006 26.2987 30.0625 29.6887 30.0625 29.6887M10.375 10.9387C10.375 14.5631 13.1875 17.5012 16 17.5012C18.8125 17.5012 21.625 14.5631 21.625 10.9387M8.5 28.7512V29.6887M23.5 28.7512V29.6887M6.625 8.12622H22.5625C22.5625 4.50185 19.6244 1.56372 16 1.56372C12.3756 1.56372 9.4375 4.50185 9.4375 8.12622" stroke="#232441" stroke-width="2" stroke-linecap="round" stroke-linejoin="round"/>
</svg>
