<svg width="18" height="19" viewBox="0 0 18 19" fill="none" xmlns="http://www.w3.org/2000/svg">
<path fill-rule="evenodd" clip-rule="evenodd" d="M15 3.5H3C2.80109 3.5 2.61032 3.57902 2.46967 3.71967C2.32902 3.86032 2.25 4.05109 2.25 4.25V14.75C2.25 14.9489 2.32902 15.1397 2.46967 15.2803C2.61032 15.421 2.80109 15.5 3 15.5H15C15.1989 15.5 15.3897 15.421 15.5303 15.2803C15.671 15.1397 15.75 14.9489 15.75 14.75V4.25C15.75 4.05109 15.671 3.86032 15.5303 3.71967C15.3897 3.57902 15.1989 3.5 15 3.5ZM3 2C2.40326 2 1.83097 2.23705 1.40901 2.65901C0.987053 3.08097 0.75 3.65326 0.75 4.25V14.75C0.75 15.3467 0.987053 15.919 1.40901 16.341C1.83097 16.7629 2.40326 17 3 17H15C15.5967 17 16.169 16.7629 16.591 16.341C17.0129 15.919 17.25 15.3467 17.25 14.75V4.25C17.25 3.65326 17.0129 3.08097 16.591 2.65901C16.169 2.23705 15.5967 2 15 2H3ZM4.5 5.75H6V7.25H4.5V5.75ZM8.25 5.75C8.05109 5.75 7.86032 5.82902 7.71967 5.96967C7.57902 6.11032 7.5 6.30109 7.5 6.5C7.5 6.69891 7.57902 6.88968 7.71967 7.03033C7.86032 7.17098 8.05109 7.25 8.25 7.25H12.75C12.9489 7.25 13.1397 7.17098 13.2803 7.03033C13.421 6.88968 13.5 6.69891 13.5 6.5C13.5 6.30109 13.421 6.11032 13.2803 5.96967C13.1397 5.82902 12.9489 5.75 12.75 5.75H8.25ZM6 8.75H4.5V10.25H6V8.75ZM7.5 9.5C7.5 9.30109 7.57902 9.11032 7.71967 8.96967C7.86032 8.82902 8.05109 8.75 8.25 8.75H12.75C12.9489 8.75 13.1397 8.82902 13.2803 8.96967C13.421 9.11032 13.5 9.30109 13.5 9.5C13.5 9.69891 13.421 9.88968 13.2803 10.0303C13.1397 10.171 12.9489 10.25 12.75 10.25H8.25C8.05109 10.25 7.86032 10.171 7.71967 10.0303C7.57902 9.88968 7.5 9.69891 7.5 9.5ZM6 11.75H4.5V13.25H6V11.75ZM7.5 12.5C7.5 12.3011 7.57902 12.1103 7.71967 11.9697C7.86032 11.829 8.05109 11.75 8.25 11.75H12.75C12.9489 11.75 13.1397 11.829 13.2803 11.9697C13.421 12.1103 13.5 12.3011 13.5 12.5C13.5 12.6989 13.421 12.8897 13.2803 13.0303C13.1397 13.171 12.9489 13.25 12.75 13.25H8.25C8.05109 13.25 7.86032 13.171 7.71967 13.0303C7.57902 12.8897 7.5 12.6989 7.5 12.5Z" fill="#52559F"/>
</svg>
