<svg width="32" height="28" viewBox="0 0 32 28" fill="none" xmlns="http://www.w3.org/2000/svg">
<path d="M31 15.0462V13.4855C31 7.60016 31 4.65669 29.242 2.82913C27.4855 1 24.6565 1 19 1H13C7.3435 1 4.5145 1 2.758 2.82913C1 4.65669 1 7.60016 1 13.4855C1 19.3709 1 22.3143 2.758 24.1419C4.5145 25.971 7.3435 25.971 13 25.971H17.5M13 19.7283H7M1 10.3641H31" stroke="#232441" stroke-width="2" stroke-linecap="round"/>
<path d="M25 25.9711C27.4853 25.9711 29.5 23.8748 29.5 21.289C29.5 18.7032 27.4853 16.6069 25 16.6069C22.5147 16.6069 20.5 18.7032 20.5 21.289C20.5 23.8748 22.5147 25.9711 25 25.9711Z" stroke="#232441" stroke-width="2"/>
<path d="M28.7495 25.1907L30.2495 26.7514" stroke="#232441" stroke-width="2" stroke-linecap="round"/>
</svg>
