<svg width="26" height="26" viewBox="0 0 26 26" fill="none" xmlns="http://www.w3.org/2000/svg">
<g clip-path="url(#clip0_808_1019)">
<path d="M5.57045 9.78983C6.03788 9.56416 6.60587 9.76228 6.83154 10.2297L8.61492 13.9236C8.68987 14.0788 8.87754 14.1443 9.03278 14.0693C9.19141 13.9928 9.25774 13.8026 9.1836 13.649L6.57819 8.25249C6.35089 7.78169 6.54726 7.2187 7.01807 6.9914C7.4855 6.76573 8.05187 6.96047 8.27917 7.43128L10.61 12.2591C10.685 12.4144 10.8743 12.479 11.0279 12.4049C11.1865 12.3283 11.2537 12.1398 11.1787 11.9846L8.57329 6.58804C8.34762 6.12061 8.54236 5.55425 9.01317 5.32695C9.48398 5.09965 10.0486 5.2994 10.2743 5.76683L12.8797 11.1634C12.9546 11.3186 13.144 11.3833 13.3026 11.3067C13.4578 11.2317 13.5233 11.0441 13.4484 10.8888L11.3921 6.62963C11.1648 6.15883 11.3645 5.59421 11.8319 5.36854C12.3027 5.14123 12.8657 5.33761 13.093 5.80842L16.5205 12.9076L16.9104 10.7759C16.9979 10.0865 17.5789 9.58753 18.2115 9.65664C18.8458 9.72913 19.2891 10.3412 19.2057 11.0306C19.2057 11.0306 18.7052 14.7306 18.4939 16.3142C18.285 17.8986 17.4571 19.4594 15.0626 20.6154C11.0987 22.5292 9.26482 19.64 8.82325 18.7254L5.12045 11.0558C4.90071 10.5834 5.09964 10.0171 5.57045 9.78983Z" fill="white"/>
</g>
<defs>
<clipPath id="clip0_808_1019">
<rect width="18.7385" height="18.7385" fill="white" transform="matrix(-0.90054 0.434773 0.434773 0.90054 17.353 0)"/>
</clipPath>
</defs>
</svg>
