<svg width="89" height="89" viewBox="0 0 89 89" fill="none" xmlns="http://www.w3.org/2000/svg">
<g filter="url(#filter0_d_1502_2965)">
<circle cx="44.5" cy="40.5" r="28.5" fill="#E7FE58"/>
</g>
<path d="M36.6667 32C35.6942 32 34.7616 32.3793 34.0739 33.0544C33.3863 33.7295 33 34.6452 33 35.6V35.9618L44 41.7776L55 35.9636V35.6C55 34.6452 54.6137 33.7295 53.9261 33.0544C53.2384 32.3793 52.3058 32 51.3333 32H36.6667ZM55 38.0066L44.4345 43.592C44.301 43.6626 44.1517 43.6995 44 43.6995C43.8483 43.6995 43.699 43.6626 43.5655 43.592L33 38.0066V46.4C33 47.3548 33.3863 48.2705 34.0739 48.9456C34.7616 49.6207 35.6942 50 36.6667 50H51.3333C52.3058 50 53.2384 49.6207 53.9261 48.9456C54.6137 48.2705 55 47.3548 55 46.4V38.0066Z" fill="#232441"/>
<defs>
<filter id="filter0_d_1502_2965" x="0" y="0" width="89" height="89" filterUnits="userSpaceOnUse" color-interpolation-filters="sRGB">
<feFlood flood-opacity="0" result="BackgroundImageFix"/>
<feColorMatrix in="SourceAlpha" type="matrix" values="0 0 0 0 0 0 0 0 0 0 0 0 0 0 0 0 0 0 127 0" result="hardAlpha"/>
<feOffset dy="4"/>
<feGaussianBlur stdDeviation="8"/>
<feComposite in2="hardAlpha" operator="out"/>
<feColorMatrix type="matrix" values="0 0 0 0 0 0 0 0 0 0 0 0 0 0 0 0 0 0 0.6 0"/>
<feBlend mode="normal" in2="BackgroundImageFix" result="effect1_dropShadow_1502_2965"/>
<feBlend mode="normal" in="SourceGraphic" in2="effect1_dropShadow_1502_2965" result="shape"/>
</filter>
</defs>
</svg>
