<svg width="89" height="89" viewBox="0 0 89 89" fill="none" xmlns="http://www.w3.org/2000/svg">
<g filter="url(#filter0_d_808_1132)">
<circle cx="44.5" cy="40.5" r="28.5" fill="#E7FE58"/>
<circle cx="44.5" cy="40.5" r="28" stroke="white" stroke-opacity="0.35"/>
</g>
<path d="M45.6877 27.8608C45.5345 27.7003 45.3504 27.5726 45.1464 27.4853C44.9424 27.398 44.7229 27.353 44.501 27.353C44.2791 27.353 44.0596 27.398 43.8556 27.4853C43.6516 27.5726 43.4675 27.7003 43.3143 27.8608L31.8299 39.8921C31.6081 40.1243 31.4593 40.4166 31.402 40.7327C31.3448 41.0487 31.3815 41.3747 31.5078 41.67C31.634 41.9654 31.8442 42.2172 32.1122 42.3942C32.3802 42.5712 32.6943 42.6656 33.0155 42.6658H35.7499V51.4158C35.7499 51.996 35.9804 52.5524 36.3906 52.9626C36.8008 53.3728 37.3572 53.6033 37.9374 53.6033H40.1249C40.7051 53.6033 41.2615 53.3728 41.6717 52.9626C42.0819 52.5524 42.3124 51.996 42.3124 51.4158V49.2283C42.3124 48.6481 42.5429 48.0917 42.9531 47.6815C43.3633 47.2713 43.9197 47.0408 44.4999 47.0408C45.0801 47.0408 45.6365 47.2713 46.0467 47.6815C46.4569 48.0917 46.6874 48.6481 46.6874 49.2283V51.4158C46.6874 51.996 46.9179 52.5524 47.3281 52.9626C47.7383 53.3728 48.2947 53.6033 48.8749 53.6033H51.0624C51.6426 53.6033 52.199 53.3728 52.6092 52.9626C53.0194 52.5524 53.2499 51.996 53.2499 51.4158V42.6658H55.9843C56.3057 42.6661 56.6201 42.5719 56.8884 42.3951C57.1568 42.2182 57.3673 41.9665 57.4938 41.671C57.6203 41.3756 57.6573 41.0495 57.6001 40.7332C57.5429 40.417 57.3941 40.1245 57.1721 39.8921L45.6877 27.8608Z" fill="#232441"/>
<defs>
<filter id="filter0_d_808_1132" x="0" y="0" width="89" height="89" filterUnits="userSpaceOnUse" color-interpolation-filters="sRGB">
<feFlood flood-opacity="0" result="BackgroundImageFix"/>
<feColorMatrix in="SourceAlpha" type="matrix" values="0 0 0 0 0 0 0 0 0 0 0 0 0 0 0 0 0 0 127 0" result="hardAlpha"/>
<feOffset dy="4"/>
<feGaussianBlur stdDeviation="8"/>
<feComposite in2="hardAlpha" operator="out"/>
<feColorMatrix type="matrix" values="0 0 0 0 0 0 0 0 0 0 0 0 0 0 0 0 0 0 0.6 0"/>
<feBlend mode="normal" in2="BackgroundImageFix" result="effect1_dropShadow_808_1132"/>
<feBlend mode="normal" in="SourceGraphic" in2="effect1_dropShadow_808_1132" result="shape"/>
</filter>
</defs>
</svg>
