<svg width="18" height="19" viewBox="0 0 18 19" fill="none" xmlns="http://www.w3.org/2000/svg">
<path d="M9.1981 11.5346C8.49142 10.9406 7.98452 10.1436 7.74616 9.25176C7.50779 8.3599 7.54949 7.41631 7.8656 6.54896C8.18171 5.6816 8.75693 4.93246 9.51325 4.40311C10.2696 3.87377 11.1704 3.58984 12.0936 3.58984C13.0167 3.58984 13.9176 3.87377 14.6739 4.40311C15.4302 4.93246 16.0054 5.6816 16.3215 6.54896C16.6376 7.41631 16.6793 8.3599 16.441 9.25176C16.2026 10.1436 15.6957 10.9406 14.989 11.5346C16.0925 12.0336 17.0488 12.8085 17.7657 13.7846C17.8981 13.965 17.9534 14.1906 17.9194 14.4118C17.8855 14.633 17.765 14.8317 17.5846 14.9641C17.4042 15.0965 17.1786 15.1518 16.9574 15.1178C16.7362 15.0839 16.5375 14.9634 16.4051 14.783C15.9089 14.1053 15.2599 13.5541 14.5108 13.1742C13.7617 12.7942 12.9335 12.5962 12.0936 12.5962C11.2536 12.5962 10.4255 12.7942 9.67634 13.1742C8.92722 13.5541 8.27823 14.1053 7.782 14.783C7.6496 14.9635 7.45091 15.0841 7.22965 15.1181C7.00839 15.1521 6.78267 15.0968 6.60216 14.9644C6.42164 14.832 6.30112 14.6333 6.2671 14.4121C6.23308 14.1908 6.28835 13.9651 6.42075 13.7846C7.13803 12.8086 8.09451 12.0337 9.1981 11.5346ZM14.9061 8.09349C14.9061 7.53723 14.7411 6.99347 14.4321 6.53095C14.123 6.06844 13.6838 5.70795 13.1699 5.49508C12.6559 5.28221 12.0904 5.22651 11.5449 5.33504C10.9993 5.44356 10.4982 5.71142 10.1048 6.10476C9.71149 6.49809 9.44363 6.99923 9.3351 7.5448C9.22658 8.09037 9.28228 8.65587 9.49515 9.16979C9.70802 9.68371 10.0685 10.123 10.531 10.432C10.9935 10.741 11.5373 10.906 12.0936 10.906C12.8395 10.906 13.5549 10.6097 14.0823 10.0822C14.6097 9.55479 14.9061 8.83942 14.9061 8.09349ZM0.414658 14.9609C0.503981 15.0266 0.60536 15.0739 0.713007 15.1004C0.820652 15.1268 0.932453 15.1318 1.04202 15.115C1.15159 15.0982 1.25678 15.06 1.35157 15.0026C1.44637 14.9451 1.52892 14.8696 1.5945 14.7802C2.09195 14.1038 2.74121 13.5535 3.49005 13.1738C4.23889 12.794 5.06642 12.5952 5.90606 12.5935C6.12984 12.5935 6.34445 12.5046 6.50269 12.3464C6.66092 12.1881 6.74981 11.9735 6.74981 11.7497C6.74981 11.526 6.66092 11.3114 6.50269 11.1531C6.34445 10.9949 6.12984 10.906 5.90606 10.906C5.50631 10.9053 5.1113 10.8194 4.74737 10.654C4.38344 10.4886 4.05895 10.2475 3.79554 9.94678C3.53212 9.64609 3.33583 9.2927 3.21976 8.91017C3.10368 8.52764 3.07048 8.12475 3.12238 7.72838C3.17427 7.33201 3.31007 6.95126 3.52071 6.6115C3.73136 6.27175 4.012 5.9808 4.34395 5.75806C4.6759 5.53532 5.05152 5.3859 5.44576 5.31976C5.84001 5.25362 6.24382 5.27229 6.63028 5.37451C6.73822 5.40574 6.85131 5.41509 6.96291 5.40202C7.07451 5.38895 7.18238 5.35372 7.28018 5.2984C7.37798 5.24308 7.46375 5.16878 7.53245 5.07987C7.60115 4.99095 7.65139 4.88921 7.68024 4.78061C7.70909 4.67201 7.71595 4.55875 7.70043 4.44746C7.68491 4.33618 7.64732 4.22911 7.58987 4.13255C7.53241 4.03598 7.45624 3.95187 7.36584 3.88514C7.27544 3.81841 7.17261 3.77042 7.06341 3.74396C6.07519 3.48212 5.02728 3.56457 4.09217 3.97773C3.15706 4.3909 2.39051 5.11015 1.91871 6.01709C1.44691 6.92402 1.29798 7.96458 1.49644 8.96744C1.6949 9.97031 2.22893 10.8757 3.0106 11.5346C1.9071 12.0336 0.950802 12.8085 0.233955 13.7846C0.102501 13.9647 0.047718 14.1896 0.0815792 14.41C0.11544 14.6305 0.235191 14.8285 0.414658 14.9609Z" fill="#52559F"/>
</svg>
