<svg width="18" height="19" viewBox="0 0 18 19" fill="none" xmlns="http://www.w3.org/2000/svg">
<mask id="path-1-outside-1_1829_1533" maskUnits="userSpaceOnUse" x="-0.0615234" y="0.4375" width="18" height="18" fill="black">
<rect fill="white" x="-0.0615234" y="0.4375" width="18" height="18"/>
<path fill-rule="evenodd" clip-rule="evenodd" d="M8.42862 2.59914C7.96812 2.65989 7.39962 2.79039 6.59112 2.97714L5.66937 3.19014C4.98687 3.34764 4.51587 3.45714 4.15662 3.58014C3.80937 3.69939 3.61287 3.81639 3.46512 3.96489C3.31662 4.11264 3.19962 4.30914 3.08037 4.65639C2.95737 5.01564 2.84787 5.48589 2.69037 6.16914L2.47737 7.09014C2.29062 7.89939 2.16012 8.46789 2.09937 8.92839C2.03937 9.37689 2.05362 9.68064 2.13312 9.95664C2.21187 10.2326 2.36112 10.4974 2.64912 10.8461C2.94537 11.2046 3.35712 11.6179 3.94437 12.2051L5.31687 13.5776C6.33612 14.5969 7.06137 15.3206 7.68537 15.7961C8.29587 16.2626 8.74287 16.4374 9.19662 16.4374C9.65112 16.4374 10.0974 16.2626 10.7086 15.7961C11.3319 15.3206 12.0579 14.5961 13.0771 13.5769C14.0971 12.5569 14.8209 11.8316 15.2971 11.2084C15.7621 10.5971 15.9376 10.1509 15.9376 9.69639C15.9376 9.24264 15.7629 8.79639 15.2964 8.18514C14.8209 7.56114 14.0964 6.83514 13.0771 5.81589L11.7046 4.44339C11.1181 3.85689 10.7049 3.44514 10.3471 3.14889C9.99762 2.86089 9.73287 2.71164 9.45687 2.63289C9.18087 2.55339 8.87712 2.53989 8.42937 2.59914M8.28237 1.48389C8.82012 1.41264 9.29187 1.41489 9.76737 1.55139C10.2436 1.68789 10.6449 1.93614 11.0634 2.28114C11.4684 2.61564 11.9184 3.06564 12.4816 3.62889L13.9036 5.05089C14.8861 6.03339 15.6646 6.81189 16.1911 7.50339C16.7341 8.21364 17.0634 8.89764 17.0634 9.69639C17.0634 10.4959 16.7341 11.1799 16.1919 11.8901C15.6646 12.5816 14.8869 13.3601 13.9036 14.3426L13.8436 14.4026C12.8611 15.3851 12.0826 16.1636 11.3911 16.6901C10.6809 17.2331 9.99612 17.5624 9.19737 17.5624C8.39862 17.5624 7.71462 17.2331 7.00362 16.6909C6.31287 16.1636 5.53437 15.3859 4.55112 14.4026L3.12987 12.9799C2.56737 12.4174 2.11662 11.9666 1.78212 11.5624C1.43712 11.1431 1.18887 10.7419 1.05237 10.2664C0.915866 9.79014 0.913616 9.31839 0.984866 8.78064C1.05312 8.26014 1.19712 7.63914 1.37562 6.86364L1.60062 5.88639C1.75062 5.23914 1.87212 4.71114 2.01687 4.29039C2.16837 3.85014 2.35812 3.48039 2.67012 3.16839C2.98212 2.85639 3.35262 2.66589 3.79212 2.51589C4.21287 2.37039 4.74087 2.24889 5.38812 2.09964L6.36537 1.87464C7.14087 1.69464 7.76187 1.55214 8.28237 1.48314M7.11762 6.49614C6.94178 6.3203 6.70329 6.22152 6.45462 6.22152C6.20594 6.22152 5.96745 6.3203 5.79162 6.49614C5.61578 6.67198 5.51699 6.91047 5.51699 7.15914C5.51699 7.40781 5.61578 7.6463 5.79162 7.82214C5.87868 7.90921 5.98205 7.97827 6.0958 8.02539C6.20956 8.07251 6.33149 8.09676 6.45462 8.09676C6.57775 8.09676 6.69967 8.07251 6.81343 8.02539C6.92719 7.97827 7.03055 7.90921 7.11762 7.82214C7.20468 7.73507 7.27375 7.63171 7.32087 7.51795C7.36799 7.40419 7.39224 7.28227 7.39224 7.15914C7.39224 7.03601 7.36799 6.91408 7.32087 6.80033C7.27375 6.68657 7.20468 6.58321 7.11762 6.49614ZM4.99587 5.70114C5.38265 5.31425 5.90728 5.09687 6.45435 5.0968C7.00142 5.09673 7.52611 5.31398 7.91299 5.70076C8.29988 6.08755 8.51726 6.61218 8.51733 7.15925C8.51741 7.70632 8.30015 8.23101 7.91337 8.61789C7.52648 9.00477 7.00175 9.22212 6.45462 9.22212C5.90748 9.22212 5.38275 9.00477 4.99587 8.61789C4.60898 8.23101 4.39163 7.70628 4.39163 7.15914C4.39163 6.612 4.60898 6.08802 4.99587 5.70114ZM9.74337 9.57939C9.56997 9.586 9.40615 9.66064 9.28737 9.78714C8.99637 10.0781 9.07287 10.3684 9.15462 10.4501C9.23712 10.5319 9.52737 10.6076 9.81762 10.3174C10.4056 9.72939 11.4211 9.53439 12.0714 10.1846C12.5761 10.6894 12.5724 11.4139 12.2701 11.9876C12.3445 12.0957 12.3787 12.2264 12.3669 12.3571C12.355 12.4878 12.2979 12.6102 12.2054 12.7032C12.1128 12.7962 11.9907 12.8539 11.86 12.8664C11.7294 12.8788 11.5986 12.8452 11.4901 12.7714C11.1535 12.9559 10.7632 13.0175 10.3861 12.9454C10.3137 12.9305 10.245 12.9015 10.1838 12.8601C10.1226 12.8186 10.0702 12.7656 10.0295 12.7039C9.98882 12.6421 9.9607 12.573 9.94674 12.5005C9.93278 12.4279 9.93324 12.3533 9.94812 12.2809C9.96299 12.2085 9.99197 12.1397 10.0334 12.0786C10.0749 12.0174 10.1279 11.9649 10.1897 11.9243C10.2514 11.8836 10.3205 11.8555 10.393 11.8415C10.4656 11.8275 10.5402 11.828 10.6126 11.8429C10.7454 11.8706 10.9599 11.8279 11.1436 11.6434C11.4339 11.3524 11.3581 11.0621 11.2764 10.9804C11.1939 10.8986 10.9036 10.8229 10.6134 11.1131C10.0254 11.7011 9.00987 11.8961 8.35962 11.2459C7.85487 10.7411 7.85862 10.0166 8.16087 9.44289C8.08651 9.33479 8.05229 9.20409 8.06411 9.07342C8.07594 8.94275 8.13307 8.82032 8.22562 8.72733C8.31818 8.63433 8.44033 8.57661 8.57094 8.56416C8.70155 8.55171 8.83241 8.5853 8.94087 8.65914C9.19587 8.52339 9.47562 8.45139 9.75462 8.45439C9.9038 8.45578 10.0463 8.51638 10.1508 8.62285C10.2553 8.72933 10.3133 8.87296 10.3119 9.02214C10.3105 9.17132 10.2499 9.31385 10.1434 9.41835C10.0369 9.52285 9.89255 9.58078 9.74337 9.57939Z"/>
</mask>
<path fill-rule="evenodd" clip-rule="evenodd" d="M8.42862 2.59914C7.96812 2.65989 7.39962 2.79039 6.59112 2.97714L5.66937 3.19014C4.98687 3.34764 4.51587 3.45714 4.15662 3.58014C3.80937 3.69939 3.61287 3.81639 3.46512 3.96489C3.31662 4.11264 3.19962 4.30914 3.08037 4.65639C2.95737 5.01564 2.84787 5.48589 2.69037 6.16914L2.47737 7.09014C2.29062 7.89939 2.16012 8.46789 2.09937 8.92839C2.03937 9.37689 2.05362 9.68064 2.13312 9.95664C2.21187 10.2326 2.36112 10.4974 2.64912 10.8461C2.94537 11.2046 3.35712 11.6179 3.94437 12.2051L5.31687 13.5776C6.33612 14.5969 7.06137 15.3206 7.68537 15.7961C8.29587 16.2626 8.74287 16.4374 9.19662 16.4374C9.65112 16.4374 10.0974 16.2626 10.7086 15.7961C11.3319 15.3206 12.0579 14.5961 13.0771 13.5769C14.0971 12.5569 14.8209 11.8316 15.2971 11.2084C15.7621 10.5971 15.9376 10.1509 15.9376 9.69639C15.9376 9.24264 15.7629 8.79639 15.2964 8.18514C14.8209 7.56114 14.0964 6.83514 13.0771 5.81589L11.7046 4.44339C11.1181 3.85689 10.7049 3.44514 10.3471 3.14889C9.99762 2.86089 9.73287 2.71164 9.45687 2.63289C9.18087 2.55339 8.87712 2.53989 8.42937 2.59914M8.28237 1.48389C8.82012 1.41264 9.29187 1.41489 9.76737 1.55139C10.2436 1.68789 10.6449 1.93614 11.0634 2.28114C11.4684 2.61564 11.9184 3.06564 12.4816 3.62889L13.9036 5.05089C14.8861 6.03339 15.6646 6.81189 16.1911 7.50339C16.7341 8.21364 17.0634 8.89764 17.0634 9.69639C17.0634 10.4959 16.7341 11.1799 16.1919 11.8901C15.6646 12.5816 14.8869 13.3601 13.9036 14.3426L13.8436 14.4026C12.8611 15.3851 12.0826 16.1636 11.3911 16.6901C10.6809 17.2331 9.99612 17.5624 9.19737 17.5624C8.39862 17.5624 7.71462 17.2331 7.00362 16.6909C6.31287 16.1636 5.53437 15.3859 4.55112 14.4026L3.12987 12.9799C2.56737 12.4174 2.11662 11.9666 1.78212 11.5624C1.43712 11.1431 1.18887 10.7419 1.05237 10.2664C0.915866 9.79014 0.913616 9.31839 0.984866 8.78064C1.05312 8.26014 1.19712 7.63914 1.37562 6.86364L1.60062 5.88639C1.75062 5.23914 1.87212 4.71114 2.01687 4.29039C2.16837 3.85014 2.35812 3.48039 2.67012 3.16839C2.98212 2.85639 3.35262 2.66589 3.79212 2.51589C4.21287 2.37039 4.74087 2.24889 5.38812 2.09964L6.36537 1.87464C7.14087 1.69464 7.76187 1.55214 8.28237 1.48314M7.11762 6.49614C6.94178 6.3203 6.70329 6.22152 6.45462 6.22152C6.20594 6.22152 5.96745 6.3203 5.79162 6.49614C5.61578 6.67198 5.51699 6.91047 5.51699 7.15914C5.51699 7.40781 5.61578 7.6463 5.79162 7.82214C5.87868 7.90921 5.98205 7.97827 6.0958 8.02539C6.20956 8.07251 6.33149 8.09676 6.45462 8.09676C6.57775 8.09676 6.69967 8.07251 6.81343 8.02539C6.92719 7.97827 7.03055 7.90921 7.11762 7.82214C7.20468 7.73507 7.27375 7.63171 7.32087 7.51795C7.36799 7.40419 7.39224 7.28227 7.39224 7.15914C7.39224 7.03601 7.36799 6.91408 7.32087 6.80033C7.27375 6.68657 7.20468 6.58321 7.11762 6.49614ZM4.99587 5.70114C5.38265 5.31425 5.90728 5.09687 6.45435 5.0968C7.00142 5.09673 7.52611 5.31398 7.91299 5.70076C8.29988 6.08755 8.51726 6.61218 8.51733 7.15925C8.51741 7.70632 8.30015 8.23101 7.91337 8.61789C7.52648 9.00477 7.00175 9.22212 6.45462 9.22212C5.90748 9.22212 5.38275 9.00477 4.99587 8.61789C4.60898 8.23101 4.39163 7.70628 4.39163 7.15914C4.39163 6.612 4.60898 6.08802 4.99587 5.70114ZM9.74337 9.57939C9.56997 9.586 9.40615 9.66064 9.28737 9.78714C8.99637 10.0781 9.07287 10.3684 9.15462 10.4501C9.23712 10.5319 9.52737 10.6076 9.81762 10.3174C10.4056 9.72939 11.4211 9.53439 12.0714 10.1846C12.5761 10.6894 12.5724 11.4139 12.2701 11.9876C12.3445 12.0957 12.3787 12.2264 12.3669 12.3571C12.355 12.4878 12.2979 12.6102 12.2054 12.7032C12.1128 12.7962 11.9907 12.8539 11.86 12.8664C11.7294 12.8788 11.5986 12.8452 11.4901 12.7714C11.1535 12.9559 10.7632 13.0175 10.3861 12.9454C10.3137 12.9305 10.245 12.9015 10.1838 12.8601C10.1226 12.8186 10.0702 12.7656 10.0295 12.7039C9.98882 12.6421 9.9607 12.573 9.94674 12.5005C9.93278 12.4279 9.93324 12.3533 9.94812 12.2809C9.96299 12.2085 9.99197 12.1397 10.0334 12.0786C10.0749 12.0174 10.1279 11.9649 10.1897 11.9243C10.2514 11.8836 10.3205 11.8555 10.393 11.8415C10.4656 11.8275 10.5402 11.828 10.6126 11.8429C10.7454 11.8706 10.9599 11.8279 11.1436 11.6434C11.4339 11.3524 11.3581 11.0621 11.2764 10.9804C11.1939 10.8986 10.9036 10.8229 10.6134 11.1131C10.0254 11.7011 9.00987 11.8961 8.35962 11.2459C7.85487 10.7411 7.85862 10.0166 8.16087 9.44289C8.08651 9.33479 8.05229 9.20409 8.06411 9.07342C8.07594 8.94275 8.13307 8.82032 8.22562 8.72733C8.31818 8.63433 8.44033 8.57661 8.57094 8.56416C8.70155 8.55171 8.83241 8.5853 8.94087 8.65914C9.19587 8.52339 9.47562 8.45139 9.75462 8.45439C9.9038 8.45578 10.0463 8.51638 10.1508 8.62285C10.2553 8.72933 10.3133 8.87296 10.3119 9.02214C10.3105 9.17132 10.2499 9.31385 10.1434 9.41835C10.0369 9.52285 9.89255 9.58078 9.74337 9.57939Z" fill="#52559F"/>
<path d="M6.59112 2.97714L6.5461 2.78227L6.54609 2.78227L6.59112 2.97714ZM5.66937 3.19014L5.71434 3.38502L5.7144 3.385L5.66937 3.19014ZM4.15662 3.58014L4.09183 3.39092L4.09166 3.39098L4.15662 3.58014ZM3.46512 3.96489L3.60618 4.10667L3.60689 4.10595L3.46512 3.96489ZM3.08037 4.65639L2.89121 4.59143L2.89115 4.59161L3.08037 4.65639ZM2.69037 6.16914L2.88522 6.2142L2.88525 6.21406L2.69037 6.16914ZM2.47737 7.09014L2.28251 7.04507L2.28249 7.04517L2.47737 7.09014ZM2.09937 8.92839L2.2976 8.95491L2.29765 8.95455L2.09937 8.92839ZM2.13312 9.95664L2.32544 9.90176L2.3253 9.90128L2.13312 9.95664ZM2.64912 10.8461L2.4949 10.9735L2.49494 10.9735L2.64912 10.8461ZM3.94437 12.2051L3.80294 12.3466L3.94437 12.2051ZM5.31687 13.5776L5.45829 13.4362L5.31687 13.5776ZM7.68537 15.7961L7.8068 15.6372L7.80659 15.6371L7.68537 15.7961ZM10.7086 15.7961L10.5873 15.6371L10.5873 15.6372L10.7086 15.7961ZM15.2971 11.2084L15.456 11.3298L15.4563 11.3295L15.2971 11.2084ZM15.2964 8.18514L15.1373 8.30636L15.1374 8.30648L15.2964 8.18514ZM13.0771 5.81589L13.2185 5.67447L13.0771 5.81589ZM11.7046 4.44339L11.5632 4.58481L11.7046 4.44339ZM10.3471 3.14889L10.4747 2.99485L10.4743 2.99454L10.3471 3.14889ZM9.45687 2.63289L9.40151 2.82508L9.40199 2.82521L9.45687 2.63289ZM9.76737 1.55139L9.71218 1.74362L9.71226 1.74365L9.76737 1.55139ZM11.0634 2.28114L11.1907 2.12693L11.1906 2.12682L11.0634 2.28114ZM12.4816 3.62889L12.623 3.48747L12.4816 3.62889ZM13.9036 5.05089L13.7622 5.19231L13.9036 5.05089ZM16.1911 7.50339L16.032 7.62455L16.0322 7.62486L16.1911 7.50339ZM16.1919 11.8901L16.0329 11.7688L16.0328 11.7689L16.1919 11.8901ZM13.9036 14.3426L13.7622 14.2012L13.7622 14.2012L13.9036 14.3426ZM11.3911 16.6901L11.27 16.531L11.2696 16.5313L11.3911 16.6901ZM7.00362 16.6909L6.88227 16.8499L6.88233 16.8499L7.00362 16.6909ZM4.55112 14.4026L4.40962 14.544L4.40969 14.5441L4.55112 14.4026ZM3.12987 12.9799L3.27136 12.8385L3.27129 12.8385L3.12987 12.9799ZM1.78212 11.5624L1.62768 11.6895L1.62803 11.6899L1.78212 11.5624ZM1.05237 10.2664L0.860107 10.3215L0.86013 10.3216L1.05237 10.2664ZM0.984866 8.78064L1.18313 8.80691L1.18317 8.80664L0.984866 8.78064ZM1.37562 6.86364L1.18071 6.81877L1.18071 6.81878L1.37562 6.86364ZM1.60062 5.88639L1.40578 5.84124L1.40571 5.84152L1.60062 5.88639ZM2.01687 4.29039L1.82775 4.22531L1.82774 4.22533L2.01687 4.29039ZM3.79212 2.51589L3.85672 2.70517L3.85748 2.70491L3.79212 2.51589ZM5.38812 2.09964L5.34324 1.90474L5.34318 1.90475L5.38812 2.09964ZM6.36537 1.87464L6.41024 2.06954L6.41059 2.06946L6.36537 1.87464ZM6.45462 6.22152V6.02152V6.22152ZM5.51699 7.15914H5.31699H5.51699ZM6.45462 8.09676V8.29676V8.09676ZM7.39224 7.15914H7.59224H7.39224ZM4.99587 5.70114L5.13729 5.84256L5.13731 5.84254L4.99587 5.70114ZM7.91337 8.61789L8.05479 8.75931L8.05481 8.75929L7.91337 8.61789ZM9.74337 9.57939L9.74523 9.37917L9.73575 9.37954L9.74337 9.57939ZM9.28737 9.78714L9.42886 9.92863L9.43317 9.92404L9.28737 9.78714ZM9.15462 10.4501L9.01319 10.5916L9.01384 10.5922L9.15462 10.4501ZM12.2701 11.9876L12.0932 11.8944L12.0368 12.0014L12.1053 12.101L12.2701 11.9876ZM11.4901 12.7714L11.6027 12.6061L11.5014 12.5371L11.394 12.596L11.4901 12.7714ZM10.3861 12.9454L10.3459 13.1413L10.3486 13.1418L10.3861 12.9454ZM10.6126 11.8429L10.6535 11.6471L10.6529 11.647L10.6126 11.8429ZM11.1436 11.6434L11.002 11.5022L11.0019 11.5023L11.1436 11.6434ZM11.2764 10.9804L11.4178 10.839L11.4171 10.8383L11.2764 10.9804ZM8.16087 9.44289L8.33781 9.53611L8.39416 9.42915L8.32565 9.32955L8.16087 9.44289ZM8.94087 8.65914L8.82832 8.82447L8.92819 8.89246L9.03485 8.83568L8.94087 8.65914ZM9.75462 8.45439L9.75247 8.65438L9.75275 8.65438L9.75462 8.45439ZM10.1434 9.41835L10.2835 9.56108L10.1434 9.41835ZM8.40246 2.40086C7.93025 2.46315 7.35092 2.59637 6.5461 2.78227L6.63613 3.17201C7.44831 2.98441 8.00598 2.85663 8.45477 2.79742L8.40246 2.40086ZM6.54609 2.78227L5.62434 2.99527L5.7144 3.385L6.63615 3.172L6.54609 2.78227ZM5.62439 2.99526C4.94596 3.15182 4.46313 3.2638 4.09183 3.39092L4.2214 3.76936C4.5686 3.65048 5.02777 3.54346 5.71434 3.38502L5.62439 2.99526ZM4.09166 3.39098C3.72825 3.51578 3.50053 3.64573 3.32334 3.82383L3.60689 4.10595C3.7252 3.98704 3.89048 3.883 4.22157 3.7693L4.09166 3.39098ZM3.32405 3.82311C3.14596 4.0003 3.01601 4.22802 2.89121 4.59143L3.26952 4.72135C3.38322 4.39026 3.48727 4.22497 3.60618 4.10667L3.32405 3.82311ZM2.89115 4.59161C2.76402 4.9629 2.65206 5.44492 2.49548 6.12421L2.88525 6.21406C3.04367 5.52685 3.15071 5.06838 3.26958 4.72117L2.89115 4.59161ZM2.49551 6.12407L2.28251 7.04507L2.67222 7.1352L2.88522 6.2142L2.49551 6.12407ZM2.28249 7.04517C2.09659 7.8507 1.96338 8.43004 1.90108 8.90223L2.29765 8.95455C2.35685 8.50574 2.48464 7.94808 2.67224 7.13511L2.28249 7.04517ZM1.90113 8.90187C1.83895 9.36669 1.85119 9.70043 1.94093 10.012L2.3253 9.90128C2.25605 9.66085 2.23978 9.38709 2.2976 8.95491L1.90113 8.90187ZM1.94079 10.0115C2.02974 10.3232 2.19668 10.6124 2.4949 10.9735L2.80333 10.7188C2.52556 10.3824 2.39399 10.142 2.32544 9.90176L1.94079 10.0115ZM2.49494 10.9735C2.79862 11.341 3.21826 11.7619 3.80294 12.3466L4.08579 12.0637C3.49597 11.4739 3.09211 11.0683 2.80329 10.7187L2.49494 10.9735ZM3.80294 12.3466L5.17544 13.7191L5.45829 13.4362L4.08579 12.0637L3.80294 12.3466ZM5.17544 13.7191C6.1906 14.7342 6.92688 15.4696 7.56415 15.9552L7.80659 15.6371C7.19585 15.1717 6.48163 14.4596 5.45829 13.4362L5.17544 13.7191ZM7.56393 15.9551C8.19243 16.4353 8.68164 16.6374 9.19662 16.6374V16.2374C8.80409 16.2374 8.39931 16.09 7.8068 15.6372L7.56393 15.9551ZM9.19662 16.6374C9.71236 16.6374 10.2008 16.4353 10.83 15.9551L10.5873 15.6372C9.99392 16.09 9.58987 16.2374 9.19662 16.2374V16.6374ZM10.8299 15.9551C11.4664 15.4696 12.2034 14.7335 13.2185 13.7183L12.9357 13.4355C11.9124 14.4588 11.1974 15.1717 10.5873 15.6371L10.8299 15.9551ZM13.2185 13.7183C14.2345 12.7024 14.9698 11.9662 15.456 11.3298L15.1382 11.087C14.672 11.6971 13.9597 12.4114 12.9357 13.4355L13.2185 13.7183ZM15.4563 11.3295C15.9347 10.7006 16.1376 10.2122 16.1376 9.69639H15.7376C15.7376 10.0896 15.5895 10.4937 15.1379 11.0873L15.4563 11.3295ZM16.1376 9.69639C16.1376 9.18136 15.9355 8.6929 15.4554 8.0638L15.1374 8.30648C15.5903 8.89988 15.7376 9.30392 15.7376 9.69639H16.1376ZM15.4554 8.06392C14.9698 7.42666 14.2337 6.68962 13.2185 5.67447L12.9357 5.95731C13.959 6.98066 14.6719 7.69562 15.1373 8.30636L15.4554 8.06392ZM13.2185 5.67447L11.846 4.30197L11.5632 4.58481L12.9357 5.95731L13.2185 5.67447ZM11.846 4.30197C11.2621 3.71801 10.8413 3.29845 10.4747 2.99485L10.2196 3.30293C10.5684 3.59183 10.9742 3.99577 11.5632 4.58481L11.846 4.30197ZM10.4743 2.99454C10.1125 2.69643 9.82346 2.52951 9.51174 2.44056L9.40199 2.82521C9.64228 2.89377 9.8827 3.02535 10.2199 3.30324L10.4743 2.99454ZM9.51222 2.4407C9.20049 2.35091 8.8667 2.33952 8.40313 2.40087L8.4556 2.79741C8.88753 2.74025 9.16124 2.75587 9.40151 2.82508L9.51222 2.4407ZM8.30864 1.68216C8.83039 1.61303 9.27223 1.61733 9.71218 1.74362L9.82255 1.35915C9.3115 1.21245 8.80984 1.21225 8.2561 1.28562L8.30864 1.68216ZM9.71226 1.74365C10.153 1.86997 10.53 2.10064 10.9361 2.43546L11.1906 2.12682C10.7597 1.77164 10.3342 1.50581 9.82247 1.35913L9.71226 1.74365ZM10.936 2.43534C11.332 2.76243 11.7745 3.20461 12.3402 3.77031L12.623 3.48747C12.0622 2.92667 11.6047 2.46885 11.1907 2.12693L10.936 2.43534ZM12.3402 3.77031L13.7622 5.19231L14.045 4.90947L12.623 3.48747L12.3402 3.77031ZM13.7622 5.19231C14.7485 6.1786 15.5156 6.94627 16.032 7.62455L16.3502 7.38223C15.8137 6.67751 15.0237 5.88818 14.045 4.90947L13.7622 5.19231ZM16.0322 7.62486C16.5616 8.31729 16.8634 8.95903 16.8634 9.69639H17.2634C17.2634 8.83625 16.9066 8.10999 16.35 7.38192L16.0322 7.62486ZM16.8634 9.69639C16.8634 10.4345 16.5616 11.0763 16.0329 11.7688L16.3508 12.0115C16.9067 11.2835 17.2634 10.5572 17.2634 9.69639H16.8634ZM16.0328 11.7689C15.5156 12.4472 14.7491 13.215 13.7622 14.2012L14.045 14.4841C15.0246 13.5053 15.8136 12.7161 16.3509 12.0114L16.0328 11.7689ZM13.7622 14.2012L13.7022 14.2612L13.985 14.5441L14.045 14.4841L13.7622 14.2012ZM13.7022 14.2612C12.7159 15.2475 11.9482 16.0146 11.27 16.531L11.5123 16.8493C12.217 16.3127 13.0063 15.5228 13.985 14.5441L13.7022 14.2612ZM11.2696 16.5313C10.5773 17.0606 9.93477 17.3624 9.19737 17.3624V17.7624C10.0575 17.7624 10.7845 17.4057 11.5126 16.849L11.2696 16.5313ZM9.19737 17.3624C8.45998 17.3624 7.8182 17.0606 7.1249 16.5319L6.88233 16.8499C7.61103 17.4057 8.33725 17.7624 9.19737 17.7624V17.3624ZM7.12497 16.5319C6.44729 16.0146 5.67947 15.2482 4.69254 14.2612L4.40969 14.5441C5.38926 15.5236 6.17845 16.3126 6.88227 16.8499L7.12497 16.5319ZM4.69261 14.2613L3.27136 12.8385L2.98837 13.1212L4.40962 14.544L4.69261 14.2613ZM3.27129 12.8385C2.70635 12.2735 2.26335 11.8303 1.9362 11.4349L1.62803 11.6899C1.96988 12.103 2.42838 12.5612 2.98844 13.1213L3.27129 12.8385ZM1.93655 11.4353C1.60161 11.0283 1.37092 10.6512 1.2446 10.2112L0.86013 10.3216C1.00682 10.8326 1.27262 11.258 1.62768 11.6895L1.93655 11.4353ZM1.24462 10.2113C1.11829 9.77052 1.11401 9.32863 1.18313 8.80691L0.786598 8.75437C0.713225 9.30815 0.713437 9.80976 0.860107 10.3215L1.24462 10.2113ZM1.18317 8.80664C1.24988 8.29787 1.39116 7.68775 1.57052 6.9085L1.18071 6.81878C1.00307 7.59053 0.856351 8.22241 0.786563 8.75464L1.18317 8.80664ZM1.57052 6.90851L1.79552 5.93126L1.40571 5.84152L1.18071 6.81877L1.57052 6.90851ZM1.79545 5.93154C1.94637 5.28031 2.06539 4.76413 2.20599 4.35545L1.82774 4.22533C1.67884 4.65815 1.55486 5.19797 1.40578 5.84124L1.79545 5.93154ZM2.20598 4.35547C2.35189 3.93148 2.52874 3.59261 2.81154 3.30981L2.52869 3.02697C2.18749 3.36817 1.98485 3.7688 1.82775 4.22531L2.20598 4.35547ZM2.81154 3.30981C3.09437 3.02697 3.43398 2.84945 3.85672 2.70517L3.72752 2.32661C3.27126 2.48233 2.86986 2.6858 2.52869 3.02697L2.81154 3.30981ZM3.85748 2.70491C4.2659 2.56367 4.78196 2.44466 5.43305 2.29452L5.34318 1.90475C4.69977 2.05312 4.15983 2.17711 3.72675 2.32687L3.85748 2.70491ZM5.43299 2.29454L6.41024 2.06954L6.32049 1.67974L5.34324 1.90474L5.43299 2.29454ZM6.41059 2.06946C7.189 1.88878 7.79971 1.74887 8.30865 1.6814L8.25608 1.28487C7.72403 1.35541 7.09273 1.50049 6.32015 1.67982L6.41059 2.06946ZM7.25904 6.35472C7.04569 6.14137 6.75633 6.02152 6.45462 6.02152V6.42152C6.65025 6.42152 6.83786 6.49923 6.97619 6.63756L7.25904 6.35472ZM6.45462 6.02152C6.1529 6.02152 5.86354 6.14137 5.65019 6.35472L5.93304 6.63756C6.07137 6.49923 6.25899 6.42152 6.45462 6.42152V6.02152ZM5.65019 6.35472C5.43685 6.56806 5.31699 6.85742 5.31699 7.15914H5.71699C5.71699 6.96351 5.79471 6.77589 5.93304 6.63756L5.65019 6.35472ZM5.31699 7.15914C5.31699 7.46086 5.43685 7.75021 5.65019 7.96356L5.93304 7.68072C5.79471 7.54239 5.71699 7.35477 5.71699 7.15914H5.31699ZM5.65019 7.96356C5.75583 8.0692 5.88124 8.153 6.01927 8.21017L6.17234 7.84061C6.08285 7.80355 6.00153 7.74921 5.93304 7.68072L5.65019 7.96356ZM6.01927 8.21017C6.15729 8.26734 6.30522 8.29676 6.45462 8.29676V7.89676C6.35775 7.89676 6.26183 7.87768 6.17234 7.84061L6.01927 8.21017ZM6.45462 8.29676C6.60401 8.29676 6.75194 8.26734 6.88997 8.21017L6.73689 7.84061C6.6474 7.87768 6.55148 7.89676 6.45462 7.89676V8.29676ZM6.88997 8.21017C7.02799 8.153 7.1534 8.0692 7.25904 7.96356L6.97619 7.68072C6.9077 7.74921 6.82638 7.80355 6.73689 7.84061L6.88997 8.21017ZM7.25904 7.96356C7.36468 7.85792 7.44847 7.73251 7.50564 7.59449L7.13609 7.44142C7.09902 7.53091 7.04469 7.61222 6.97619 7.68072L7.25904 7.96356ZM7.50564 7.59449C7.56281 7.45647 7.59224 7.30853 7.59224 7.15914H7.19224C7.19224 7.25601 7.17316 7.35192 7.13609 7.44142L7.50564 7.59449ZM7.59224 7.15914C7.59224 7.00974 7.56281 6.86181 7.50564 6.72379L7.13609 6.87686C7.17316 6.96636 7.19224 7.06227 7.19224 7.15914H7.59224ZM7.50564 6.72379C7.44847 6.58577 7.36468 6.46036 7.25904 6.35472L6.97619 6.63756C7.04469 6.70606 7.09902 6.78737 7.13609 6.87686L7.50564 6.72379ZM5.13731 5.84254C5.48659 5.49317 5.96035 5.29686 6.45438 5.2968L6.45432 4.8968C5.85421 4.89687 5.27871 5.13534 4.85443 5.55974L5.13731 5.84254ZM6.45438 5.2968C6.9484 5.29673 7.42221 5.49292 7.77159 5.8422L8.05439 5.55933C7.63 5.13504 7.05444 4.89672 6.45432 4.8968L6.45438 5.2968ZM7.77159 5.8422C8.12096 6.19149 8.31727 6.66525 8.31733 7.15928L8.71733 7.15922C8.71726 6.55911 8.47879 5.98361 8.05439 5.55933L7.77159 5.8422ZM8.31733 7.15928C8.3174 7.6533 8.12121 8.12711 7.77193 8.47649L8.05481 8.75929C8.47909 8.3349 8.71741 7.75933 8.71733 7.15922L8.31733 7.15928ZM7.77194 8.47647C7.42257 8.82585 6.94871 9.02212 6.45462 9.02212V9.42212C7.0548 9.42212 7.63039 9.1837 8.05479 8.75931L7.77194 8.47647ZM6.45462 9.02212C5.96052 9.02212 5.48666 8.82585 5.13729 8.47647L4.85444 8.75931C5.27884 9.1837 5.85443 9.42212 6.45462 9.42212V9.02212ZM5.13729 8.47647C4.78791 8.12709 4.59163 7.65323 4.59163 7.15914H4.19163C4.19163 7.75932 4.43005 8.33492 4.85444 8.75931L5.13729 8.47647ZM4.59163 7.15914C4.59163 6.66512 4.78785 6.19199 5.13729 5.84256L4.85444 5.55972C4.43011 5.98406 4.19163 6.55888 4.19163 7.15914H4.59163ZM9.73575 9.37954C9.5098 9.38815 9.29634 9.4854 9.14156 9.65024L9.43317 9.92404C9.51595 9.83587 9.63013 9.78385 9.75099 9.77924L9.73575 9.37954ZM9.14594 9.64572C8.79301 9.99865 8.83809 10.4165 9.0132 10.5916L9.29604 10.3087C9.30764 10.3203 9.19972 10.1576 9.42879 9.92856L9.14594 9.64572ZM9.01384 10.5922C9.18945 10.7662 9.60665 10.8112 9.95904 10.4588L9.6762 10.176C9.44808 10.4041 9.28478 10.2976 9.29539 10.3081L9.01384 10.5922ZM9.95904 10.4588C10.4969 9.92099 11.3831 9.77919 11.9299 10.3261L12.2128 10.0432C11.4592 9.28959 10.3144 9.53779 9.6762 10.176L9.95904 10.4588ZM11.9299 10.3261C12.3564 10.7525 12.3664 11.3757 12.0932 11.8944L12.4471 12.0809C12.7783 11.4521 12.7958 10.6262 12.2128 10.0432L11.9299 10.3261ZM12.1053 12.101C12.1532 12.1706 12.1753 12.2549 12.1677 12.3391L12.5661 12.3751C12.5821 12.198 12.5357 12.0208 12.4349 11.8743L12.1053 12.101ZM12.1677 12.3391C12.1601 12.4233 12.1232 12.5022 12.0636 12.5621L12.3471 12.8443C12.4726 12.7182 12.55 12.5523 12.5661 12.3751L12.1677 12.3391ZM12.0636 12.5621C12.004 12.6221 11.9252 12.6592 11.8411 12.6673L11.879 13.0655C12.0561 13.0486 12.2217 12.9703 12.3471 12.8443L12.0636 12.5621ZM11.8411 12.6673C11.7569 12.6753 11.6726 12.6536 11.6027 12.6061L11.3776 12.9367C11.5246 13.0368 11.702 13.0823 11.879 13.0655L11.8411 12.6673ZM11.394 12.596C11.0981 12.7582 10.755 12.8123 10.4237 12.7489L10.3486 13.1418C10.7713 13.2226 11.2089 13.1537 11.5863 12.9468L11.394 12.596ZM10.4264 12.7495C10.3797 12.7399 10.3354 12.7212 10.2959 12.6945L10.0716 13.0257C10.1546 13.0819 10.2478 13.1211 10.3459 13.1413L10.4264 12.7495ZM10.2959 12.6945C10.2565 12.6678 10.2227 12.6336 10.1965 12.5938L9.86251 12.8139C9.91763 12.8976 9.98869 12.9695 10.0716 13.0257L10.2959 12.6945ZM10.1965 12.5938C10.1703 12.554 10.1521 12.5095 10.1431 12.4627L9.75034 12.5383C9.76927 12.6366 9.80738 12.7303 9.86251 12.8139L10.1965 12.5938ZM10.1431 12.4627C10.1341 12.4159 10.1344 12.3678 10.144 12.3211L9.75221 12.2406C9.73205 12.3388 9.73142 12.4399 9.75034 12.5383L10.1431 12.4627ZM10.144 12.3211C10.1536 12.2745 10.1723 12.2302 10.199 12.1907L9.86782 11.9664C9.81165 12.0493 9.77237 12.1425 9.75221 12.2406L10.144 12.3211ZM10.199 12.1907C10.2257 12.1513 10.2599 12.1175 10.2997 12.0913L10.0796 11.7573C9.99595 11.8124 9.92399 11.8835 9.86782 11.9664L10.199 12.1907ZM10.2997 12.0913C10.3395 12.065 10.384 12.0469 10.4308 12.0379L10.3553 11.6451C10.2569 11.664 10.1632 11.7022 10.0796 11.7573L10.2997 12.0913ZM10.4308 12.0379C10.4776 12.0289 10.5257 12.0292 10.5724 12.0388L10.6529 11.647C10.5547 11.6268 10.4536 11.6262 10.3553 11.6451L10.4308 12.0379ZM10.5717 12.0387C10.7775 12.0817 11.059 12.0118 11.2853 11.7845L11.0019 11.5023C10.8607 11.644 10.7133 11.6596 10.6535 11.6471L10.5717 12.0387ZM11.2852 11.7846C11.6369 11.4321 11.5932 11.0143 11.4178 10.839L11.1349 11.1218C11.1231 11.1099 11.2309 11.2727 11.002 11.5022L11.2852 11.7846ZM11.4171 10.8383C11.2415 10.6643 10.8243 10.6193 10.4719 10.9717L10.7548 11.2546C10.9829 11.0264 11.1462 11.133 11.1356 11.1225L11.4171 10.8383ZM10.4719 10.9717C9.93412 11.5095 9.04791 11.6513 8.50104 11.1045L8.21819 11.3873C8.97182 12.1409 10.1166 11.8927 10.7548 11.2546L10.4719 10.9717ZM8.50104 11.1045C8.07456 10.678 8.06455 10.0548 8.33781 9.53611L7.98392 9.34967C7.65268 9.97845 7.63517 10.8043 8.21819 11.3873L8.50104 11.1045ZM8.32565 9.32955C8.27773 9.25988 8.25568 9.17566 8.2633 9.09145L7.86493 9.0554C7.8489 9.23253 7.89529 9.40969 7.99608 9.55623L8.32565 9.32955ZM8.2633 9.09145C8.27092 9.00724 8.30774 8.92834 8.36738 8.86841L8.08386 8.58625C7.9584 8.71231 7.88096 8.87826 7.86493 9.0554L8.2633 9.09145ZM8.36738 8.86841C8.42703 8.80848 8.50575 8.77128 8.58992 8.76326L8.55196 8.36506C8.37491 8.38194 8.20932 8.46018 8.08386 8.58625L8.36738 8.86841ZM8.58992 8.76326C8.67409 8.75523 8.75842 8.77688 8.82832 8.82447L9.05341 8.49381C8.90639 8.39373 8.72901 8.34818 8.55196 8.36506L8.58992 8.76326ZM9.03485 8.83568C9.26241 8.71454 9.50931 8.65176 9.75247 8.65438L9.75677 8.2544C9.44192 8.25102 9.12932 8.33224 8.84688 8.4826L9.03485 8.83568ZM9.75275 8.65438C9.84889 8.65528 9.94074 8.69433 10.0081 8.76295L10.2936 8.48276C10.1519 8.33843 9.95871 8.25629 9.75648 8.2544L9.75275 8.65438ZM10.0081 8.76295C10.0754 8.83157 10.1128 8.92413 10.1119 9.02027L10.5119 9.02401C10.5137 8.82178 10.4352 8.62709 10.2936 8.48276L10.0081 8.76295ZM10.1119 9.02027C10.111 9.11642 10.0719 9.20827 10.0033 9.27561L10.2835 9.56108C10.4278 9.41942 10.51 9.22623 10.5119 9.02401L10.1119 9.02027ZM10.0033 9.27561C9.93489 9.34277 9.84165 9.3803 9.74523 9.3794L9.7415 9.77938C9.94345 9.78127 10.139 9.70294 10.2835 9.56108L10.0033 9.27561Z" fill="#52559F" mask="url(#path-1-outside-1_1829_1533)"/>
</svg>
