<svg width="15" height="17" viewBox="0 0 15 17" fill="none" xmlns="http://www.w3.org/2000/svg">
<path d="M13.75 1.30769H11.875V0.653846C11.875 0.480435 11.8092 0.314127 11.6919 0.191507C11.5747 0.0688871 11.4158 0 11.25 0C11.0842 0 10.9253 0.0688871 10.8081 0.191507C10.6908 0.314127 10.625 0.480435 10.625 0.653846V1.30769H4.375V0.653846C4.375 0.480435 4.30915 0.314127 4.19194 0.191507C4.07473 0.0688871 3.91576 0 3.75 0C3.58424 0 3.42527 0.0688871 3.30806 0.191507C3.19085 0.314127 3.125 0.480435 3.125 0.653846V1.30769H1.25C0.918479 1.30769 0.600537 1.44547 0.366116 1.69071C0.131696 1.93595 0 2.26856 0 2.61538V15.6923C0 16.0391 0.131696 16.3717 0.366116 16.617C0.600537 16.8622 0.918479 17 1.25 17H13.75C14.0815 17 14.3995 16.8622 14.6339 16.617C14.8683 16.3717 15 16.0391 15 15.6923V2.61538C15 2.26856 14.8683 1.93595 14.6339 1.69071C14.3995 1.44547 14.0815 1.30769 13.75 1.30769ZM3.125 2.61538V3.26923C3.125 3.44264 3.19085 3.60895 3.30806 3.73157C3.42527 3.85419 3.58424 3.92308 3.75 3.92308C3.91576 3.92308 4.07473 3.85419 4.19194 3.73157C4.30915 3.60895 4.375 3.44264 4.375 3.26923V2.61538H10.625V3.26923C10.625 3.44264 10.6908 3.60895 10.8081 3.73157C10.9253 3.85419 11.0842 3.92308 11.25 3.92308C11.4158 3.92308 11.5747 3.85419 11.6919 3.73157C11.8092 3.60895 11.875 3.44264 11.875 3.26923V2.61538H13.75V5.23077H1.25V2.61538H3.125ZM13.75 15.6923H1.25V6.53846H13.75V15.6923ZM6.25 8.5V13.7308C6.25 13.9042 6.18415 14.0705 6.06694 14.1931C5.94973 14.3157 5.79076 14.3846 5.625 14.3846C5.45924 14.3846 5.30027 14.3157 5.18306 14.1931C5.06585 14.0705 5 13.9042 5 13.7308V9.5576L4.65469 9.73904C4.50633 9.81664 4.33459 9.82941 4.17723 9.77454C4.01988 9.71966 3.8898 9.60164 3.81562 9.44644C3.74145 9.29124 3.72924 9.11157 3.78169 8.94695C3.83414 8.78233 3.94696 8.64625 4.09531 8.56865L5.34531 7.91481C5.44063 7.86491 5.54657 7.84134 5.65305 7.84634C5.75954 7.85135 5.86303 7.88476 5.95369 7.9434C6.04435 8.00205 6.11916 8.08397 6.17103 8.18139C6.22289 8.27881 6.25008 8.38849 6.25 8.5ZM10.8719 10.9887L9.375 13.0769H10.625C10.7908 13.0769 10.9497 13.1458 11.0669 13.2684C11.1842 13.391 11.25 13.5574 11.25 13.7308C11.25 13.9042 11.1842 14.0705 11.0669 14.1931C10.9497 14.3157 10.7908 14.3846 10.625 14.3846H8.125C8.00893 14.3846 7.89515 14.3508 7.79642 14.287C7.69768 14.2231 7.61789 14.1318 7.56598 14.0232C7.51408 13.9146 7.4921 13.793 7.50252 13.672C7.51295 13.5511 7.55536 13.4356 7.625 13.3385L9.87344 10.2025C9.92458 10.1312 9.96127 10.0498 9.98126 9.96322C10.0012 9.87662 10.0041 9.78667 9.98966 9.69888C9.97522 9.61108 9.94379 9.5273 9.89728 9.45268C9.85078 9.37805 9.79019 9.31415 9.71923 9.26491C9.64827 9.21566 9.56844 9.1821 9.48464 9.16629C9.40084 9.15048 9.31483 9.15275 9.2319 9.17297C9.14897 9.19318 9.07086 9.23091 9.00236 9.28384C8.93387 9.33677 8.87644 9.40378 8.83359 9.48077C8.79377 9.5575 8.73965 9.62511 8.67444 9.6796C8.60923 9.7341 8.53425 9.77438 8.45392 9.79807C8.37359 9.82176 8.28954 9.82838 8.20673 9.81754C8.12391 9.80669 8.04401 9.77861 7.97174 9.73494C7.89947 9.69127 7.83629 9.63289 7.78593 9.56326C7.73557 9.49363 7.69906 9.41416 7.67853 9.32953C7.65801 9.24489 7.6539 9.15682 7.66644 9.07049C7.67899 8.98417 7.70793 8.90135 7.75156 8.82692C7.95802 8.45316 8.27656 8.16108 8.65782 7.99597C9.03908 7.83085 9.46176 7.80192 9.86033 7.91366C10.2589 8.0254 10.6111 8.27156 10.8624 8.614C11.1136 8.95643 11.2499 9.37601 11.25 9.80769C11.2513 10.2341 11.1184 10.6491 10.8719 10.9887Z" fill="#52559F"/>
</svg>
