<svg width="19" height="21" viewBox="0 0 19 21" fill="none" xmlns="http://www.w3.org/2000/svg">
<path fill-rule="evenodd" clip-rule="evenodd" d="M4.56452 5.75592C4.56452 5.13137 4.69218 4.51292 4.94021 3.93591C5.18824 3.35889 5.55178 2.83461 6.01009 2.39298C6.46839 1.95135 7.01247 1.60103 7.61127 1.36202C8.21007 1.12302 8.85186 1 9.5 1C10.1481 1 10.7899 1.12302 11.3887 1.36202C11.9875 1.60103 12.5316 1.95135 12.9899 2.39298C13.4482 2.83461 13.8118 3.35889 14.0598 3.93591C14.3078 4.51292 14.4355 5.13137 14.4355 5.75592C14.4355 7.01727 13.9155 8.22696 12.9899 9.11887C12.0643 10.0108 10.809 10.5118 9.5 10.5118C8.19103 10.5118 6.93567 10.0108 6.01009 9.11887C5.0845 8.22696 4.56452 7.01727 4.56452 5.75592ZM9.5 2.67856C8.65302 2.67856 7.84073 3.00278 7.24182 3.5799C6.64291 4.15702 6.30645 4.93976 6.30645 5.75592C6.30645 6.57209 6.64291 7.35483 7.24182 7.93195C7.84073 8.50906 8.65302 8.83328 9.5 8.83328C10.347 8.83328 11.1593 8.50906 11.7582 7.93195C12.3571 7.35483 12.6935 6.57209 12.6935 5.75592C12.6935 4.93976 12.3571 4.15702 11.7582 3.5799C11.1593 3.00278 10.347 2.67856 9.5 2.67856ZM4.85484 13.869C4.16185 13.869 3.49725 14.1342 3.00724 14.6064C2.51722 15.0786 2.24194 15.719 2.24194 16.3868V17.7162C2.24194 17.7364 2.25703 17.7543 2.27794 17.7576C7.06129 18.5096 11.9399 18.5096 16.7221 17.7576C16.7322 17.756 16.7414 17.751 16.748 17.7434C16.7546 17.7358 16.7582 17.7261 16.7581 17.7162V16.3868C16.7581 15.719 16.4828 15.0786 15.9928 14.6064C15.5027 14.1342 14.8381 13.869 14.1452 13.869H13.7503C13.7192 13.8687 13.6882 13.8733 13.6586 13.8824L12.6541 14.1991C10.6046 14.8439 8.39541 14.8439 6.34594 14.1991L5.34026 13.8824C5.31135 13.8735 5.28119 13.8689 5.25084 13.869H4.85484ZM0.5 16.3868C0.5 15.2739 0.958812 14.2065 1.7755 13.4195C2.59219 12.6325 3.69986 12.1904 4.85484 12.1904H5.24968C5.46452 12.1904 5.67819 12.224 5.88142 12.2866L6.8871 12.6033C8.58495 13.1374 10.415 13.1374 12.1129 12.6033L13.1186 12.2866C13.3218 12.2229 13.5355 12.1904 13.7492 12.1904H14.1452C15.3001 12.1904 16.4078 12.6325 17.2245 13.4195C18.0412 14.2065 18.5 15.2739 18.5 16.3868V17.7162C18.5 18.56 17.8659 19.2784 17.0019 19.4138C12.0335 20.1954 6.96647 20.1954 1.99806 19.4138C1.57991 19.3482 1.19961 19.1414 0.925159 18.8304C0.650708 18.5194 0.500006 18.1245 0.5 17.7162V16.3868Z" fill="#6A7CBC" stroke="#6A7CBC" stroke-width="0.2"/>
</svg>
