<svg width="12" height="7" viewBox="0 0 12 7" fill="none" xmlns="http://www.w3.org/2000/svg">
<path d="M11.7359 0.267679C11.5667 0.0962845 11.3373 8.69082e-08 11.098 1.18278e-07C10.8588 1.49648e-07 10.6294 0.0962846 10.4602 0.267679L5.99455 4.7932L1.52889 0.267681C1.35874 0.101143 1.13086 0.00899188 0.894313 0.0110749C0.657771 0.013158 0.431499 0.109309 0.264233 0.278817C0.0969668 0.448326 0.00208864 0.677631 3.34989e-05 0.917343C-0.00202164 1.15706 0.0889103 1.388 0.253245 1.56043L5.35673 6.73232C5.52591 6.90372 5.75533 7 5.99455 7C6.23377 7 6.4632 6.90371 6.63238 6.73232L11.7359 1.56042C11.905 1.38898 12 1.15648 12 0.914052C12 0.671626 11.905 0.439126 11.7359 0.267679Z" fill="#52559F"/>
</svg>
