<svg width="29" height="28" viewBox="0 0 29 28" fill="none" xmlns="http://www.w3.org/2000/svg">
<g clip-path="url(#clip0_1210_654)">
<path fill-rule="evenodd" clip-rule="evenodd" d="M19.8138 17.9822C19.2652 15.9434 20.883 14.9323 22.6708 14.9334C27.5055 14.9375 26.9652 14.6191 26.9621 16.7378C26.958 20.2088 27.49 19.7691 24.019 19.7691C21.9014 19.7691 20.3147 19.8458 19.8138 17.9822ZM25.7508 21.0042C25.7529 26.3294 26.3243 25.7994 21.5301 25.7994C19.5628 25.7994 4.12759 25.9104 3.55099 25.6947C2.46107 25.2851 2.82403 23.0824 2.82403 21.8193V12.7971C2.82403 7.90743 1.77974 8.90298 12.5079 8.90298C15.5153 8.90298 18.5227 8.90298 21.5301 8.90298C26.456 8.90298 25.8214 8.61261 25.7477 13.7003C24.132 13.8953 22.1305 13.4359 20.6911 14.0332C17.9378 15.1739 17.692 19.2879 20.6372 20.6402C22.0663 21.2956 24.1569 20.7698 25.7508 21.0042ZM18.1877 7.69691C18.4128 7.44595 21.5851 5.60002 22.0486 5.43513L23.29 7.69484L18.1877 7.69691ZM13.4122 7.69795C13.604 7.47395 20.2483 3.55913 20.8488 3.3341L21.3943 4.36802C20.2545 5.08461 18.9583 5.81054 17.7957 6.46906C15.1181 7.98624 16.2868 7.68032 13.4122 7.69795ZM8.60966 7.67202C9.29514 7.14106 10.5873 6.48565 11.4169 6.00239C12.3637 5.45173 13.322 4.88654 14.3061 4.32758C15.2913 3.76861 16.1665 3.22935 17.1839 2.64343C18.0467 2.14669 19.4031 1.09617 20.1788 2.21928C19.8574 2.57498 15.1948 5.18728 14.7883 5.43306C13.9017 5.97024 13.0098 6.46698 12.1034 6.99898C10.8507 7.73424 10.6671 7.87736 8.60966 7.67202ZM26.9569 20.8932C28.4534 19.9184 28.1671 19.4797 28.1671 17.36C28.1671 15.3782 28.4471 14.6461 26.96 13.8144C26.9652 12.0338 27.3126 9.45884 26.2414 8.39795C25.2562 7.42106 25.0664 8.31706 24.4369 7.19291C23.5565 5.61661 21.9885 2.75232 21.1433 1.46432C20.7959 0.934391 20.1177 0.457354 19.148 0.466687C18.308 0.473947 17.6122 1.01839 17.0314 1.34921C14.4544 2.8135 11.8836 4.29024 9.35944 5.81158C8.71336 6.20047 8.10773 6.54995 7.45855 6.91913C6.52833 7.44802 6.51173 7.70728 5.2507 7.69691C3.83099 7.6855 1.74655 7.69587 1.62625 10.0966C1.56507 11.3037 1.54744 24.5477 1.69988 25.171C1.8824 25.9177 2.46418 26.5368 3.07396 26.795C3.97618 27.1777 7.6224 27.0045 8.87825 27.0045C12.9227 27.0045 16.9671 27.0045 21.0116 27.0045C22.8503 27.0045 25.2199 27.3405 26.2787 26.2568C27.294 25.2187 26.9797 22.5867 26.9569 20.8932Z" fill="#232441"/>
<path fill-rule="evenodd" clip-rule="evenodd" d="M21.8744 16.1986C20.2452 16.6228 20.9183 18.8721 22.4458 18.506C23.851 18.169 23.3968 15.8025 21.8744 16.1986Z" fill="#232441"/>
</g>
<defs>
<clipPath id="clip0_1210_654">
<rect width="28" height="28" fill="white" transform="translate(0.5)"/>
</clipPath>
</defs>
</svg>
