<svg width="73" height="73" viewBox="0 0 73 73" fill="none" xmlns="http://www.w3.org/2000/svg">
<g clip-path="url(#clip0_1210_687)">
<rect width="73" height="73" rx="36.5" fill="#FFFDFD" fill-opacity="0.29"/>
<path d="M0 23.4783C0 23.4783 7.17758 22.3378 12.5 23.4783C19.5 24.9783 21.032 26.0325 27.6897 29.2465C32.7241 31.6768 42.5134 29.2465 42.5134 29.2465C42.5134 29.2465 56.7452 23.4783 61.5 23.4783C67.3167 23.4783 73 29.2465 73 29.2465V90.9783H0V23.4783Z" fill="white"/>
<path d="M0 23.4783C0 23.4783 7.17758 22.3378 12.5 23.4783C19.5 24.9783 21.032 26.0325 27.6897 29.2465C32.7241 31.6768 42.5134 29.2465 42.5134 29.2465C42.5134 29.2465 56.7452 23.4783 61.5 23.4783C67.3167 23.4783 73 29.2465 73 29.2465V90.9783H0V23.4783Z" fill="white"/>
<g filter="url(#filter0_d_1210_687)">
<path d="M0 23.4089C0 23.4089 6.64896 25.4804 12 26.4784C19 27.7839 21 27.7839 26.5 26.4784C30.9818 25.4145 34.7874 23.4089 41.5 23.4089C48.9472 23.409 54.4149 26.7339 59.4349 27.7839C66.4487 29.2511 73 23.4089 73 23.4089V90.9784H0V23.4089Z" fill="#E7FE58"/>
<path d="M0 23.4089C0 23.4089 6.64896 25.4804 12 26.4784C19 27.7839 21 27.7839 26.5 26.4784C30.9818 25.4145 34.7874 23.4089 41.5 23.4089C48.9472 23.409 54.4149 26.7339 59.4349 27.7839C66.4487 29.2511 73 23.4089 73 23.4089V90.9784H0V23.4089Z" fill="#E7FE58"/>
</g>
<path d="M32.757 39.5557C32.757 40.5336 32.8524 41.4528 33.0431 42.3131C33.2339 43.1733 33.4814 43.9849 33.7857 44.7478C34.0901 45.5107 34.433 46.227 34.8144 46.8965C35.1959 47.5661 35.5794 48.1991 35.9649 48.7957L34.8631 49.4774C34.5831 49.0594 34.3275 48.6536 34.0962 48.26C33.8649 47.8623 33.6518 47.4748 33.457 47.0974C33.2623 46.72 33.0837 46.3507 32.9214 45.9896C32.7591 45.6244 32.611 45.2612 32.477 44.9C32.4324 44.7742 32.3898 44.6606 32.3492 44.5591C32.3127 44.4536 32.2782 44.3522 32.2457 44.2548C32.2173 44.1574 32.1869 44.058 32.1544 43.9565C32.122 43.851 32.0915 43.7333 32.0631 43.6035C31.8805 44.1838 31.6776 44.7641 31.4544 45.3444C31.2312 45.9246 31.004 46.4765 30.7727 47C30.5455 47.5194 30.3223 47.9942 30.1031 48.4244C29.884 48.8504 29.6852 49.2015 29.5066 49.4774L28.3988 48.7957C28.6057 48.398 28.8228 47.982 29.0501 47.5478C29.2773 47.1096 29.5005 46.6551 29.7197 46.1844C29.9428 45.7096 30.1539 45.2165 30.3527 44.7052C30.5556 44.1899 30.7341 43.6562 30.8883 43.1044C31.0466 42.5484 31.1724 41.9762 31.2657 41.3878C31.3631 40.7954 31.4179 40.1846 31.4301 39.5557H32.757ZM41.8078 39.5557C41.8078 40.5336 41.9032 41.4528 42.0939 42.3131C42.2846 43.1733 42.5322 43.9849 42.8365 44.7478C43.1409 45.5107 43.4838 46.227 43.8652 46.8965C44.2467 47.5661 44.6301 48.1991 45.0157 48.7957L43.9139 49.4774C43.6339 49.0594 43.3783 48.6536 43.147 48.26C42.9157 47.8623 42.7026 47.4748 42.5078 47.0974C42.313 46.72 42.1345 46.3507 41.9722 45.9896C41.8099 45.6244 41.6617 45.2612 41.5278 44.9C41.4832 44.7742 41.4406 44.6606 41.4 44.5591C41.3635 44.4536 41.329 44.3522 41.2965 44.2548C41.2681 44.1574 41.2377 44.058 41.2052 43.9565C41.1728 43.851 41.1423 43.7333 41.1139 43.6035C40.9313 44.1838 40.7284 44.7641 40.5052 45.3444C40.282 45.9246 40.0548 46.4765 39.8235 47C39.5962 47.5194 39.373 47.9942 39.1539 48.4244C38.9348 48.8504 38.7359 49.2015 38.5574 49.4774L37.4496 48.7957C37.6565 48.398 37.8736 47.982 38.1009 47.5478C38.3281 47.1096 38.5513 46.6551 38.7704 46.1844C38.9936 45.7096 39.2046 45.2165 39.4035 44.7052C39.6064 44.1899 39.7849 43.6562 39.9391 43.1044C40.0974 42.5484 40.2232 41.9762 40.3165 41.3878C40.4139 40.7954 40.4687 40.1846 40.4809 39.5557H41.8078Z" fill="#074D4F"/>
<path d="M27.4492 53.2391H45.5452V53.8478H27.4492V53.2391Z" fill="#074D4F"/>
</g>
<defs>
<filter id="filter0_d_1210_687" x="-11" y="9.40894" width="95" height="89.5693" filterUnits="userSpaceOnUse" color-interpolation-filters="sRGB">
<feFlood flood-opacity="0" result="BackgroundImageFix"/>
<feColorMatrix in="SourceAlpha" type="matrix" values="0 0 0 0 0 0 0 0 0 0 0 0 0 0 0 0 0 0 127 0" result="hardAlpha"/>
<feOffset dy="-3"/>
<feGaussianBlur stdDeviation="5.5"/>
<feComposite in2="hardAlpha" operator="out"/>
<feColorMatrix type="matrix" values="0 0 0 0 0 0 0 0 0 0 0 0 0 0 0 0 0 0 0.4 0"/>
<feBlend mode="normal" in2="BackgroundImageFix" result="effect1_dropShadow_1210_687"/>
<feBlend mode="normal" in="SourceGraphic" in2="effect1_dropShadow_1210_687" result="shape"/>
</filter>
<clipPath id="clip0_1210_687">
<rect width="73" height="73" rx="36.5" fill="white"/>
</clipPath>
</defs>
</svg>
