<svg width="16" height="16" viewBox="0 0 16 16" fill="none" xmlns="http://www.w3.org/2000/svg">
<path d="M8.51686 2.65039H7.4502V8.58742L11.304 10.419L11.7619 9.45562L8.51686 7.91336V2.65039Z" fill="#52559F"/>
<path d="M8 0C3.58173 0 0 3.58173 0 8C0 12.4183 3.58173 16 8 16C12.4183 16 16 12.4183 16 8C16 3.58173 12.4183 0 8 0ZM8 14.9333C4.17083 14.9333 1.06667 11.8292 1.06667 8C1.06667 4.17083 4.17083 1.06667 8 1.06667C11.8292 1.06667 14.9333 4.17083 14.9333 8C14.9333 11.8292 11.8292 14.9333 8 14.9333Z" fill="#52559F"/>
</svg>
