<svg width="19" height="17" viewBox="0 0 19 17" fill="none" xmlns="http://www.w3.org/2000/svg">
<path d="M18.0728 2.16364H14.6728V0H13.4364V2.16364H6.01823V0H4.78186V2.16364H1.38186C1.13602 2.16392 0.900333 2.26171 0.726498 2.43554C0.552663 2.60938 0.454876 2.84507 0.45459 3.09091V16.0727C0.454876 16.3186 0.552663 16.5543 0.726498 16.7281C0.900333 16.9019 1.13602 16.9997 1.38186 17H18.0728C18.3186 16.9997 18.5543 16.9019 18.7281 16.7281C18.902 16.5543 18.9998 16.3186 19 16.0727V3.09091C18.9998 2.84507 18.902 2.60938 18.7281 2.43554C18.5543 2.26171 18.3186 2.16392 18.0728 2.16364ZM17.7637 15.7636H1.69095V3.4H4.78186V4.94545H6.01823V3.4H13.4364V4.94545H14.6728V3.4H17.7637V15.7636Z" fill="#52559F"/>
<path d="M5.40018 7.10938H4.16382V8.34574H5.40018V7.10938Z" fill="#52559F"/>
<path d="M8.80008 7.10938H7.56372V8.34574H8.80008V7.10938Z" fill="#52559F"/>
<path d="M11.8909 7.10938H10.6545V8.34574H11.8909V7.10938Z" fill="#52559F"/>
<path d="M15.2911 7.10938H14.0547V8.34574H15.2911V7.10938Z" fill="#52559F"/>
<path d="M5.40018 9.89062H4.16382V11.127H5.40018V9.89062Z" fill="#52559F"/>
<path d="M8.80008 9.89062H7.56372V11.127H8.80008V9.89062Z" fill="#52559F"/>
<path d="M11.8909 9.89062H10.6545V11.127H11.8909V9.89062Z" fill="#52559F"/>
<path d="M15.2911 9.89062H14.0547V11.127H15.2911V9.89062Z" fill="#52559F"/>
<path d="M5.40018 12.6729H4.16382V13.9092H5.40018V12.6729Z" fill="#52559F"/>
<path d="M8.80008 12.6729H7.56372V13.9092H8.80008V12.6729Z" fill="#52559F"/>
<path d="M11.8909 12.6729H10.6545V13.9092H11.8909V12.6729Z" fill="#52559F"/>
<path d="M15.2911 12.6729H14.0547V13.9092H15.2911V12.6729Z" fill="#52559F"/>
</svg>
