<svg width="390" height="314" viewBox="0 0 390 314" fill="none" xmlns="http://www.w3.org/2000/svg">
<g opacity="0.2" clip-path="url(#clip0_1431_754)">
<path d="M707.022 -1H-317.022V411.139H707.022V-1Z" fill="#2E3056"/>
<path d="M707.022 -1H-317.022V411.139H707.022V-1Z" fill="url(#paint0_radial_1431_754)"/>
<path d="M1140.58 526.538L195 -645.311L-750.577 526.538H1140.58Z" stroke="#474983" stroke-opacity="0.43" stroke-width="1.7" stroke-miterlimit="10"/>
<path d="M195 -629.695L-732.272 519.44H1122.27L195 -629.695Z" stroke="#474983" stroke-opacity="0.43" stroke-width="1.7" stroke-miterlimit="10"/>
<path d="M194.999 -614.08L-713.968 512.388H1103.97L194.999 -614.08Z" stroke="#474983" stroke-opacity="0.43" stroke-width="1.7" stroke-miterlimit="10"/>
<path d="M195 -598.464L-695.663 505.29H1085.66L195 -598.464Z" stroke="#474983" stroke-opacity="0.43" stroke-width="1.7" stroke-miterlimit="10"/>
<path d="M195 -582.849L-677.358 498.238H1067.36L195 -582.849Z" stroke="#474983" stroke-opacity="0.43" stroke-width="1.7" stroke-miterlimit="10"/>
<path d="M195 -567.233L-659.053 491.14H1049.05L195 -567.233Z" stroke="#474983" stroke-opacity="0.43" stroke-width="1.7" stroke-miterlimit="10"/>
<path d="M195 -551.618L-640.749 484.088H1030.75L195 -551.618Z" stroke="#474983" stroke-opacity="0.43" stroke-width="1.7" stroke-miterlimit="10"/>
<path d="M195 -536.002L-622.443 476.99H1012.44L195 -536.002Z" stroke="#474983" stroke-opacity="0.43" stroke-width="1.7" stroke-miterlimit="10"/>
<path d="M195 -520.387L-604.139 469.938H994.138L195 -520.387Z" stroke="#474983" stroke-opacity="0.43" stroke-width="1.7" stroke-miterlimit="10"/>
<path d="M195 -504.771L-585.834 462.84H975.833L195 -504.771Z" stroke="#474983" stroke-opacity="0.43" stroke-width="1.7" stroke-miterlimit="10"/>
<path d="M195 -489.156L-567.529 455.787H957.529L195 -489.156Z" stroke="#474983" stroke-opacity="0.43" stroke-width="1.7" stroke-miterlimit="10"/>
<path d="M195 -473.54L-549.161 448.689H939.16L195 -473.54Z" stroke="#474983" stroke-opacity="0.43" stroke-width="1.7" stroke-miterlimit="10"/>
<path d="M195 -457.925L-530.855 441.637H920.855L195 -457.925Z" stroke="#474983" stroke-opacity="0.43" stroke-width="1.7" stroke-miterlimit="10"/>
<path d="M195 -442.309L-512.551 434.539H902.55L195 -442.309Z" stroke="#474983" stroke-opacity="0.43" stroke-width="1.7" stroke-miterlimit="10"/>
<path d="M195 -426.694L-494.246 427.487H884.245L195 -426.694Z" stroke="#474983" stroke-opacity="0.43" stroke-width="1.7" stroke-miterlimit="10"/>
<path d="M195 -411.078L-475.941 420.389H865.941L195 -411.078Z" stroke="#474983" stroke-opacity="0.43" stroke-width="1.7" stroke-miterlimit="10"/>
<path d="M194.999 -395.463L-457.637 413.291H847.636L194.999 -395.463Z" stroke="#474983" stroke-opacity="0.43" stroke-width="1.7" stroke-miterlimit="10"/>
<path d="M195 -379.847L-439.332 406.239H829.331L195 -379.847Z" stroke="#474983" stroke-opacity="0.43" stroke-width="1.7" stroke-miterlimit="10"/>
<path d="M195 -364.232L-421.027 399.141H811.026L195 -364.232Z" stroke="#474983" stroke-opacity="0.43" stroke-width="1.7" stroke-miterlimit="10"/>
<path d="M195 -348.616L-402.722 392.089H792.722L195 -348.616Z" stroke="#474983" stroke-opacity="0.43" stroke-width="1.7" stroke-miterlimit="10"/>
<path d="M195 -333.001L-384.417 384.991H774.417L195 -333.001Z" stroke="#474983" stroke-opacity="0.43" stroke-width="1.7" stroke-miterlimit="10"/>
<path d="M195 -317.385L-366.112 377.939H756.112L195 -317.385Z" stroke="#474983" stroke-opacity="0.43" stroke-width="1.7" stroke-miterlimit="10"/>
<path d="M195 -301.77L-347.808 370.841H737.807L195 -301.77Z" stroke="#474983" stroke-opacity="0.43" stroke-width="1.7" stroke-miterlimit="10"/>
<path d="M195 -286.155L-329.439 363.789H719.438L195 -286.155Z" stroke="#474983" stroke-opacity="0.43" stroke-width="1.7" stroke-miterlimit="10"/>
<path d="M195 -270.539L-311.134 356.691H701.134L195 -270.539Z" stroke="#474983" stroke-opacity="0.43" stroke-width="1.7" stroke-miterlimit="10"/>
<path d="M195 -254.924L-292.829 349.639H682.829L195 -254.924Z" stroke="#474983" stroke-opacity="0.43" stroke-width="1.7" stroke-miterlimit="10"/>
<path d="M195 -239.354L-274.524 342.541H664.524L195 -239.354Z" stroke="#474983" stroke-opacity="0.43" stroke-width="1.7" stroke-miterlimit="10"/>
<path d="M195 -223.738L-256.22 335.489H646.219L195 -223.738Z" stroke="#474983" stroke-opacity="0.43" stroke-width="1.7" stroke-miterlimit="10"/>
<path d="M195 -208.123L-237.915 328.391H627.914L195 -208.123Z" stroke="#474983" stroke-opacity="0.43" stroke-width="1.7" stroke-miterlimit="10"/>
<path d="M195 -192.507L-219.61 321.339H609.61L195 -192.507Z" stroke="#474983" stroke-opacity="0.43" stroke-width="1.7" stroke-miterlimit="10"/>
<path d="M195 -176.892L-201.306 314.241H591.305L195 -176.892Z" stroke="#474983" stroke-opacity="0.43" stroke-width="1.7" stroke-miterlimit="10"/>
<path d="M195 -161.276L-183 307.188H573L195 -161.276Z" stroke="#474983" stroke-opacity="0.43" stroke-width="1.7" stroke-miterlimit="10"/>
<path d="M195 -145.661L-164.696 300.09H554.695L195 -145.661Z" stroke="#474983" stroke-opacity="0.43" stroke-width="1.7" stroke-miterlimit="10"/>
<path d="M195 -130.045L-146.391 292.992H536.39L195 -130.045Z" stroke="#474983" stroke-opacity="0.43" stroke-width="1.7" stroke-miterlimit="10"/>
<path d="M195 -114.43L-128.086 285.94H518.086L195 -114.43Z" stroke="#474983" stroke-opacity="0.43" stroke-width="1.7" stroke-miterlimit="10"/>
<path d="M195 -98.8145L-109.717 278.842H499.717L195 -98.8145Z" stroke="#474983" stroke-opacity="0.43" stroke-width="1.7" stroke-miterlimit="10"/>
<path d="M195 -83.199L-91.4126 271.79H481.412L195 -83.199Z" stroke="#474983" stroke-opacity="0.43" stroke-width="1.7" stroke-miterlimit="10"/>
<path d="M195 -67.5835L-73.1079 264.692H463.107L195 -67.5835Z" stroke="#474983" stroke-opacity="0.43" stroke-width="1.7" stroke-miterlimit="10"/>
<path d="M195 -51.968L-54.8027 257.64H444.803L195 -51.968Z" stroke="#474983" stroke-opacity="0.43" stroke-width="1.7" stroke-miterlimit="10"/>
<path d="M195 -36.3525L-36.498 250.542H426.498L195 -36.3525Z" stroke="#474983" stroke-opacity="0.43" stroke-width="1.7" stroke-miterlimit="10"/>
<path d="M195 -20.7368L-18.1934 243.49H408.193L195 -20.7368Z" stroke="#474983" stroke-opacity="0.43" stroke-width="1.7" stroke-miterlimit="10"/>
<path d="M195 -5.12158L0.111328 236.392H389.888L195 -5.12158Z" stroke="#474983" stroke-opacity="0.43" stroke-width="1.7" stroke-miterlimit="10"/>
<path d="M195 10.4941L18.416 229.34H371.583L195 10.4941Z" stroke="#474983" stroke-opacity="0.43" stroke-width="1.7" stroke-miterlimit="10"/>
<path d="M195 26.1094L36.7207 222.242H353.278L195 26.1094Z" stroke="#474983" stroke-opacity="0.43" stroke-width="1.7" stroke-miterlimit="10"/>
<path d="M195 41.7251L55.0259 215.19H334.974L195 41.7251Z" stroke="#474983" stroke-opacity="0.43" stroke-width="1.7" stroke-miterlimit="10"/>
<path d="M195 57.3406L73.3306 208.092H316.669L195 57.3406Z" stroke="#474983" stroke-opacity="0.43" stroke-width="1.7" stroke-miterlimit="10"/>
<path d="M195 72.9561L91.6353 201.04H298.364L195 72.9561Z" stroke="#474983" stroke-opacity="0.43" stroke-width="1.7" stroke-miterlimit="10"/>
<path d="M195 88.5715L110.004 193.942H279.995L195 88.5715Z" stroke="#474983" stroke-opacity="0.43" stroke-width="1.7" stroke-miterlimit="10"/>
<path d="M194.999 104.187L128.309 186.844H261.69L194.999 104.187Z" stroke="#474983" stroke-opacity="0.43" stroke-width="1.7" stroke-miterlimit="10"/>
<path d="M195 119.802L146.614 179.792H243.386L195 119.802Z" stroke="#474983" stroke-opacity="0.43" stroke-width="1.7" stroke-miterlimit="10"/>
<path d="M195 135.418L164.918 172.694H225.081L195 135.418Z" stroke="#474983" stroke-opacity="0.43" stroke-width="1.7" stroke-miterlimit="10"/>
<path d="M195 151.033L183.223 165.641H206.776L195 151.033Z" stroke="#474983" stroke-opacity="0.43" stroke-width="1.7" stroke-miterlimit="10"/>
<path d="M707.022 -1H-317.022V411.139H707.022V-1Z" fill="url(#paint1_radial_1431_754)" fill-opacity="0.43"/>
</g>
<defs>
<radialGradient id="paint0_radial_1431_754" cx="0" cy="0" r="1" gradientUnits="userSpaceOnUse" gradientTransform="translate(195 168.893) rotate(2.06707) scale(323.745 231.923)">
<stop stop-color="#2E3056"/>
<stop offset="1" stop-color="#1E1F38"/>
</radialGradient>
<radialGradient id="paint1_radial_1431_754" cx="0" cy="0" r="1" gradientUnits="userSpaceOnUse" gradientTransform="translate(195 168.893) scale(31.9374 22.8508)">
<stop stop-color="#303158"/>
<stop offset="1" stop-color="#303158" stop-opacity="0"/>
</radialGradient>
<clipPath id="clip0_1431_754">
<rect width="390" height="315" fill="white" transform="translate(0 -1)"/>
</clipPath>
</defs>
</svg>
