<svg width="19" height="18" viewBox="0 0 19 18" fill="none" xmlns="http://www.w3.org/2000/svg">
<path d="M18.0728 2.66364H14.6728V0.5H13.4364V2.66364H6.01823V0.5H4.78186V2.66364H1.38186C1.13602 2.66392 0.900333 2.76171 0.726498 2.93554C0.552663 3.10938 0.454876 3.34507 0.45459 3.59091V16.5727C0.454876 16.8186 0.552663 17.0543 0.726498 17.2281C0.900333 17.4019 1.13602 17.4997 1.38186 17.5H18.0728C18.3186 17.4997 18.5543 17.4019 18.7281 17.2281C18.902 17.0543 18.9998 16.8186 19 16.5727V3.59091C18.9998 3.34507 18.902 3.10938 18.7281 2.93554C18.5543 2.76171 18.3186 2.66392 18.0728 2.66364ZM17.7637 16.2636H1.69095V3.9H4.78186V5.44545H6.01823V3.9H13.4364V5.44545H14.6728V3.9H17.7637V16.2636Z" fill="#52559F"/>
<path d="M5.40018 7.60938H4.16382V8.84574H5.40018V7.60938Z" fill="#52559F"/>
<path d="M8.80008 7.60938H7.56372V8.84574H8.80008V7.60938Z" fill="#52559F"/>
<path d="M11.8909 7.60938H10.6545V8.84574H11.8909V7.60938Z" fill="#52559F"/>
<path d="M15.2911 7.60938H14.0547V8.84574H15.2911V7.60938Z" fill="#52559F"/>
<path d="M5.40018 10.3906H4.16382V11.627H5.40018V10.3906Z" fill="#52559F"/>
<path d="M8.80008 10.3906H7.56372V11.627H8.80008V10.3906Z" fill="#52559F"/>
<path d="M11.8909 10.3906H10.6545V11.627H11.8909V10.3906Z" fill="#52559F"/>
<path d="M15.2911 10.3906H14.0547V11.627H15.2911V10.3906Z" fill="#52559F"/>
<path d="M5.40018 13.1729H4.16382V14.4092H5.40018V13.1729Z" fill="#52559F"/>
<path d="M8.80008 13.1729H7.56372V14.4092H8.80008V13.1729Z" fill="#52559F"/>
<path d="M11.8909 13.1729H10.6545V14.4092H11.8909V13.1729Z" fill="#52559F"/>
<path d="M15.2911 13.1729H14.0547V14.4092H15.2911V13.1729Z" fill="#52559F"/>
</svg>
