<svg width="16" height="21" viewBox="0 0 16 21" fill="none" xmlns="http://www.w3.org/2000/svg">
<path d="M15.5078 7.2567C15.4627 7.15359 15.3997 7.05934 15.3216 6.97835L9.62155 1.27835C9.54057 1.20024 9.44631 1.13719 9.3432 1.09215C9.3147 1.07885 9.2843 1.07125 9.2539 1.0608C9.17441 1.03375 9.09166 1.01746 9.00785 1.01235C8.9879 1.01045 8.96985 1 8.9499 1H2.2999C1.25205 1 0.399902 1.85215 0.399902 2.9V18.1C0.399902 19.1479 1.25205 20 2.2999 20H13.6999C14.7478 20 15.5999 19.1479 15.5999 18.1V7.65C15.5999 7.63005 15.5895 7.612 15.5876 7.5911C15.5829 7.50723 15.5666 7.42442 15.5391 7.34505C15.5296 7.31465 15.5211 7.2852 15.5078 7.2567ZM14.4599 7.46H9.1399V2.14L14.4599 7.46ZM1.5399 18.86V2.14H7.9999V7.65C7.9999 7.90196 8.09999 8.14359 8.27815 8.32175C8.45631 8.49991 8.69795 8.6 8.9499 8.6H14.4599L14.4618 18.86H8.00085H1.5399Z" fill="#6A7CBC" stroke="#6A7CBC" stroke-width="0.5"/>
<path d="M4.19995 11.26H11.8V12.4H4.19995V11.26ZM4.19995 15.06H11.8V16.2H4.19995V15.06ZM4.19995 6.69995H5.33995V7.83995H4.19995V6.69995Z" fill="#6A7CBC" stroke="#6A7CBC" stroke-width="0.5"/>
</svg>
