<svg width="89" height="89" viewBox="0 0 89 89" fill="none" xmlns="http://www.w3.org/2000/svg">
<g filter="url(#filter0_d_1502_2319)">
<circle cx="44.5" cy="40.5" r="28" stroke="white" stroke-opacity="0.35" shape-rendering="crispEdges"/>
</g>
<path d="M45.6877 27.8613C45.5345 27.7008 45.3504 27.5731 45.1464 27.4858C44.9424 27.3985 44.7229 27.3535 44.501 27.3535C44.2791 27.3535 44.0596 27.3985 43.8556 27.4858C43.6516 27.5731 43.4675 27.7008 43.3143 27.8613L31.8299 39.8925C31.6081 40.1248 31.4593 40.4171 31.402 40.7332C31.3448 41.0492 31.3815 41.3752 31.5078 41.6705C31.634 41.9659 31.8442 42.2177 32.1122 42.3947C32.3802 42.5717 32.6943 42.6661 33.0155 42.6663H35.7499V51.4163C35.7499 51.9965 35.9804 52.5529 36.3906 52.9631C36.8008 53.3733 37.3572 53.6038 37.9374 53.6038H40.1249C40.7051 53.6038 41.2615 53.3733 41.6717 52.9631C42.0819 52.5529 42.3124 51.9965 42.3124 51.4163V49.2288C42.3124 48.6486 42.5429 48.0922 42.9531 47.682C43.3633 47.2718 43.9197 47.0413 44.4999 47.0413C45.0801 47.0413 45.6365 47.2718 46.0467 47.682C46.4569 48.0922 46.6874 48.6486 46.6874 49.2288V51.4163C46.6874 51.9965 46.9179 52.5529 47.3281 52.9631C47.7383 53.3733 48.2947 53.6038 48.8749 53.6038H51.0624C51.6426 53.6038 52.199 53.3733 52.6092 52.9631C53.0194 52.5529 53.2499 51.9965 53.2499 51.4163V42.6663H55.9843C56.3057 42.6666 56.6201 42.5724 56.8884 42.3956C57.1568 42.2187 57.3673 41.967 57.4938 41.6715C57.6203 41.3761 57.6573 41.05 57.6001 40.7337C57.5429 40.4175 57.3941 40.125 57.1721 39.8925L45.6877 27.8613Z" fill="#232441"/>
<defs>
<filter id="filter0_d_1502_2319" x="0" y="0" width="89" height="89" filterUnits="userSpaceOnUse" color-interpolation-filters="sRGB">
<feFlood flood-opacity="0" result="BackgroundImageFix"/>
<feColorMatrix in="SourceAlpha" type="matrix" values="0 0 0 0 0 0 0 0 0 0 0 0 0 0 0 0 0 0 127 0" result="hardAlpha"/>
<feOffset dy="4"/>
<feGaussianBlur stdDeviation="8"/>
<feComposite in2="hardAlpha" operator="out"/>
<feColorMatrix type="matrix" values="0 0 0 0 0 0 0 0 0 0 0 0 0 0 0 0 0 0 0.6 0"/>
<feBlend mode="normal" in2="BackgroundImageFix" result="effect1_dropShadow_1502_2319"/>
<feBlend mode="normal" in="SourceGraphic" in2="effect1_dropShadow_1502_2319" result="shape"/>
</filter>
</defs>
</svg>
