<svg width="27" height="28" viewBox="0 0 27 28" fill="none" xmlns="http://www.w3.org/2000/svg">
<path fill-rule="evenodd" clip-rule="evenodd" d="M18.3138 17.982C17.7652 15.9432 19.383 14.9321 21.1708 14.9331C26.0055 14.9373 25.4652 14.6189 25.4621 16.7376C25.458 20.2085 25.99 19.7688 22.519 19.7688C20.4014 19.7688 18.8147 19.8456 18.3138 17.982ZM24.2508 21.0039C24.2529 26.3291 24.8243 25.7992 20.0301 25.7992C18.0628 25.7992 2.62759 25.9102 2.05099 25.6944C0.961068 25.2848 1.32403 23.0821 1.32403 21.819V12.7968C1.32403 7.90718 0.279735 8.90274 11.0079 8.90274C14.0153 8.90274 17.0227 8.90274 20.0301 8.90274C24.956 8.90274 24.3214 8.61237 24.2477 13.7001C22.632 13.895 20.6305 13.4356 19.1911 14.033C16.4378 15.1737 16.192 19.2876 19.1372 20.6399C20.5663 21.2953 22.6569 20.7696 24.2508 21.0039ZM16.6877 7.69667C16.9128 7.4457 20.0851 5.59978 20.5486 5.43489L21.79 7.69459L16.6877 7.69667ZM11.9122 7.6977C12.104 7.4737 18.7483 3.55889 19.3488 3.33385L19.8943 4.36778C18.7545 5.08437 17.4583 5.8103 16.2957 6.46881C13.6181 7.986 14.7868 7.68007 11.9122 7.6977ZM7.10966 7.67178C7.79514 7.14081 9.08729 6.48541 9.91692 6.00215C10.8637 5.45148 11.822 4.8863 12.8061 4.32733C13.7913 3.76837 14.6665 3.22911 15.6839 2.64318C16.5467 2.14644 17.9031 1.09592 18.6788 2.21904C18.3574 2.57474 13.6948 5.18704 13.2883 5.43281C12.4017 5.97 11.5098 6.46674 10.6034 6.99874C9.3507 7.734 9.16714 7.87711 7.10966 7.67178ZM25.4569 20.893C26.9534 19.9181 26.6671 19.4795 26.6671 17.3598C26.6671 15.378 26.9471 14.6459 25.46 13.8141C25.4652 12.0336 25.8126 9.45859 24.7414 8.3977C23.7562 7.42081 23.5664 8.31681 22.9369 7.19267C22.0565 5.61637 20.4885 2.75207 19.6433 1.46407C19.2959 0.934147 18.6177 0.45711 17.648 0.466443C16.808 0.473703 16.1122 1.01815 15.5314 1.34896C12.9544 2.81326 10.3836 4.29 7.85944 5.81133C7.21336 6.20022 6.60773 6.5497 5.95855 6.91889C5.02833 7.44778 5.01173 7.70704 3.7507 7.69667C2.33099 7.68526 0.24655 7.69563 0.126253 10.0964C0.0650682 11.3035 0.0474385 24.5475 0.199883 25.1707C0.382401 25.9174 0.964179 26.5365 1.57396 26.7947C2.47618 27.1774 6.1224 27.0042 7.37825 27.0042C11.4227 27.0042 15.4671 27.0042 19.5116 27.0042C21.3503 27.0042 23.7199 27.3402 24.7787 26.2565C25.794 25.2184 25.4797 22.5864 25.4569 20.893Z" fill="#E7FE58"/>
<path fill-rule="evenodd" clip-rule="evenodd" d="M20.3744 16.1984C18.7452 16.6225 19.4183 18.8718 20.9458 18.5058C22.351 18.1687 21.8968 15.8022 20.3744 16.1984Z" fill="#E7FE58"/>
</svg>
