<svg width="18" height="19" viewBox="0 0 18 19" fill="none" xmlns="http://www.w3.org/2000/svg">
<path d="M16.4798 15.2658C15.5158 13.5739 14.0104 12.2555 12.2062 11.523C13.1034 10.8501 13.7662 9.91192 14.1006 8.84138C14.435 7.77084 14.4241 6.62221 14.0695 5.55821C13.7148 4.4942 13.0343 3.56876 12.1245 2.91297C11.2146 2.25718 10.1215 1.9043 8.99993 1.9043C7.87837 1.9043 6.78524 2.25718 5.87538 2.91297C4.96552 3.56876 4.28507 4.4942 3.9304 5.55821C3.57573 6.62221 3.56483 7.77084 3.89924 8.84138C4.23366 9.91192 4.89643 10.8501 5.79367 11.523C3.9894 12.2555 2.4841 13.5739 1.52008 15.2658C1.46035 15.3618 1.42053 15.4689 1.40301 15.5807C1.38549 15.6924 1.39061 15.8065 1.41807 15.9162C1.44554 16.026 1.49478 16.1291 1.56288 16.2194C1.63098 16.3097 1.71654 16.3854 1.81447 16.442C1.91241 16.4985 2.02073 16.5349 2.13298 16.5487C2.24523 16.5626 2.35913 16.5538 2.46791 16.5228C2.57668 16.4918 2.67811 16.4392 2.76616 16.3682C2.85422 16.2972 2.9271 16.2093 2.98047 16.1095C4.25453 13.9073 6.50453 12.5939 8.99993 12.5939C11.4953 12.5939 13.7453 13.908 15.0194 16.1095C15.1351 16.2955 15.3185 16.4293 15.531 16.4824C15.7435 16.5356 15.9683 16.5041 16.158 16.3945C16.3476 16.2849 16.4872 16.1059 16.5473 15.8953C16.6073 15.6846 16.5831 15.4589 16.4798 15.2658ZM5.34367 7.25016C5.34367 6.52702 5.55811 5.82012 5.95986 5.21885C6.36162 4.61759 6.93265 4.14895 7.60074 3.87222C8.26883 3.59549 9.00398 3.52308 9.71322 3.66416C10.4225 3.80524 11.0739 4.15346 11.5853 4.6648C12.0966 5.17613 12.4448 5.82761 12.5859 6.53686C12.727 7.2461 12.6546 7.98125 12.3779 8.64934C12.1011 9.31744 11.6325 9.88846 11.0312 10.2902C10.43 10.692 9.72306 10.9064 8.99993 10.9064C8.03057 10.9053 7.10124 10.5197 6.4158 9.83428C5.73036 9.14884 5.34479 8.21951 5.34367 7.25016Z" fill="#52559F"/>
</svg>
