<svg width="20" height="21" viewBox="0 0 20 21" fill="none" xmlns="http://www.w3.org/2000/svg">
<path d="M10.8137 1.84819C10.7087 1.73814 10.5824 1.65055 10.4425 1.5907C10.3027 1.53086 10.1521 1.5 10 1.5C9.84787 1.5 9.69732 1.53086 9.55745 1.5907C9.41759 1.65055 9.29131 1.73814 9.18627 1.84819L1.31142 10.0981C1.15931 10.2574 1.05729 10.4578 1.01802 10.6745C0.978757 10.8913 1.00397 11.1147 1.09054 11.3173C1.17711 11.5198 1.32122 11.6924 1.505 11.8138C1.68879 11.9352 1.90416 12 2.12441 12.0001H3.99937V18C3.99937 18.3978 4.1574 18.7794 4.4387 19.0607C4.72 19.342 5.10152 19.5 5.49934 19.5H6.99931C7.39713 19.5 7.77865 19.342 8.05995 19.0607C8.34125 18.7794 8.49928 18.3978 8.49928 18V16.5C8.49928 16.1022 8.65731 15.7207 8.93861 15.4394C9.21991 15.1581 9.60143 15 9.99925 15C10.3971 15 10.7786 15.1581 11.0599 15.4394C11.3412 15.7207 11.4992 16.1022 11.4992 16.5V18C11.4992 18.3978 11.6573 18.7794 11.9386 19.0607C12.2198 19.342 12.6014 19.5 12.9992 19.5H14.4992C14.897 19.5 15.2785 19.342 15.5598 19.0607C15.8411 18.7794 15.9991 18.3978 15.9991 18V12.0001H17.8741C18.0945 12.0003 18.31 11.9357 18.4941 11.8144C18.6781 11.6932 18.8224 11.5205 18.9092 11.318C18.9959 11.1154 19.0213 10.8918 18.982 10.6749C18.9428 10.458 18.8408 10.2575 18.6886 10.0981L10.8137 1.84819Z" stroke="#6A7CBC" stroke-width="1.8"/>
</svg>
