<svg width="20" height="18" viewBox="0 0 20 18" fill="none" xmlns="http://www.w3.org/2000/svg">
<path d="M0 5.18633V13.6217C0 14.5235 0.351189 15.3883 0.976311 16.0259C1.60143 16.6635 2.44928 17.0217 3.33333 17.0217H16.6667C17.5507 17.0217 18.3986 16.6635 19.0237 16.0259C19.6488 15.3883 20 14.5235 20 13.6217V3.42173C20 2.51999 19.6488 1.65519 19.0237 1.01757C18.3986 0.379942 17.5507 0.0217285 16.6667 0.0217285H3.33333C2.44928 0.0217285 1.60143 0.379942 0.976311 1.01757C0.351189 1.65519 0 2.51999 0 3.42173V5.18633ZM3.33333 1.72173H16.6667C17.1087 1.72173 17.5326 1.90084 17.8452 2.21965C18.1577 2.53846 18.3333 2.97086 18.3333 3.42173V4.67973L10 9.25613L1.66667 4.67973V3.42173C1.66667 2.97086 1.84226 2.53846 2.15482 2.21965C2.46738 1.90084 2.89131 1.72173 3.33333 1.72173ZM1.66667 6.61093L9.605 10.9697C9.7264 11.0364 9.86212 11.0713 10 11.0713C10.1379 11.0713 10.2736 11.0364 10.395 10.9697L18.3333 6.61093V13.6217C18.3333 14.0726 18.1577 14.505 17.8452 14.8238C17.5326 15.1426 17.1087 15.3217 16.6667 15.3217H3.33333C2.89131 15.3217 2.46738 15.1426 2.15482 14.8238C1.84226 14.505 1.66667 14.0726 1.66667 13.6217V6.61093Z" fill="#6A7CBC"/>
</svg>
