<svg width="21" height="21" viewBox="0 0 21 21" fill="none" xmlns="http://www.w3.org/2000/svg">
<path d="M19.75 7.43873V4.35473C19.75 3.53707 19.4252 2.75289 18.847 2.17472C18.2688 1.59654 17.4847 1.27173 16.667 1.27173H13.583M13.583 19.7717H16.667C17.4847 19.7717 18.2688 19.4469 18.847 18.8687C19.4252 18.2906 19.75 17.5064 19.75 16.6887V13.6047M1.25 13.6047V16.6887C1.25 17.5064 1.57482 18.2906 2.15299 18.8687C2.73116 19.4469 3.51534 19.7717 4.333 19.7717H7.417M7.417 1.27173H4.333C3.51534 1.27173 2.73116 1.59654 2.15299 2.17472C1.57482 2.75289 1.25 3.53707 1.25 4.35473V7.43873M7.933 4.35473H5.233C4.9943 4.35473 4.76539 4.44955 4.5966 4.61833C4.42782 4.78712 4.333 5.01603 4.333 5.25473V7.95473C4.333 8.19342 4.42782 8.42234 4.5966 8.59112C4.76539 8.75991 4.9943 8.85473 5.233 8.85473H7.933C8.17169 8.85473 8.40061 8.75991 8.5694 8.59112C8.73818 8.42234 8.833 8.19342 8.833 7.95473V5.25473C8.833 5.01603 8.73818 4.78712 8.5694 4.61833C8.40061 4.44955 8.17169 4.35473 7.933 4.35473ZM7.933 12.1697H5.233C4.9943 12.1697 4.76539 12.2645 4.5966 12.4333C4.42782 12.6021 4.333 12.831 4.333 13.0697V15.7697C4.333 16.0084 4.42782 16.2373 4.5966 16.4061C4.76539 16.5749 4.9943 16.6697 5.233 16.6697H7.933C8.17169 16.6697 8.40061 16.5749 8.5694 16.4061C8.73818 16.2373 8.833 16.0084 8.833 15.7697V13.0697C8.833 12.831 8.73818 12.6021 8.5694 12.4333C8.40061 12.2645 8.17169 12.1697 7.933 12.1697ZM15.767 4.35473H13.067C12.8283 4.35473 12.5994 4.44955 12.4306 4.61833C12.2618 4.78712 12.167 5.01603 12.167 5.25473V7.95473C12.167 8.19342 12.2618 8.42234 12.4306 8.59112C12.5994 8.75991 12.8283 8.85473 13.067 8.85473H15.767C16.0057 8.85473 16.2346 8.75991 16.4034 8.59112C16.5722 8.42234 16.667 8.19342 16.667 7.95473V5.25473C16.667 5.01603 16.5722 4.78712 16.4034 4.61833C16.2346 4.44955 16.0057 4.35473 15.767 4.35473ZM15.767 12.1887H13.067C12.8283 12.1887 12.5994 12.2835 12.4306 12.4523C12.2618 12.6211 12.167 12.85 12.167 13.0887V15.7887C12.167 16.0274 12.2618 16.2563 12.4306 16.4251C12.5994 16.5939 12.8283 16.6887 13.067 16.6887H15.767C16.0057 16.6887 16.2346 16.5939 16.4034 16.4251C16.5722 16.2563 16.667 16.0274 16.667 15.7887V13.0887C16.667 12.85 16.5722 12.6211 16.4034 12.4523C16.2346 12.2835 16.0057 12.1887 15.767 12.1887Z" stroke="#6A7CBC" stroke-width="1.5" stroke-linecap="round" stroke-linejoin="round"/>
</svg>
