<svg width="17" height="17" viewBox="0 0 17 17" fill="none" xmlns="http://www.w3.org/2000/svg">
<g clip-path="url(#clip0_2168_827)">
<rect width="17" height="17" rx="8.5" fill="#1E3756"/>
<path d="M9.84478 12.5309C9.58652 12.5309 9.34739 12.4719 9.12739 12.3539C8.91058 12.2391 8.72884 12.0877 8.58217 11.8996C8.41638 12.0877 8.22188 12.2391 7.9987 12.3539C7.77551 12.4687 7.53319 12.5261 7.27174 12.5261C7.01348 12.5261 6.77913 12.4719 6.5687 12.3635C6.36145 12.2583 6.1813 12.1196 6.02826 11.9474C5.87522 11.7752 5.75087 11.5823 5.65522 11.3687C5.56275 11.1551 5.50058 10.9414 5.4687 10.7278V10.7326C5.44957 10.6433 5.43681 10.5541 5.43043 10.4648C5.42725 10.3723 5.42565 10.2783 5.42565 10.1826C5.42565 9.99449 5.43681 9.80638 5.45913 9.61826C5.48464 9.42696 5.51971 9.23406 5.56435 9.03957C5.62493 8.76217 5.70623 8.48797 5.80826 8.21696C5.91029 7.94594 6.03623 7.66536 6.18609 7.37522C6.33913 7.08507 6.5129 6.7758 6.70739 6.44739C6.90507 6.11899 7.12986 5.7587 7.38174 5.36652L7.17609 5.1513L8.10391 4.23783C8.37812 4.49609 8.62043 4.72406 8.83087 4.92174C9.0413 5.11623 9.22783 5.29478 9.39043 5.45739C9.55623 5.62 9.70609 5.77304 9.84 5.91652C9.97391 6.06 10.1014 6.20826 10.2226 6.3613C10.5638 6.78855 10.8539 7.2158 11.093 7.64304C11.3354 8.0671 11.533 8.51985 11.6861 9.0013C11.7339 9.15754 11.7722 9.32812 11.8009 9.51304C11.8296 9.69478 11.8439 9.87812 11.8439 10.063C11.8439 10.3659 11.8057 10.6625 11.7291 10.9526C11.6526 11.2428 11.533 11.5026 11.3704 11.7322C11.2078 11.9617 11.0006 12.1499 10.7487 12.2965C10.5 12.4432 10.2019 12.5213 9.85435 12.5309H9.84478ZM9.17043 9.51783C9.17043 9.65812 9.17841 9.82551 9.19435 10.02C9.21029 10.2145 9.24217 10.401 9.29 10.5796C9.34101 10.7581 9.40957 10.9112 9.49565 11.0387C9.58174 11.163 9.69652 11.2284 9.84 11.2348C9.95797 11.2157 10.0696 11.1694 10.1748 11.0961C10.28 11.0228 10.3709 10.9319 10.4474 10.8235C10.5271 10.7151 10.5893 10.5971 10.6339 10.4696C10.6786 10.342 10.7009 10.2161 10.7009 10.0917C10.7009 9.96739 10.6913 9.84145 10.6722 9.71391C10.653 9.58638 10.6291 9.47638 10.6004 9.38391C10.4952 9.07145 10.3565 8.77493 10.1843 8.49435C10.0154 8.21058 9.82565 7.93957 9.61522 7.6813C9.40478 7.41985 9.18 7.16956 8.94087 6.93043C8.70493 6.6913 8.47217 6.45696 8.24261 6.22739C8.06087 6.44739 7.88391 6.6913 7.71174 6.95913C7.54275 7.22377 7.38493 7.49159 7.23826 7.76261C7.09159 8.03362 6.96246 8.30304 6.85087 8.57087C6.74246 8.83551 6.66275 9.08101 6.61174 9.30739C6.58304 9.45406 6.55913 9.61188 6.54 9.78087C6.52087 9.94667 6.5113 10.1093 6.5113 10.2687C6.5113 10.3994 6.53043 10.5222 6.5687 10.637C6.61015 10.7517 6.66594 10.8522 6.73609 10.9383C6.80623 11.0243 6.88594 11.0929 6.97522 11.1439C7.06768 11.1949 7.16652 11.2204 7.27174 11.2204C7.32913 11.2204 7.3913 11.2061 7.45826 11.1774C7.52841 11.1455 7.59536 11.0993 7.65913 11.0387C7.72609 10.9781 7.78826 10.9032 7.84565 10.8139C7.90304 10.7246 7.94928 10.6178 7.98435 10.4935C8.02261 10.3596 8.05449 10.2352 8.08 10.1204C8.10551 10.0025 8.12783 9.89725 8.14696 9.80478C8.1629 9.69957 8.17406 9.59913 8.18043 9.50348L9.17043 9.51783Z" fill="white"/>
</g>
<rect x="0.5" y="0.5" width="16" height="16" rx="8" stroke="white"/>
<defs>
<clipPath id="clip0_2168_827">
<rect width="17" height="17" rx="8.5" fill="white"/>
</clipPath>
</defs>
</svg>
