<svg width="22" height="22" viewBox="0 0 22 22" fill="none" xmlns="http://www.w3.org/2000/svg">
<path fill-rule="evenodd" clip-rule="evenodd" d="M16.9366 1.3798C16.4008 1.16995 15.8009 1.13497 15.0321 1.12933C14.8724 0.791404 14.6203 0.505865 14.3051 0.305938C13.9899 0.106012 13.6245 -8.24895e-05 13.2514 2.39092e-07H8.74915C8.37624 -0.000183678 8.01093 0.105742 7.69572 0.305462C7.3805 0.505181 7.12832 0.790487 6.9685 1.12821C6.19861 1.13497 5.5998 1.16995 5.06403 1.3798C4.42445 1.63056 3.86821 2.05673 3.45896 2.60954C3.04588 3.16574 2.85116 3.88103 2.58552 4.86369L1.87866 7.46195C1.43545 7.68522 1.04718 8.00427 0.741833 8.3961C0.0417276 9.29528 -0.0820851 10.3659 0.0428534 11.5934C0.16329 12.7848 0.538105 14.2853 1.00634 16.1627L1.03561 16.2834C1.33276 17.4703 1.57251 18.4349 1.8584 19.1874C2.15668 19.9726 2.53599 20.6157 3.15956 21.1042C3.78425 21.5927 4.49899 21.8037 5.33079 21.9052C6.12769 22 7.12045 22 8.34169 22H13.6589C14.8801 22 15.8718 22 16.6698 21.9041C17.5027 21.8048 18.2163 21.5927 18.8399 21.1031C19.4646 20.6157 19.8428 19.9726 20.1411 19.1874C20.4281 18.4349 20.6678 17.4703 20.9639 16.2823L20.9942 16.1638C21.4625 14.2853 21.8362 12.7848 21.9577 11.5946C22.0815 10.3648 21.9577 9.29528 21.2576 8.3961C20.9526 8.0044 20.5647 7.68536 20.1219 7.46195L19.4151 4.86369C19.1483 3.88103 18.9536 3.16574 18.5416 2.60841C18.1322 2.05602 17.576 1.63025 16.9366 1.3798ZM5.67859 2.9559C5.92622 2.85887 6.22562 2.83067 6.96962 2.82277C7.28703 3.48841 7.96463 3.94872 8.74802 3.94872H13.2503C14.036 3.94872 14.7136 3.48841 15.031 2.82277C15.775 2.83067 16.0744 2.85887 16.322 2.9559C16.6664 3.09128 16.9658 3.32031 17.1864 3.61815C17.3845 3.88554 17.5005 4.25897 17.828 5.46277L18.2265 6.92605C17.0581 6.76923 15.5499 6.76923 13.6758 6.76923H8.32368C6.45073 6.76923 4.94247 6.76923 3.77412 6.92605L4.17258 5.46277C4.49899 4.25897 4.61605 3.88554 4.81415 3.61815C5.03455 3.32043 5.33413 3.09092 5.67859 2.9559ZM8.74915 1.69231C8.67452 1.69231 8.60295 1.72202 8.55018 1.77492C8.4974 1.82781 8.46776 1.89955 8.46776 1.97436C8.46776 2.04916 8.4974 2.12091 8.55018 2.1738C8.60295 2.22669 8.67452 2.25641 8.74915 2.25641H13.2514C13.3261 2.25641 13.3976 2.22669 13.4504 2.1738C13.5032 2.12091 13.5328 2.04916 13.5328 1.97436C13.5328 1.89955 13.5032 1.82781 13.4504 1.77492C13.3976 1.72202 13.3261 1.69231 13.2514 1.69231H8.74915ZM2.07338 9.43744C2.38742 9.03467 2.8838 8.7639 3.90807 8.61497C4.95597 8.46379 6.37645 8.46154 8.3946 8.46154H13.606C15.6241 8.46154 17.0435 8.46379 18.0914 8.61497C19.1168 8.7639 19.6132 9.03467 19.9272 9.43856C20.2412 9.84133 20.3831 10.3885 20.2773 11.4219C20.1703 12.4779 19.8282 13.8589 19.3385 15.8219C19.0267 17.072 18.8095 17.9385 18.5641 18.5861C18.3255 19.2111 18.0925 19.5416 17.801 19.7707C17.5095 19.9986 17.1324 20.1441 16.4694 20.2242C15.7828 20.3066 14.8936 20.3077 13.606 20.3077H8.3946C7.10694 20.3077 6.21661 20.3066 5.53114 20.2242C4.86705 20.1452 4.49111 19.9986 4.19959 19.7707C3.90694 19.5416 3.67395 19.2111 3.43645 18.5861C3.19108 17.9385 2.97384 17.072 2.66093 15.8219C2.17244 13.8589 1.82914 12.4779 1.72221 11.4219C1.61753 10.3885 1.75935 9.84021 2.07338 9.43744Z" fill="#6A7CBC"/>
</svg>
