<svg width="390" height="154" viewBox="0 0 390 154" fill="none" xmlns="http://www.w3.org/2000/svg">
<g filter="url(#filter0_d_2168_924)">
<path d="M134 43C165.216 43 163.742 76 195.5 76C229.275 76 225.318 43 257 43C257 49.5 257 105 257 105H134C134 105 134 48.7407 134 43Z" fill="white"/>
</g>
<path d="M188.075 91.3783C187.57 91.3783 187.137 91.3123 186.775 91.1804C186.413 91.0448 186.127 90.8545 185.916 90.6096C185.795 90.4551 185.708 90.2893 185.656 90.1122C185.603 89.9313 185.577 89.7599 185.577 89.5978C185.577 89.4546 185.588 89.3246 185.61 89.2078C185.637 89.091 185.667 88.9912 185.701 88.9083C185.852 88.5917 186.04 88.3167 186.266 88.083C186.496 87.8457 186.733 87.6422 186.978 87.4726C187.223 87.2993 187.464 87.1561 187.702 87.043C187.939 86.93 188.144 86.8396 188.318 86.7717C188.299 86.6286 188.284 86.4854 188.273 86.3422C188.265 86.199 188.256 86.0558 188.244 85.9126L189.674 85.6074C189.678 85.6413 189.686 85.7167 189.697 85.8335C189.708 85.9465 189.721 86.0822 189.737 86.2404C189.755 86.3987 189.774 86.5683 189.793 86.7491C189.812 86.9262 189.829 87.0939 189.844 87.2522C189.859 87.4067 189.872 87.5423 189.883 87.6591C189.899 87.7722 189.908 87.8419 189.912 87.8683C189.968 88.3506 190.019 88.7443 190.064 89.0496C190.113 89.3548 190.155 89.5959 190.189 89.773C190.226 89.9501 190.257 90.0764 190.279 90.1517C190.302 90.2271 190.319 90.2761 190.33 90.2987C190.368 90.3816 190.409 90.4513 190.454 90.5078C190.503 90.5606 190.56 90.6039 190.624 90.6378C190.692 90.668 190.769 90.6906 190.856 90.7057C190.946 90.717 191.048 90.7226 191.161 90.7226C191.259 90.7226 191.351 90.7414 191.438 90.7791C191.528 90.8168 191.606 90.8677 191.67 90.9317C191.737 90.9958 191.79 91.073 191.828 91.1635C191.869 91.2501 191.89 91.3443 191.89 91.4461C191.89 91.5478 191.869 91.642 191.828 91.7287C191.79 91.8154 191.737 91.8926 191.67 91.9604C191.606 92.0245 191.528 92.0754 191.438 92.113C191.351 92.1507 191.259 92.1696 191.161 92.1696C191.006 92.1696 190.824 92.1564 190.613 92.13C190.405 92.1036 190.196 92.0414 189.985 91.9435C189.834 91.8719 189.697 91.7852 189.573 91.6835C189.452 91.578 189.339 91.4461 189.233 91.2878C189.022 91.318 188.821 91.3406 188.629 91.3557C188.437 91.3707 188.252 91.3783 188.075 91.3783ZM188.73 89.8917C188.712 89.79 188.693 89.6694 188.674 89.53C188.655 89.3906 188.636 89.2399 188.617 89.0778C188.599 88.912 188.578 88.7406 188.555 88.5635C188.536 88.3864 188.516 88.2093 188.493 88.0322C188.395 88.0736 188.286 88.1264 188.165 88.1904C188.045 88.2545 187.92 88.328 187.792 88.4109C187.664 88.49 187.538 88.5748 187.413 88.6652C187.293 88.7557 187.186 88.8499 187.091 88.9478C186.997 89.042 186.92 89.1381 186.86 89.2361C186.803 89.3341 186.775 89.4283 186.775 89.5187C186.775 89.6016 186.816 89.6713 186.899 89.7278C186.982 89.7806 187.086 89.8239 187.21 89.8578C187.338 89.888 187.476 89.9106 187.623 89.9257C187.773 89.937 187.913 89.9426 188.041 89.9426C188.161 89.9426 188.282 89.9388 188.403 89.9313C188.523 89.92 188.632 89.9068 188.73 89.8917ZM190.394 91.4461C190.394 91.3443 190.413 91.2501 190.451 91.1635C190.488 91.073 190.541 90.9958 190.609 90.9317C190.673 90.8677 190.748 90.8168 190.835 90.7791C190.922 90.7414 191.016 90.7226 191.118 90.7226H191.7H191.954C192.112 90.7226 192.269 90.717 192.423 90.7057C192.578 90.6906 192.723 90.6623 192.859 90.6209C192.994 90.5794 193.113 90.521 193.215 90.4457C193.32 90.3703 193.401 90.2723 193.458 90.1517C193.499 90.0688 193.52 89.9445 193.52 89.7787C193.52 89.6807 193.499 89.5432 193.458 89.3661C193.42 89.189 193.365 88.993 193.294 88.7783C193.226 88.5635 193.145 88.3412 193.051 88.1113C192.96 87.8814 192.864 87.6667 192.762 87.467L194.068 86.8226C194.162 87.0374 194.257 87.2654 194.351 87.5065C194.445 87.7477 194.528 87.9964 194.599 88.2526C194.675 88.5051 194.735 88.7594 194.78 89.0157C194.825 89.2719 194.848 89.5225 194.848 89.7674C194.848 90.1329 194.786 90.4588 194.662 90.7452C194.518 91.0768 194.317 91.35 194.057 91.5648C193.797 91.7758 193.488 91.9341 193.13 92.0396C192.915 92.0999 192.706 92.1357 192.502 92.147C192.303 92.162 192.116 92.1696 191.943 92.1696H191.169H191.118C191.016 92.1696 190.922 92.1507 190.835 92.113C190.748 92.0754 190.673 92.0245 190.609 91.9604C190.541 91.8964 190.488 91.821 190.451 91.7343C190.413 91.6439 190.394 91.5478 190.394 91.4461ZM194.102 84.9461L193.022 86.0257L191.937 84.9404L193.017 83.8609L194.102 84.9461ZM198.682 92.1696C198.245 92.1696 197.87 92.1149 197.557 92.0057C197.244 91.9001 196.975 91.7381 196.749 91.5196C196.613 91.3839 196.508 91.2388 196.432 91.0843C196.361 90.9261 196.308 90.7735 196.274 90.6265C196.24 90.4758 196.219 90.3345 196.212 90.2026C196.208 90.067 196.206 89.9501 196.206 89.8522C196.21 89.7316 196.214 89.5319 196.217 89.253C196.225 88.9742 196.229 88.637 196.229 88.2413C196.229 88.0039 196.227 87.7514 196.223 87.4839C196.223 87.2126 196.221 86.9375 196.217 86.6587C196.214 86.3799 196.206 86.101 196.195 85.8222C196.187 85.5396 196.174 85.2683 196.155 85.0083C196.14 84.7483 196.119 84.5052 196.093 84.2791C196.071 84.0493 196.042 83.8458 196.008 83.6687L197.427 83.2448C197.468 83.4633 197.504 83.7271 197.534 84.0361C197.565 84.3451 197.589 84.6748 197.608 85.0252C197.627 85.3719 197.642 85.728 197.653 86.0935C197.664 86.4552 197.67 86.8 197.67 87.1278C197.67 87.2258 197.67 87.3294 197.67 87.4387C197.674 87.548 197.676 87.6572 197.676 87.7665C197.679 87.872 197.681 87.9757 197.681 88.0774C197.681 88.1791 197.681 88.2714 197.681 88.3543C197.681 88.4975 197.679 88.6332 197.676 88.7613C197.676 88.8857 197.674 89.0062 197.67 89.123C197.67 89.2399 197.668 89.3548 197.664 89.4678C197.664 89.5809 197.664 89.6958 197.664 89.8126C197.661 89.9558 197.664 90.0914 197.676 90.2196C197.687 90.3439 197.725 90.4362 197.789 90.4965C197.924 90.6397 198.205 90.7132 198.631 90.717H198.682C198.78 90.717 198.872 90.7377 198.959 90.7791C199.049 90.8168 199.126 90.8696 199.191 90.9374C199.258 91.0014 199.311 91.0787 199.349 91.1691C199.39 91.2558 199.411 91.3481 199.411 91.4461C199.411 91.5478 199.39 91.6439 199.349 91.7343C199.311 91.821 199.258 91.8964 199.191 91.9604C199.126 92.0245 199.049 92.0754 198.959 92.113C198.872 92.1507 198.78 92.1696 198.682 92.1696ZM197.932 91.4461C197.932 91.3443 197.951 91.2501 197.989 91.1635C198.027 91.073 198.079 90.9958 198.147 90.9317C198.215 90.8677 198.294 90.8168 198.385 90.7791C198.471 90.7414 198.565 90.7226 198.667 90.7226H199.786C200.254 90.7226 200.728 90.6793 201.211 90.5926C201.697 90.5022 202.179 90.3854 202.658 90.2422C203.136 90.0952 203.603 89.9275 204.059 89.7391C204.515 89.5507 204.947 89.3567 205.354 89.157C205.03 89.0854 204.728 88.9912 204.449 88.8743C204.171 88.7538 203.907 88.637 203.658 88.5239C203.409 88.4109 203.17 88.3129 202.94 88.23C202.71 88.1471 202.482 88.1057 202.256 88.1057C202.124 88.1057 202 88.1301 201.883 88.1791C201.77 88.2243 201.665 88.2828 201.567 88.3543C201.469 88.4259 201.38 88.5051 201.301 88.5917C201.226 88.6784 201.158 88.7632 201.098 88.8461C201.041 88.9252 200.994 88.9968 200.956 89.0609C200.919 89.1249 200.892 89.1701 200.877 89.1965L199.702 88.4335C199.83 88.2074 199.982 87.9888 200.159 87.7778C200.336 87.563 200.532 87.3728 200.747 87.207C200.966 87.0374 201.201 86.9036 201.454 86.8057C201.706 86.7039 201.974 86.653 202.256 86.653C202.546 86.653 202.835 86.6926 203.121 86.7717C203.407 86.8471 203.69 86.9432 203.969 87.06C204.252 87.1768 204.534 87.3049 204.817 87.4443C205.099 87.58 205.384 87.7081 205.67 87.8287C205.96 87.9455 206.252 88.0454 206.546 88.1283C206.84 88.2074 207.142 88.2488 207.451 88.2526L207.332 89.7109C206.804 89.9633 206.254 90.2309 205.682 90.5135C205.109 90.7961 204.51 91.058 203.884 91.2991C203.259 91.5403 202.605 91.7419 201.923 91.9039C201.241 92.0659 200.529 92.1545 199.786 92.1696H198.712H198.667C198.565 92.1696 198.471 92.1507 198.385 92.113C198.294 92.0754 198.215 92.0245 198.147 91.9604C198.079 91.8926 198.027 91.8154 197.989 91.7287C197.951 91.642 197.932 91.5478 197.932 91.4461ZM203.099 84.737L202.019 85.8165L200.934 84.7313L202.013 83.6517L203.099 84.737Z" fill="#232441"/>
<g filter="url(#filter1_d_2168_924)">
<circle cx="196.5" cy="40.5" r="28" stroke="white" stroke-opacity="0.35" shape-rendering="crispEdges"/>
</g>
<path d="M197.688 27.8613C197.535 27.7008 197.351 27.5731 197.147 27.4858C196.943 27.3985 196.723 27.3535 196.501 27.3535C196.279 27.3535 196.06 27.3985 195.856 27.4858C195.652 27.5731 195.468 27.7008 195.315 27.8613L183.83 39.8925C183.608 40.1248 183.46 40.4171 183.402 40.7332C183.345 41.0492 183.382 41.3752 183.508 41.6705C183.634 41.9659 183.844 42.2177 184.112 42.3947C184.38 42.5717 184.695 42.6661 185.016 42.6663H187.75V51.4163C187.75 51.9965 187.981 52.5529 188.391 52.9631C188.801 53.3733 189.357 53.6038 189.938 53.6038H192.125C192.705 53.6038 193.262 53.3733 193.672 52.9631C194.082 52.5529 194.313 51.9965 194.313 51.4163V49.2288C194.313 48.6486 194.543 48.0922 194.953 47.682C195.364 47.2718 195.92 47.0413 196.5 47.0413C197.08 47.0413 197.637 47.2718 198.047 47.682C198.457 48.0922 198.688 48.6486 198.688 49.2288V51.4163C198.688 51.9965 198.918 52.5529 199.328 52.9631C199.739 53.3733 200.295 53.6038 200.875 53.6038H203.063C203.643 53.6038 204.199 53.3733 204.609 52.9631C205.02 52.5529 205.25 51.9965 205.25 51.4163V42.6663H207.985C208.306 42.6666 208.62 42.5724 208.889 42.3956C209.157 42.2187 209.368 41.967 209.494 41.6715C209.621 41.3761 209.658 41.05 209.6 40.7337C209.543 40.4175 209.394 40.125 209.172 39.8925L197.688 27.8613Z" fill="#232441"/>
<g filter="url(#filter2_d_2168_924)">
<rect width="135" height="62" transform="translate(-1 43)" fill="white"/>
<path fill-rule="evenodd" clip-rule="evenodd" d="M43.5645 57.7559C43.5645 57.1314 43.6922 56.5129 43.9402 55.9359C44.1882 55.3589 44.5518 54.8346 45.0101 54.393C45.4684 53.9513 46.0125 53.601 46.6113 53.362C47.2101 53.123 47.8519 53 48.5 53C49.1481 53 49.7899 53.123 50.3887 53.362C50.9875 53.601 51.5316 53.9513 51.9899 54.393C52.4482 54.8346 52.8118 55.3589 53.0598 55.9359C53.3078 56.5129 53.4355 57.1314 53.4355 57.7559C53.4355 59.0173 52.9155 60.227 51.9899 61.1189C51.0643 62.0108 49.809 62.5118 48.5 62.5118C47.191 62.5118 45.9357 62.0108 45.0101 61.1189C44.0845 60.227 43.5645 59.0173 43.5645 57.7559ZM48.5 54.6786C47.653 54.6786 46.8407 55.0028 46.2418 55.5799C45.6429 56.157 45.3065 56.9398 45.3065 57.7559C45.3065 58.5721 45.6429 59.3548 46.2418 59.9319C46.8407 60.5091 47.653 60.8333 48.5 60.8333C49.347 60.8333 50.1593 60.5091 50.7582 59.9319C51.3571 59.3548 51.6935 58.5721 51.6935 57.7559C51.6935 56.9398 51.3571 56.157 50.7582 55.5799C50.1593 55.0028 49.347 54.6786 48.5 54.6786ZM43.8548 65.869C43.1619 65.869 42.4973 66.1342 42.0072 66.6064C41.5172 67.0786 41.2419 67.719 41.2419 68.3868V69.7162C41.2419 69.7364 41.257 69.7543 41.2779 69.7576C46.0613 70.5096 50.9399 70.5096 55.7221 69.7576C55.7322 69.756 55.7414 69.751 55.748 69.7434C55.7546 69.7358 55.7582 69.7261 55.7581 69.7162V68.3868C55.7581 67.719 55.4828 67.0786 54.9928 66.6064C54.5027 66.1342 53.8381 65.869 53.1452 65.869H52.7503C52.7192 65.8687 52.6882 65.8733 52.6586 65.8824L51.6541 66.1991C49.6046 66.8439 47.3954 66.8439 45.3459 66.1991L44.3403 65.8824C44.3114 65.8735 44.2812 65.8689 44.2508 65.869H43.8548ZM39.5 68.3868C39.5 67.2739 39.9588 66.2065 40.7755 65.4195C41.5922 64.6325 42.6999 64.1904 43.8548 64.1904H44.2497C44.4645 64.1904 44.6782 64.224 44.8814 64.2866L45.8871 64.6033C47.585 65.1374 49.415 65.1374 51.1129 64.6033L52.1186 64.2866C52.3218 64.2229 52.5355 64.1904 52.7492 64.1904H53.1452C54.3001 64.1904 55.4078 64.6325 56.2245 65.4195C57.0412 66.2065 57.5 67.2739 57.5 68.3868V69.7162C57.5 70.56 56.8659 71.2784 56.0019 71.4138C51.0335 72.1954 45.9665 72.1954 40.9981 71.4138C40.5799 71.3482 40.1996 71.1414 39.9252 70.8304C39.6507 70.5194 39.5 70.1245 39.5 69.7162V68.3868Z" fill="#6A7CBC" stroke="#6A7CBC" stroke-width="0.2"/>
<path d="M32.5348 86.2313C32.4304 86.367 32.3383 86.5391 32.2583 86.7478C32.1887 86.9252 32.1261 87.153 32.0704 87.4313C32.0148 87.7061 31.987 88.0383 31.987 88.4278C31.987 88.6574 32.02 88.8661 32.0861 89.0539C32.1522 89.2417 32.2391 89.407 32.347 89.5496C32.4548 89.6957 32.5765 89.8209 32.7122 89.9252C32.8513 90.033 32.9922 90.1217 33.1348 90.1913C33.2774 90.2609 33.4165 90.3113 33.5522 90.3426C33.6878 90.3774 33.8078 90.3948 33.9122 90.3948C34.0722 90.3948 34.2461 90.3826 34.4339 90.3583C34.6252 90.3374 34.8148 90.2974 35.0026 90.2383C35.1904 90.1826 35.3713 90.1043 35.5452 90.0035C35.7191 89.9026 35.8739 89.7739 36.0096 89.6174C36.1452 89.4609 36.253 89.273 36.333 89.0539C36.413 88.8348 36.453 88.5774 36.453 88.2817C36.453 88.007 36.4478 87.68 36.4374 87.3009C36.4304 86.9183 36.42 86.5096 36.4061 86.0748C36.3957 85.6365 36.3817 85.1843 36.3643 84.7183C36.347 84.2522 36.3296 83.7965 36.3122 83.3513C36.2739 82.3078 36.2287 81.2122 36.1765 80.0643L37.1991 80.0226C37.227 80.6487 37.2548 81.2922 37.2826 81.953C37.293 82.2348 37.3052 82.5339 37.3191 82.8504C37.333 83.167 37.3452 83.4922 37.3557 83.8261C37.3696 84.16 37.3817 84.4957 37.3922 84.833C37.4061 85.1704 37.4183 85.5009 37.4287 85.8243C37.4426 86.0435 37.4913 86.2365 37.5748 86.4035C37.6096 86.4765 37.653 86.5478 37.7052 86.6174C37.7574 86.6835 37.82 86.7443 37.893 86.8C37.9661 86.8522 38.0513 86.8957 38.1487 86.9304C38.2496 86.9617 38.3643 86.9774 38.493 86.9774C38.5661 86.9774 38.6339 86.9913 38.6965 87.0191C38.7591 87.047 38.813 87.0852 38.8583 87.1339C38.907 87.1791 38.9435 87.233 38.9678 87.2957C38.9957 87.3583 39.0096 87.4243 39.0096 87.4939C39.0096 87.64 38.9591 87.7617 38.8583 87.8591C38.7609 87.953 38.6391 88 38.493 88C38.3713 88 38.2617 87.9948 38.1643 87.9843C38.067 87.9739 37.9765 87.9583 37.893 87.9374C37.813 87.9165 37.7383 87.8922 37.6687 87.8643C37.6026 87.8365 37.5365 87.8035 37.4704 87.7652C37.4739 87.8591 37.4757 87.9496 37.4757 88.0365C37.4757 88.1235 37.4757 88.2052 37.4757 88.2817C37.4757 88.72 37.42 89.1009 37.3087 89.4243C37.2009 89.7513 37.0548 90.0313 36.8704 90.2643C36.6861 90.4974 36.4739 90.687 36.2339 90.833C35.9939 90.9826 35.7417 91.1009 35.4774 91.1878C35.213 91.2748 34.9452 91.3339 34.6739 91.3652C34.4061 91.4 34.1522 91.4174 33.9122 91.4174C33.6757 91.4174 33.4391 91.3913 33.2026 91.3391C32.9661 91.2904 32.7383 91.2139 32.5191 91.1096C32.3 91.0052 32.0948 90.8713 31.9035 90.7078C31.7157 90.5478 31.5522 90.3565 31.413 90.1339C31.2739 89.9148 31.1643 89.6626 31.0843 89.3774C31.0043 89.0957 30.9643 88.7791 30.9643 88.4278C30.9643 87.9443 30.9974 87.5322 31.0635 87.1913C31.133 86.8504 31.2096 86.5687 31.293 86.3461C31.3904 86.0887 31.5017 85.8748 31.627 85.7043L32.5348 86.2313ZM40.2296 89.8L39.3844 90.6452L38.5287 89.7948L39.3739 88.9443L40.2296 89.8ZM42.3687 89.8052L41.5235 90.6557L40.6678 89.8L41.5131 88.9548L42.3687 89.8052ZM37.7148 87.4887C37.7148 87.3426 37.7652 87.2209 37.8661 87.1235C37.9635 87.0261 38.0835 86.9774 38.2261 86.9774H38.8052C38.927 86.9809 39.0591 86.9826 39.2018 86.9826C39.3444 86.9791 39.4887 86.9704 39.6348 86.9565C39.7809 86.9426 39.9235 86.9235 40.0626 86.8991C40.2052 86.8713 40.3357 86.8348 40.4539 86.7896C40.5722 86.7409 40.6765 86.6817 40.767 86.6122C40.8574 86.5426 40.9252 86.4591 40.9704 86.3617C41.04 86.2122 41.0591 86 41.0278 85.7252C41 85.447 40.9304 85.1235 40.8191 84.7548C40.7809 84.6435 40.7357 84.5235 40.6835 84.3948C40.6348 84.2626 40.5861 84.1409 40.5374 84.0296C40.4818 83.8974 40.4244 83.767 40.3652 83.6383L41.2939 83.1791C41.2939 83.1826 41.3096 83.2191 41.3409 83.2887C41.3757 83.3548 41.4174 83.4452 41.4661 83.56C41.5148 83.6748 41.5687 83.8087 41.6278 83.9617C41.687 84.1113 41.7426 84.2713 41.7948 84.4417C42.1183 85.44 42.1583 86.2191 41.9148 86.7791C41.6678 87.3391 41.2296 87.7078 40.6 87.8852C40.5061 87.913 40.3861 87.9357 40.24 87.953C40.0939 87.967 39.9444 87.9774 39.7913 87.9843C39.6383 87.9913 39.4922 87.9965 39.3531 88C39.2139 88 39.1061 88 39.0296 88H38.2731H38.2261C38.0835 88 37.9635 87.9513 37.8661 87.8539C37.7652 87.7565 37.7148 87.6348 37.7148 87.4887ZM46.2817 88C45.8991 88 45.5704 87.9548 45.2956 87.8643C45.0243 87.7739 44.7948 87.6348 44.6069 87.447C44.4921 87.3322 44.4035 87.2087 44.3408 87.0765C44.2817 86.9443 44.2365 86.8139 44.2052 86.6852C44.1774 86.5565 44.1617 86.4348 44.1582 86.32C44.1548 86.2017 44.153 86.1009 44.153 86.0174V85.9183C44.153 85.9148 44.1548 85.8522 44.1582 85.7304C44.1617 85.6052 44.1635 85.4383 44.1635 85.2296C44.1669 85.0174 44.1687 84.7739 44.1687 84.4991C44.1687 84.2243 44.1669 83.9339 44.1635 83.6278C44.1635 83.3287 44.16 83.0174 44.153 82.6939C44.1461 82.3704 44.1356 82.0574 44.1217 81.7548C44.1078 81.4522 44.0887 81.1739 44.0643 80.92C44.04 80.6626 44.0121 80.4522 43.9808 80.2887L45.0035 80.1009C45.0348 80.2783 45.0626 80.4957 45.0869 80.753C45.1113 81.0104 45.1304 81.2904 45.1443 81.593C45.1617 81.8957 45.1739 82.2122 45.1808 82.5426C45.1878 82.8696 45.1913 83.1896 45.1913 83.5026C45.1948 83.8087 45.1965 84.1026 45.1965 84.3843C45.1965 84.6661 45.1965 84.9165 45.1965 85.1357C45.1965 85.3548 45.1948 85.5357 45.1913 85.6783C45.1913 85.8209 45.1913 85.9061 45.1913 85.9339V86.0278C45.1878 86.1809 45.193 86.3165 45.2069 86.4348C45.2208 86.5496 45.2678 86.6452 45.3478 86.7217C45.5043 86.8852 45.8 86.9687 46.2348 86.9722H46.2817C46.3513 86.9722 46.4174 86.9861 46.48 87.0139C46.5426 87.0417 46.5965 87.08 46.6417 87.1287C46.6904 87.1739 46.7287 87.2278 46.7565 87.2904C46.7843 87.353 46.7982 87.4191 46.7982 87.4887C46.7982 87.6348 46.7478 87.7565 46.6469 87.8539C46.5461 87.9513 46.4243 88 46.2817 88ZM48.5065 83.1635C48.4578 83.1635 48.4004 83.1878 48.3343 83.2365C48.2682 83.2817 48.2021 83.3513 48.136 83.4452C48.0734 83.5391 48.0143 83.6539 47.9587 83.7896C47.903 83.9252 47.8613 84.0817 47.8334 84.2591C47.7847 84.52 47.8143 84.7148 47.9221 84.8435C47.9917 84.927 48.0926 84.9948 48.2247 85.047C48.3604 85.0991 48.5221 85.1304 48.71 85.1409C48.8874 85.1478 49.0526 85.1513 49.2056 85.1513C49.3621 85.1513 49.4978 85.1478 49.6126 85.1409C49.5882 84.8035 49.5221 84.4852 49.4143 84.1861C49.31 83.8835 49.1691 83.6348 48.9917 83.44C48.936 83.3774 48.8647 83.3165 48.7778 83.2574C48.6943 83.1948 48.6039 83.1635 48.5065 83.1635ZM45.7465 87.4887C45.7465 87.3426 45.7969 87.2209 45.8978 87.1235C45.9987 87.0261 46.1221 86.9774 46.2682 86.9774C46.6543 86.9774 47.0091 86.96 47.3326 86.9252C47.6595 86.887 47.95 86.84 48.2039 86.7843C48.4613 86.7252 48.6787 86.6609 48.856 86.5913C49.0334 86.5183 49.1639 86.4487 49.2474 86.3826C49.2926 86.3443 49.3291 86.3096 49.3569 86.2783C49.3847 86.247 49.4126 86.2157 49.4404 86.1843H48.9134C48.7256 86.1843 48.543 86.1704 48.3656 86.1426C48.1882 86.1113 48.0213 86.0661 47.8647 86.007C47.7082 85.9478 47.5656 85.8748 47.4369 85.7878C47.3082 85.6974 47.1987 85.5948 47.1082 85.48C47.0595 85.4174 47.0108 85.3426 46.9621 85.2557C46.9134 85.1652 46.8734 85.0626 46.8421 84.9478C46.8108 84.8296 46.7917 84.6991 46.7847 84.5565C46.7778 84.4104 46.7882 84.2504 46.816 84.0765C46.8647 83.8087 46.936 83.5652 47.03 83.3461C47.1239 83.1235 47.2387 82.9252 47.3743 82.7513C47.5308 82.5461 47.7065 82.3913 47.9013 82.287C48.096 82.1826 48.2978 82.1304 48.5065 82.1304C48.9656 82.1304 49.383 82.3339 49.7587 82.7409C49.9187 82.9183 50.0595 83.1235 50.1813 83.3565C50.3065 83.5896 50.4074 83.84 50.4839 84.1078C50.5604 84.3722 50.6126 84.647 50.6404 84.9322C50.6682 85.2174 50.6665 85.4991 50.6352 85.7774H50.63C50.6091 85.9165 50.5795 86.0574 50.5413 86.2C50.5308 86.2417 50.5152 86.2991 50.4943 86.3722C50.4734 86.4417 50.4387 86.5217 50.39 86.6122C50.3413 86.6991 50.2752 86.793 50.1917 86.8939C50.1117 86.9913 50.0091 87.0887 49.8839 87.1861C49.7169 87.3183 49.5047 87.4348 49.2474 87.5357C48.9934 87.6365 48.7117 87.7217 48.4021 87.7913C48.0926 87.8574 47.7621 87.9078 47.4108 87.9426C47.0595 87.9774 46.7047 87.9965 46.3465 88H46.2578C46.1152 88 45.9952 87.9513 45.8978 87.8539C45.7969 87.753 45.7465 87.6313 45.7465 87.4887ZM49.1952 80.3304L48.3447 81.1809L47.4891 80.3252L48.3395 79.4748L49.1952 80.3304ZM53.9214 84.6087C53.8205 84.6087 53.7248 84.6487 53.6344 84.7287C53.544 84.8052 53.4622 84.9043 53.3892 85.0261C53.3196 85.1478 53.2605 85.2852 53.2118 85.4383C53.1631 85.5878 53.1283 85.7374 53.1074 85.887C53.0901 86.033 53.0901 86.1704 53.1074 86.2991C53.1248 86.4243 53.1631 86.5235 53.2222 86.5965C53.2744 86.6661 53.3405 86.7235 53.4205 86.7687C53.5005 86.8104 53.584 86.8452 53.6709 86.873C53.7579 86.8974 53.8431 86.9165 53.9266 86.9304C54.0135 86.9409 54.0883 86.9478 54.1509 86.9513C54.3701 86.9652 54.5701 86.9704 54.7509 86.967C54.9353 86.9635 55.0953 86.9565 55.2309 86.9461C55.2205 86.727 55.1944 86.5183 55.1527 86.32C55.1109 86.1183 55.057 85.9322 54.9909 85.7617C54.9283 85.5913 54.8553 85.4383 54.7718 85.3026C54.6883 85.1635 54.6031 85.0435 54.5161 84.9426C54.4814 84.9078 54.4414 84.8713 54.3961 84.833C54.3544 84.7913 54.3074 84.7548 54.2553 84.7235C54.2066 84.6887 54.1527 84.6609 54.0935 84.64C54.0379 84.6191 53.9805 84.6087 53.9214 84.6087ZM51.6205 90.6557C52.1561 90.5478 52.6361 90.3983 53.0605 90.207C53.4848 90.0157 53.8483 89.8 54.1509 89.56C54.4535 89.32 54.6918 89.0643 54.8657 88.793C55.0431 88.5252 55.1509 88.2609 55.1892 88C55.0431 88.0035 54.8692 88.0035 54.6674 88C54.4692 88 54.2744 87.9913 54.0831 87.9739C53.3283 87.9252 52.7701 87.6783 52.4083 87.233C52.2483 87.0313 52.1457 86.7983 52.1005 86.5339C52.0588 86.2696 52.057 86 52.0953 85.7252C52.137 85.447 52.2118 85.1791 52.3196 84.9217C52.4274 84.6609 52.5544 84.4365 52.7005 84.2487C52.8744 84.0296 53.0657 83.8643 53.2744 83.753C53.4831 83.6383 53.6988 83.5809 53.9214 83.5809C54.4153 83.5809 54.8692 83.8035 55.2831 84.2487C55.4605 84.4435 55.6153 84.6696 55.7474 84.927C55.8831 85.1809 55.9927 85.4539 56.0761 85.7461C56.1596 86.0383 56.2153 86.3426 56.2431 86.6591C56.2744 86.9757 56.2744 87.2922 56.2431 87.6087C56.2048 87.9913 56.1196 88.3478 55.9874 88.6783C55.8553 89.0122 55.6866 89.32 55.4814 89.6017C55.2761 89.8835 55.0379 90.1391 54.7666 90.3687C54.4988 90.5983 54.2083 90.7983 53.8953 90.9687C53.5857 91.1426 53.2587 91.287 52.9144 91.4017C52.5701 91.52 52.2188 91.607 51.8605 91.6626L51.6205 90.6557ZM60.1046 87.64C60.1046 87.9426 60.0594 88.2365 59.969 88.5217C59.882 88.807 59.7585 89.0817 59.5985 89.3461C59.442 89.6104 59.2542 89.8609 59.0351 90.0974C58.8194 90.3374 58.5829 90.5635 58.3255 90.7757C58.0716 90.9878 57.802 91.1826 57.5168 91.36C57.2351 91.5409 56.9481 91.7043 56.6559 91.8504L56.2072 90.927C56.4577 90.7983 56.7064 90.6574 56.9533 90.5043C57.2003 90.3513 57.4333 90.1861 57.6524 90.0087C57.8716 89.8313 58.0733 89.6435 58.2577 89.4452C58.442 89.247 58.5968 89.04 58.722 88.8243C58.8507 88.6087 58.9464 88.3843 59.009 88.1513C59.0716 87.9217 59.0907 87.6835 59.0664 87.4365V87.447C59.042 87.2487 59.0038 87.0365 58.9516 86.8104C58.9029 86.5809 58.8472 86.3565 58.7846 86.1374C58.7255 85.9183 58.6664 85.713 58.6072 85.5217C58.5516 85.327 58.5029 85.1652 58.4611 85.0365L59.442 84.7339C59.5742 85.1374 59.7029 85.4817 59.8281 85.767C59.9568 86.0487 60.0872 86.28 60.2194 86.4609C60.3551 86.6383 60.4959 86.7687 60.642 86.8522C60.7881 86.9357 60.9481 86.9774 61.122 86.9774H61.1481C61.2211 86.9774 61.289 86.9913 61.3516 87.0191C61.4142 87.047 61.4681 87.0852 61.5133 87.1339C61.562 87.1791 61.5985 87.233 61.6229 87.2957C61.6507 87.3583 61.6646 87.4243 61.6646 87.4939C61.6646 87.64 61.6142 87.7617 61.5133 87.8591C61.4159 87.953 61.2942 88 61.1481 88H61.1429C61.0942 88 61.0298 87.9983 60.9498 87.9948C60.8733 87.9913 60.7864 87.9774 60.689 87.953C60.5951 87.9287 60.4977 87.8904 60.3968 87.8383C60.2959 87.7861 60.1985 87.713 60.1046 87.6191V87.64ZM60.5864 87.4887C60.5864 87.3426 60.6368 87.2209 60.7377 87.1235C60.835 87.0261 60.955 86.9774 61.0977 86.9774H61.6768C61.7985 86.9809 61.9307 86.9826 62.0733 86.9826C62.2159 86.9791 62.3603 86.9704 62.5064 86.9565C62.6524 86.9426 62.795 86.9235 62.9342 86.8991C63.0768 86.8713 63.2072 86.8348 63.3255 86.7896C63.4437 86.7409 63.5481 86.6817 63.6385 86.6122C63.729 86.5426 63.7968 86.4591 63.842 86.3617C63.9116 86.2122 63.9307 86 63.8994 85.7252C63.8716 85.447 63.802 85.1235 63.6907 84.7548C63.6524 84.6435 63.6072 84.5235 63.555 84.3948C63.5064 84.2626 63.4577 84.1409 63.409 84.0296C63.3533 83.8974 63.2959 83.767 63.2368 83.6383L64.1655 83.1791C64.1655 83.1826 64.1811 83.2191 64.2124 83.2887C64.2472 83.3548 64.289 83.4452 64.3377 83.56C64.3864 83.6748 64.4403 83.8087 64.4994 83.9617C64.5585 84.1113 64.6142 84.2713 64.6664 84.4417C64.9898 85.44 65.0298 86.2191 64.7864 86.7791C64.5394 87.3391 64.1011 87.7078 63.4716 87.8852C63.3777 87.913 63.2577 87.9357 63.1116 87.953C62.9655 87.967 62.8159 87.9774 62.6629 87.9843C62.5098 87.9913 62.3637 87.9965 62.2246 88C62.0855 88 61.9777 88 61.9011 88H61.1446H61.0977C60.955 88 60.835 87.9513 60.7377 87.8539C60.6368 87.7565 60.5864 87.6348 60.5864 87.4887ZM64.1864 88.9704L65.0316 89.8157L64.1759 90.6713L63.3307 89.8261L64.1864 88.9704ZM61.9064 88.9757L62.7516 89.8261L61.8959 90.6817L61.0507 89.8313L61.9064 88.9757ZM63.0646 90.6243L63.8368 91.3965L63.0594 92.1739L62.2872 91.4017L63.0646 90.6243Z" fill="#6A7CBC"/>
<path d="M114.508 59.2567C114.463 59.1536 114.4 59.0593 114.322 58.9784L108.622 53.2783C108.541 53.2002 108.446 53.1372 108.343 53.0921C108.315 53.0788 108.284 53.0712 108.254 53.0608C108.174 53.0337 108.092 53.0175 108.008 53.0124C107.988 53.0105 107.97 53 107.95 53H101.3C100.252 53 99.3999 53.8521 99.3999 54.9V70.1C99.3999 71.1479 100.252 72 101.3 72H112.7C113.748 72 114.6 71.1479 114.6 70.1V59.65C114.6 59.63 114.589 59.612 114.588 59.5911C114.583 59.5072 114.567 59.4244 114.539 59.345C114.53 59.3147 114.521 59.2852 114.508 59.2567ZM113.46 59.46H108.14V54.14L113.46 59.46ZM100.54 70.86V54.14H107V59.65C107 59.902 107.1 60.1436 107.278 60.3218C107.456 60.4999 107.698 60.6 107.95 60.6H113.46L113.462 70.86H107.001H100.54Z" fill="#6A7CBC" stroke="#6A7CBC" stroke-width="0.5"/>
<path d="M103.2 63.2602H110.8V64.4002H103.2V63.2602ZM103.2 67.0602H110.8V68.2002H103.2V67.0602ZM103.2 58.7002H104.34V59.8402H103.2V58.7002Z" fill="#6A7CBC" stroke="#6A7CBC" stroke-width="0.5"/>
<path d="M96.8496 84.3374C96.7661 84.3722 96.667 84.4157 96.5522 84.4678C96.4374 84.5165 96.3174 84.5739 96.1922 84.64C96.0704 84.7026 95.9487 84.7739 95.827 84.8539C95.7087 84.9304 95.6009 85.0139 95.5035 85.1043C95.4096 85.1913 95.333 85.287 95.2739 85.3913C95.2148 85.4922 95.1852 85.5983 95.1852 85.7096C95.1852 85.8243 95.22 85.9183 95.2896 85.9913C95.3626 86.0609 95.4548 86.1165 95.5661 86.1583C95.6809 86.1965 95.8096 86.2226 95.9522 86.2365C96.0948 86.2504 96.2374 86.2574 96.38 86.2574C96.5261 86.2539 96.6635 86.2452 96.7922 86.2313C96.9243 86.2174 97.0357 86.2017 97.1261 86.1843C97.0843 85.9826 97.0409 85.7357 96.9957 85.4435C96.9539 85.1513 96.9052 84.7826 96.8496 84.3374ZM96.3383 87.2696C95.4409 87.2696 94.8165 87.0522 94.4652 86.6174C94.3678 86.4991 94.2983 86.3739 94.2565 86.2417C94.2183 86.1061 94.1957 85.9739 94.1887 85.8452C94.1852 85.7165 94.1939 85.5965 94.2148 85.4852C94.2357 85.3739 94.2617 85.2817 94.293 85.2087C94.387 85.0139 94.4983 84.8348 94.627 84.6713C94.7591 84.5078 94.8983 84.3617 95.0443 84.233C95.1939 84.1009 95.347 83.9843 95.5035 83.8835C95.6635 83.7791 95.8165 83.6887 95.9626 83.6122C96.1122 83.5357 96.253 83.4696 96.3852 83.4139C96.5174 83.3583 96.6322 83.313 96.7296 83.2783C96.7017 83.0139 96.6809 82.8209 96.667 82.6991C96.6565 82.5739 96.6513 82.5096 96.6513 82.5061L97.6739 82.2922V82.287C97.6774 82.3183 97.6843 82.3826 97.6948 82.48C97.7052 82.5774 97.7174 82.6939 97.7313 82.8296C97.7452 82.9617 97.7591 83.1043 97.773 83.2574C97.7904 83.407 97.8061 83.5478 97.82 83.68C97.8339 83.8122 97.8461 83.927 97.8565 84.0243C97.867 84.1217 97.8739 84.1826 97.8774 84.207C97.9296 84.6557 97.9783 85.0226 98.0235 85.3078C98.0687 85.593 98.1087 85.8209 98.1435 85.9913C98.1783 86.1583 98.2061 86.2783 98.227 86.3513C98.2513 86.4243 98.2687 86.4713 98.2791 86.4922C98.3209 86.5861 98.3678 86.6643 98.42 86.727C98.4757 86.7896 98.54 86.84 98.613 86.8783C98.6861 86.913 98.7696 86.9391 98.8635 86.9565C98.9574 86.9704 99.0652 86.9774 99.187 86.9774C99.3296 86.9774 99.4513 87.0261 99.5522 87.1235C99.653 87.2209 99.7035 87.3426 99.7035 87.4887C99.7035 87.5583 99.6896 87.6243 99.6617 87.687C99.6339 87.7496 99.5957 87.8052 99.547 87.8539C99.5017 87.8991 99.4478 87.9357 99.3852 87.9635C99.3226 87.9878 99.2565 88 99.187 88C99.0548 88 98.8965 87.9896 98.7122 87.9687C98.5313 87.9443 98.3504 87.8904 98.1696 87.807C97.8913 87.6748 97.6617 87.4626 97.4809 87.1704C97.2652 87.2052 97.0635 87.2313 96.8757 87.2487C96.6878 87.2626 96.5087 87.2696 96.3383 87.2696ZM98.6775 87.4887C98.6775 87.3461 98.7262 87.2278 98.8236 87.1339C98.921 87.0365 99.041 86.9843 99.1836 86.9774H99.1888C99.481 86.9774 99.7279 86.9304 99.9297 86.8365C100.131 86.7391 100.307 86.6122 100.457 86.4557C100.606 86.2957 100.737 86.1148 100.848 85.913C100.959 85.7078 101.069 85.4974 101.177 85.2817C101.267 85.0939 101.358 84.9148 101.448 84.7443C101.538 84.5739 101.643 84.4174 101.761 84.2748C102.074 83.8922 102.453 83.7009 102.898 83.7009C103.424 83.7009 103.86 83.9113 104.208 84.3322C104.486 84.6661 104.653 85.0852 104.709 85.5896C104.744 85.8296 104.749 86.0643 104.724 86.2939C104.7 86.5235 104.65 86.7409 104.573 86.9461C104.472 87.1965 104.338 87.4035 104.171 87.567C104.004 87.727 103.811 87.8365 103.592 87.8957C103.203 88 102.763 87.953 102.272 87.7548C101.935 87.6226 101.582 87.4209 101.213 87.1496C101.189 87.1739 101.171 87.1896 101.161 87.1965C100.643 87.7322 99.9853 88 99.1888 88H99.1836C99.041 88 98.921 87.9513 98.8236 87.8539C98.7262 87.753 98.6775 87.6313 98.6775 87.4887ZM101.813 86.3043C102.13 86.5374 102.418 86.7061 102.679 86.8104C102.94 86.9148 103.158 86.9426 103.331 86.8939C103.391 86.88 103.448 86.84 103.504 86.7739C103.559 86.7078 103.606 86.6226 103.644 86.5183C103.686 86.4139 103.714 86.2939 103.728 86.1583C103.745 86.0226 103.744 85.8765 103.723 85.72C103.719 85.6957 103.711 85.6539 103.697 85.5948C103.683 85.5357 103.662 85.4696 103.634 85.3965C103.61 85.3235 103.577 85.2487 103.535 85.1722C103.493 85.0922 103.443 85.0209 103.384 84.9583C103.324 84.8922 103.255 84.8383 103.175 84.7965C103.095 84.7548 103.003 84.7339 102.898 84.7339C102.829 84.7339 102.763 84.7548 102.7 84.7965C102.641 84.8348 102.58 84.8957 102.518 84.9791C102.458 85.0626 102.394 85.167 102.324 85.2922C102.258 85.4174 102.182 85.5652 102.095 85.7357L101.813 86.3043ZM108.532 88C108.149 88 107.82 87.9548 107.546 87.8643C107.274 87.7739 107.045 87.6348 106.857 87.447C106.742 87.3322 106.653 87.2087 106.591 87.0765C106.532 86.9443 106.486 86.8139 106.455 86.6852C106.427 86.5565 106.412 86.4348 106.408 86.32C106.405 86.2017 106.403 86.1009 106.403 86.0174V85.9183C106.403 85.9148 106.405 85.8522 106.408 85.7304C106.412 85.6052 106.413 85.4383 106.413 85.2296C106.417 85.0174 106.419 84.7739 106.419 84.4991C106.419 84.2243 106.417 83.9339 106.413 83.6278C106.413 83.3287 106.41 83.0174 106.403 82.6939C106.396 82.3704 106.386 82.0574 106.372 81.7548C106.358 81.4522 106.339 81.1739 106.314 80.92C106.29 80.6626 106.262 80.4522 106.231 80.2887L107.253 80.1009C107.285 80.2783 107.313 80.4957 107.337 80.753C107.361 81.0104 107.38 81.2904 107.394 81.593C107.412 81.8957 107.424 82.2122 107.431 82.5426C107.438 82.8696 107.441 83.1896 107.441 83.5026C107.445 83.8087 107.446 84.1026 107.446 84.3843C107.446 84.6661 107.446 84.9165 107.446 85.1357C107.446 85.3548 107.445 85.5357 107.441 85.6783C107.441 85.8209 107.441 85.9061 107.441 85.9339V86.0278C107.438 86.1809 107.443 86.3165 107.457 86.4348C107.471 86.5496 107.518 86.6452 107.598 86.7217C107.754 86.8852 108.05 86.9687 108.485 86.9722H108.532C108.601 86.9722 108.667 86.9861 108.73 87.0139C108.793 87.0417 108.846 87.08 108.892 87.1287C108.94 87.1739 108.979 87.2278 109.006 87.2904C109.034 87.353 109.048 87.4191 109.048 87.4887C109.048 87.6348 108.998 87.7565 108.897 87.8539C108.796 87.9513 108.674 88 108.532 88ZM107.976 87.4887C107.976 87.3426 108.026 87.2209 108.127 87.1235C108.224 87.0261 108.344 86.9774 108.487 86.9774H109.024C109.209 86.9843 109.386 86.9843 109.556 86.9774C109.727 86.967 109.883 86.9409 110.026 86.8991C110.169 86.8574 110.294 86.7948 110.402 86.7113C110.513 86.6243 110.603 86.5078 110.673 86.3617C110.743 86.2122 110.762 86 110.73 85.7252C110.703 85.447 110.633 85.1235 110.522 84.7548C110.483 84.6435 110.438 84.5235 110.386 84.3948C110.337 84.2626 110.289 84.1409 110.24 84.0296C110.184 83.8974 110.127 83.767 110.068 83.6383L110.996 83.1791C110.996 83.1826 111.012 83.2191 111.043 83.2887C111.078 83.3548 111.12 83.4452 111.169 83.56C111.217 83.6748 111.271 83.8087 111.33 83.9617C111.39 84.1113 111.445 84.2713 111.497 84.4417C111.821 85.44 111.861 86.2191 111.617 86.7791C111.37 87.3391 110.932 87.7078 110.303 87.8852C110.115 87.9409 109.93 87.9739 109.75 87.9843C109.572 87.9948 109.405 88 109.249 88H108.534H108.487C108.344 88 108.224 87.9513 108.127 87.8539C108.026 87.7565 107.976 87.6348 107.976 87.4887ZM111.096 81.4887L110.245 82.3391L109.39 81.4835L110.24 80.633L111.096 81.4887ZM115.464 87.64C115.464 87.9426 115.419 88.2365 115.328 88.5217C115.241 88.807 115.118 89.0817 114.958 89.3461C114.801 89.6104 114.614 89.8609 114.394 90.0974C114.179 90.3374 113.942 90.5635 113.685 90.7757C113.431 90.9878 113.161 91.1826 112.876 91.36C112.594 91.5409 112.307 91.7043 112.015 91.8504L111.567 90.927C111.817 90.7983 112.066 90.6574 112.313 90.5043C112.56 90.3513 112.793 90.1861 113.012 90.0087C113.231 89.8313 113.433 89.6435 113.617 89.4452C113.801 89.247 113.956 89.04 114.081 88.8243C114.21 88.6087 114.306 88.3843 114.368 88.1513C114.431 87.9217 114.45 87.6835 114.426 87.4365V87.447C114.401 87.2487 114.363 87.0365 114.311 86.8104C114.262 86.5809 114.207 86.3565 114.144 86.1374C114.085 85.9183 114.026 85.713 113.967 85.5217C113.911 85.327 113.862 85.1652 113.821 85.0365L114.801 84.7339C114.934 85.1374 115.062 85.4817 115.187 85.767C115.316 86.0487 115.447 86.28 115.579 86.4609C115.714 86.6383 115.855 86.7687 116.001 86.8522C116.147 86.9357 116.307 86.9774 116.481 86.9774H116.507C116.581 86.9774 116.648 86.9913 116.711 87.0191C116.774 87.047 116.827 87.0852 116.873 87.1339C116.921 87.1791 116.958 87.233 116.982 87.2957C117.01 87.3583 117.024 87.4243 117.024 87.4939C117.024 87.64 116.974 87.7617 116.873 87.8591C116.775 87.953 116.654 88 116.507 88H116.502C116.454 88 116.389 87.9983 116.309 87.9948C116.233 87.9913 116.146 87.9774 116.048 87.953C115.954 87.9287 115.857 87.8904 115.756 87.8383C115.655 87.7861 115.558 87.713 115.464 87.6191V87.64ZM115.909 87.4887C115.909 87.3426 115.96 87.2209 116.061 87.1235C116.158 87.0261 116.278 86.9774 116.421 86.9774H116.958C117.142 86.9843 117.32 86.9843 117.49 86.9774C117.661 86.967 117.817 86.9409 117.96 86.8991C118.102 86.8574 118.227 86.7948 118.335 86.7113C118.447 86.6243 118.537 86.5078 118.607 86.3617C118.676 86.2122 118.695 86 118.664 85.7252C118.636 85.447 118.567 85.1235 118.455 84.7548C118.417 84.6435 118.372 84.5235 118.32 84.3948C118.271 84.2626 118.222 84.1409 118.174 84.0296C118.118 83.8974 118.061 83.767 118.001 83.6383L118.93 83.1791C118.93 83.1826 118.946 83.2191 118.977 83.2887C119.012 83.3548 119.054 83.4452 119.102 83.56C119.151 83.6748 119.205 83.8087 119.264 83.9617C119.323 84.1113 119.379 84.2713 119.431 84.4417C119.754 85.44 119.794 86.2191 119.551 86.7791C119.304 87.3391 118.866 87.7078 118.236 87.8852C118.048 87.9409 117.864 87.9739 117.683 87.9843C117.506 87.9948 117.339 88 117.182 88H116.467H116.421C116.278 88 116.158 87.9513 116.061 87.8539C115.96 87.7565 115.909 87.6348 115.909 87.4887ZM118.841 89.9617L117.991 90.8122L117.135 89.9565L117.986 89.1061L118.841 89.9617Z" fill="#6A7CBC"/>
</g>
<g filter="url(#filter3_d_2168_924)">
<rect width="134" height="62" transform="translate(256 43.0215)" fill="white"/>
<path d="M271 59.1861V67.6215C271 68.5232 271.351 69.388 271.976 70.0256C272.601 70.6633 273.449 71.0215 274.333 71.0215H287.667C288.551 71.0215 289.399 70.6633 290.024 70.0256C290.649 69.388 291 68.5232 291 67.6215V57.4215C291 56.5197 290.649 55.6549 290.024 55.0173C289.399 54.3797 288.551 54.0215 287.667 54.0215H274.333C273.449 54.0215 272.601 54.3797 271.976 55.0173C271.351 55.6549 271 56.5197 271 57.4215V59.1861ZM274.333 55.7215H287.667C288.109 55.7215 288.533 55.9006 288.845 56.2194C289.158 56.5382 289.333 56.9706 289.333 57.4215V58.6795L281 63.2559L272.667 58.6795V57.4215C272.667 56.9706 272.842 56.5382 273.155 56.2194C273.467 55.9006 273.891 55.7215 274.333 55.7215ZM272.667 60.6107L280.605 64.9695C280.726 65.0361 280.862 65.071 281 65.071C281.138 65.071 281.274 65.0361 281.395 64.9695L289.333 60.6107V67.6215C289.333 68.0724 289.158 68.5048 288.845 68.8236C288.533 69.1424 288.109 69.3215 287.667 69.3215H274.333C273.891 69.3215 273.467 69.1424 273.155 68.8236C272.842 68.5048 272.667 68.0724 272.667 67.6215V60.6107Z" fill="#6A7CBC"/>
<path d="M267.266 87.0215C266.883 87.0215 266.555 86.9763 266.28 86.8858C266.009 86.7954 265.779 86.6563 265.591 86.4684C265.477 86.3537 265.388 86.2302 265.325 86.098C265.266 85.9658 265.221 85.8354 265.19 85.7067C265.162 85.578 265.146 85.4563 265.143 85.3415C265.139 85.2232 265.137 85.1224 265.137 85.0389V84.9397C265.137 84.9363 265.139 84.8737 265.143 84.7519C265.146 84.6267 265.148 84.4597 265.148 84.251C265.151 84.0389 265.153 83.7954 265.153 83.5206C265.153 83.2458 265.151 82.9554 265.148 82.6493C265.148 82.3502 265.144 82.0389 265.137 81.7154C265.13 81.3919 265.12 81.0789 265.106 80.7763C265.092 80.4737 265.073 80.1954 265.049 79.9415C265.024 79.6841 264.997 79.4737 264.965 79.3102L265.988 79.1224C266.019 79.2997 266.047 79.5171 266.071 79.7745C266.096 80.0319 266.115 80.3119 266.129 80.6145C266.146 80.9171 266.158 81.2337 266.165 81.5641C266.172 81.891 266.176 82.211 266.176 82.5241C266.179 82.8302 266.181 83.1241 266.181 83.4058C266.181 83.6876 266.181 83.938 266.181 84.1571C266.181 84.3763 266.179 84.5571 266.176 84.6997C266.176 84.8424 266.176 84.9276 266.176 84.9554V85.0493C266.172 85.2024 266.177 85.338 266.191 85.4563C266.205 85.571 266.252 85.6667 266.332 85.7432C266.489 85.9067 266.784 85.9902 267.219 85.9937H267.266C267.336 85.9937 267.402 86.0076 267.464 86.0354C267.527 86.0632 267.581 86.1015 267.626 86.1502C267.675 86.1954 267.713 86.2493 267.741 86.3119C267.769 86.3745 267.783 86.4406 267.783 86.5102C267.783 86.6563 267.732 86.778 267.631 86.8754C267.53 86.9728 267.409 87.0215 267.266 87.0215ZM266.715 86.505C266.715 86.4354 266.729 86.371 266.757 86.3119C266.785 86.2493 266.823 86.1954 266.872 86.1502C266.92 86.1015 266.978 86.065 267.044 86.0406C267.107 86.0128 267.174 85.9989 267.247 85.9989H267.294C267.503 85.9989 267.686 85.9971 267.842 85.9937C268.002 85.9902 268.147 85.985 268.275 85.978C268.404 85.971 268.52 85.9624 268.625 85.9519C268.733 85.9415 268.837 85.9293 268.938 85.9154C268.677 85.6337 268.48 85.3571 268.348 85.0858C268.22 84.811 268.155 84.5467 268.155 84.2928C268.155 84.1189 268.178 83.9363 268.223 83.745C268.272 83.5502 268.345 83.3641 268.442 83.1867C268.543 83.0058 268.668 82.8389 268.818 82.6858C268.967 82.5293 269.147 82.4006 269.355 82.2997L268.943 82.138L269.439 81.1989L271.254 81.945C271.578 82.0876 271.889 82.2302 272.188 82.3728C272.491 82.5154 272.769 82.658 273.023 82.8006C273.28 82.9432 273.507 83.0876 273.701 83.2337C273.896 83.3797 274.047 83.5258 274.155 83.6719C274.475 84.1137 274.635 84.5658 274.635 85.0284C274.635 85.3693 274.545 85.6893 274.364 85.9884C274.183 86.2841 273.91 86.5293 273.545 86.7241L273.55 86.7189C273.453 86.778 273.338 86.8284 273.206 86.8702C273.073 86.9084 272.934 86.9397 272.788 86.9641C272.646 86.9884 272.501 87.0076 272.355 87.0215C272.209 87.0319 272.075 87.0371 271.953 87.0371C271.647 87.0371 271.35 87.0145 271.061 86.9693C270.776 86.9241 270.486 86.8424 270.19 86.7241C270.006 86.7797 269.797 86.8267 269.564 86.865C269.334 86.9032 269.093 86.9345 268.839 86.9589C268.585 86.9797 268.326 86.9954 268.061 87.0058C267.797 87.0163 267.541 87.0215 267.294 87.0215H267.247C267.174 87.0215 267.107 87.0093 267.044 86.985C266.978 86.9571 266.92 86.9206 266.872 86.8754C266.823 86.8267 266.785 86.771 266.757 86.7084C266.729 86.6458 266.715 86.578 266.715 86.505ZM272.246 84.0424C272.246 84.1884 272.225 84.3467 272.183 84.5171C272.141 84.6876 272.082 84.8597 272.006 85.0337C271.933 85.2041 271.842 85.3728 271.734 85.5397C271.627 85.7067 271.507 85.8597 271.374 85.9989C271.486 86.0163 271.578 86.0267 271.651 86.0302C271.724 86.0337 271.792 86.0354 271.854 86.0354H272.105C272.369 86.0354 272.599 86.0076 272.793 85.9519C272.992 85.8928 273.153 85.8145 273.279 85.7171C273.407 85.6197 273.503 85.5067 273.566 85.378C273.628 85.2458 273.66 85.1084 273.66 84.9658C273.66 84.8441 273.628 84.7119 273.566 84.5693C273.503 84.4267 273.409 84.2841 273.284 84.1415C273.162 83.9954 273.009 83.8528 272.825 83.7137C272.64 83.5745 272.425 83.4476 272.178 83.3328C272.216 83.465 272.237 83.5902 272.24 83.7084C272.244 83.8267 272.246 83.938 272.246 84.0424ZM271.176 84.0006C271.176 83.8963 271.167 83.7867 271.15 83.6719C271.136 83.5537 271.103 83.4424 271.051 83.338C271.002 83.2302 270.931 83.1363 270.837 83.0563C270.747 82.9728 270.627 82.9154 270.477 82.8841C270.286 82.8458 270.11 82.865 269.95 82.9415C269.79 83.0145 269.651 83.1189 269.533 83.2545C269.418 83.3902 269.327 83.5432 269.261 83.7137C269.195 83.8841 269.162 84.0476 269.162 84.2041C269.162 84.3502 269.188 84.4893 269.24 84.6215C269.293 84.7537 269.362 84.8789 269.449 84.9971C269.54 85.1119 269.644 85.2215 269.762 85.3258C269.88 85.4267 270.006 85.5206 270.138 85.6076C270.315 85.5276 270.468 85.4267 270.597 85.305C270.729 85.1832 270.837 85.051 270.92 84.9084C271.007 84.7624 271.072 84.611 271.113 84.4545C271.155 84.298 271.176 84.1467 271.176 84.0006ZM279.325 90.8354L279.132 85.9989C279.132 85.978 279.132 85.9293 279.132 85.8528C279.136 85.7763 279.15 85.6893 279.174 85.5919C279.199 85.491 279.24 85.3884 279.299 85.2841C279.359 85.1763 279.444 85.0806 279.555 84.9971C279.6 84.9624 279.654 84.9293 279.717 84.898C279.783 84.8632 279.858 84.8389 279.941 84.825C280.025 84.8076 280.117 84.8006 280.218 84.8041C280.322 84.8076 280.437 84.8267 280.562 84.8615C280.6 84.7432 280.647 84.618 280.703 84.4858C280.759 84.3537 280.823 84.2163 280.896 84.0737C281.004 83.8719 281.112 83.6945 281.219 83.5415C281.331 83.385 281.442 83.2493 281.553 83.1345C281.908 82.7867 282.291 82.6197 282.701 82.6337C282.983 82.6441 283.239 82.7067 283.468 82.8215C283.698 82.9328 283.896 83.098 284.063 83.3171C284.192 83.4876 284.292 83.6841 284.365 83.9067C284.439 84.1293 284.484 84.3606 284.501 84.6006C284.522 84.8371 284.515 85.0737 284.48 85.3102C284.449 85.5467 284.392 85.7641 284.308 85.9624C284.207 86.2163 284.077 86.4197 283.917 86.5728C283.757 86.7258 283.576 86.8197 283.374 86.8545C283.277 86.8684 283.169 86.8667 283.051 86.8493C282.932 86.8319 282.797 86.8006 282.644 86.7554C282.491 86.7067 282.317 86.6458 282.122 86.5728C281.931 86.4963 281.71 86.4076 281.459 86.3067C281.265 86.2232 281.07 86.1432 280.875 86.0667C280.684 85.9902 280.501 85.9241 280.327 85.8684C280.296 85.858 280.266 85.8493 280.239 85.8424C280.214 85.8354 280.193 85.8319 280.176 85.8319C280.165 85.8841 280.16 85.9258 280.16 85.9571L280.348 90.8354H279.325ZM281.856 85.3519C282.016 85.4215 282.171 85.4858 282.32 85.545C282.473 85.6006 282.616 85.6528 282.748 85.7015C282.88 85.7502 283 85.7884 283.108 85.8163C283.219 85.8441 283.287 85.8597 283.312 85.8632C283.364 85.7797 283.405 85.6754 283.437 85.5502C283.472 85.425 283.494 85.2945 283.505 85.1589C283.519 85.0232 283.522 84.8893 283.515 84.7571C283.508 84.6215 283.489 84.5032 283.458 84.4024C283.405 84.225 283.341 84.0876 283.265 83.9902C283.192 83.8893 283.117 83.8145 283.04 83.7658C282.964 83.7171 282.891 83.6876 282.821 83.6771C282.755 83.6667 282.703 83.6615 282.665 83.6615C282.543 83.658 282.407 83.7345 282.258 83.891C282.108 84.0476 281.962 84.2667 281.819 84.5484C281.757 84.6632 281.701 84.7797 281.652 84.898C281.607 85.0128 281.565 85.1189 281.527 85.2163L281.856 85.3519ZM288.313 87.0215C287.93 87.0215 287.602 86.9763 287.327 86.8858C287.056 86.7954 286.826 86.6563 286.638 86.4684C286.523 86.3537 286.435 86.2302 286.372 86.098C286.313 85.9658 286.268 85.8354 286.236 85.7067C286.209 85.578 286.193 85.4563 286.189 85.3415C286.186 85.2232 286.184 85.1224 286.184 85.0389V84.9397C286.184 84.9363 286.186 84.8737 286.189 84.7519C286.193 84.6267 286.195 84.4597 286.195 84.251C286.198 84.0389 286.2 83.7954 286.2 83.5206C286.2 83.2458 286.198 82.9554 286.195 82.6493C286.195 82.3502 286.191 82.0389 286.184 81.7154C286.177 81.3919 286.167 81.0789 286.153 80.7763C286.139 80.4737 286.12 80.1954 286.096 79.9415C286.071 79.6841 286.043 79.4737 286.012 79.3102L287.035 79.1224C287.066 79.2997 287.094 79.5171 287.118 79.7745C287.143 80.0319 287.162 80.3119 287.176 80.6145C287.193 80.9171 287.205 81.2337 287.212 81.5641C287.219 81.891 287.223 82.211 287.223 82.5241C287.226 82.8302 287.228 83.1241 287.228 83.4058C287.228 83.6876 287.228 83.938 287.228 84.1571C287.228 84.3763 287.226 84.5571 287.223 84.6997C287.223 84.8424 287.223 84.9276 287.223 84.9554V85.0493C287.219 85.2024 287.224 85.338 287.238 85.4563C287.252 85.571 287.299 85.6667 287.379 85.7432C287.536 85.9067 287.831 85.9902 288.266 85.9937H288.313C288.383 85.9937 288.449 86.0076 288.511 86.0354C288.574 86.0632 288.628 86.1015 288.673 86.1502C288.722 86.1954 288.76 86.2493 288.788 86.3119C288.816 86.3745 288.829 86.4406 288.829 86.5102C288.829 86.6563 288.779 86.778 288.678 86.8754C288.577 86.9728 288.456 87.0215 288.313 87.0215ZM287.757 86.5102C287.757 86.3641 287.806 86.2424 287.903 86.145C288 86.0441 288.122 85.9937 288.268 85.9937H288.665C288.957 85.9937 289.237 85.9763 289.505 85.9415C289.773 85.9067 290.007 85.8424 290.209 85.7484C290.414 85.6545 290.576 85.5276 290.694 85.3676C290.813 85.2041 290.866 84.9954 290.856 84.7415C290.849 84.5467 290.832 84.345 290.804 84.1363C290.779 83.9276 290.729 83.6893 290.653 83.4215L291.628 83.145C291.659 83.2667 291.689 83.3954 291.717 83.531C291.745 83.6632 291.769 83.7989 291.79 83.938C291.811 84.0771 291.828 84.218 291.842 84.3606C291.859 84.4997 291.872 84.6371 291.879 84.7728C291.886 84.9015 291.901 85.0371 291.926 85.1797C291.95 85.3224 291.993 85.4545 292.056 85.5763C292.119 85.698 292.204 85.7989 292.312 85.8789C292.423 85.9589 292.567 85.9989 292.745 85.9989C292.891 85.9989 293.014 86.0476 293.115 86.145C293.216 86.2424 293.266 86.3641 293.266 86.5102C293.266 86.5832 293.253 86.651 293.225 86.7137C293.197 86.7728 293.159 86.8267 293.11 86.8754C293.065 86.9206 293.011 86.9571 292.948 86.985C292.889 87.0093 292.825 87.0215 292.755 87.0215C292.404 87.0215 292.113 86.9589 291.884 86.8337C291.654 86.705 291.466 86.545 291.32 86.3537C291.195 86.4754 291.033 86.5797 290.835 86.6667C290.637 86.7502 290.418 86.818 290.178 86.8702C289.941 86.9224 289.693 86.9606 289.432 86.985C289.171 87.0093 288.915 87.0215 288.665 87.0215H288.268C288.122 87.0215 288 86.9728 287.903 86.8754C287.806 86.778 287.757 86.6563 287.757 86.5102ZM289.927 89.0041L289.082 89.8493L288.226 88.9989L289.072 88.1484L289.927 89.0041ZM292.066 89.0093L291.221 89.8597L290.366 89.0041L291.211 88.1589L292.066 89.0093ZM292.282 86.5102C292.282 86.3641 292.332 86.2424 292.433 86.145C292.53 86.0476 292.65 85.9989 292.793 85.9989H293.372C293.494 86.0024 293.626 86.0041 293.769 86.0041C293.911 86.0006 294.056 85.9919 294.202 85.978C294.348 85.9641 294.49 85.945 294.629 85.9206C294.772 85.8928 294.903 85.8563 295.021 85.811C295.139 85.7624 295.243 85.7032 295.334 85.6337C295.424 85.5641 295.492 85.4806 295.537 85.3832C295.607 85.2337 295.626 85.0215 295.595 84.7467C295.567 84.4684 295.497 84.145 295.386 83.7763C295.348 83.665 295.303 83.545 295.25 83.4163C295.202 83.2841 295.153 83.1624 295.104 83.051C295.049 82.9189 294.991 82.7884 294.932 82.6597L295.861 82.2006C295.861 82.2041 295.876 82.2406 295.908 82.3102C295.943 82.3763 295.984 82.4667 296.033 82.5815C296.082 82.6963 296.136 82.8302 296.195 82.9832C296.254 83.1328 296.309 83.2928 296.362 83.4632C296.685 84.4615 296.725 85.2406 296.482 85.8006C296.235 86.3606 295.796 86.7293 295.167 86.9067C295.073 86.9345 294.953 86.9571 294.807 86.9745C294.661 86.9884 294.511 86.9989 294.358 87.0058C294.205 87.0128 294.059 87.018 293.92 87.0215C293.781 87.0215 293.673 87.0215 293.596 87.0215H292.84H292.793C292.65 87.0215 292.53 86.9728 292.433 86.8754C292.332 86.778 292.282 86.6563 292.282 86.5102ZM295.882 87.9919L296.727 88.8371L295.871 89.6928L295.026 88.8476L295.882 87.9919ZM293.602 87.9971L294.447 88.8476L293.591 89.7032L292.746 88.8528L293.602 87.9971ZM294.76 89.6458L295.532 90.418L294.755 91.1954L293.983 90.4232L294.76 89.6458Z" fill="#6A7CBC"/>
<path d="M359.75 59.4385V56.3545C359.75 55.5368 359.425 54.7526 358.847 54.1745C358.269 53.5963 357.485 53.2715 356.667 53.2715H353.583M353.583 71.7715H356.667C357.485 71.7715 358.269 71.4467 358.847 70.8685C359.425 70.2903 359.75 69.5061 359.75 68.6885V65.6045M341.25 65.6045V68.6885C341.25 69.5061 341.575 70.2903 342.153 70.8685C342.731 71.4467 343.515 71.7715 344.333 71.7715H347.417M347.417 53.2715H344.333C343.515 53.2715 342.731 53.5963 342.153 54.1745C341.575 54.7526 341.25 55.5368 341.25 56.3545V59.4385M347.933 56.3545H345.233C344.994 56.3545 344.765 56.4493 344.597 56.6181C344.428 56.7869 344.333 57.0158 344.333 57.2545V59.9545C344.333 60.1932 344.428 60.4221 344.597 60.5909C344.765 60.7597 344.994 60.8545 345.233 60.8545H347.933C348.172 60.8545 348.401 60.7597 348.569 60.5909C348.738 60.4221 348.833 60.1932 348.833 59.9545V57.2545C348.833 57.0158 348.738 56.7869 348.569 56.6181C348.401 56.4493 348.172 56.3545 347.933 56.3545ZM347.933 64.1695H345.233C344.994 64.1695 344.765 64.2643 344.597 64.4331C344.428 64.6019 344.333 64.8308 344.333 65.0695V67.7695C344.333 68.0082 344.428 68.2371 344.597 68.4059C344.765 68.5747 344.994 68.6695 345.233 68.6695H347.933C348.172 68.6695 348.401 68.5747 348.569 68.4059C348.738 68.2371 348.833 68.0082 348.833 67.7695V65.0695C348.833 64.8308 348.738 64.6019 348.569 64.4331C348.401 64.2643 348.172 64.1695 347.933 64.1695ZM355.767 56.3545H353.067C352.828 56.3545 352.599 56.4493 352.431 56.6181C352.262 56.7869 352.167 57.0158 352.167 57.2545V59.9545C352.167 60.1932 352.262 60.4221 352.431 60.5909C352.599 60.7597 352.828 60.8545 353.067 60.8545H355.767C356.006 60.8545 356.235 60.7597 356.403 60.5909C356.572 60.4221 356.667 60.1932 356.667 59.9545V57.2545C356.667 57.0158 356.572 56.7869 356.403 56.6181C356.235 56.4493 356.006 56.3545 355.767 56.3545ZM355.767 64.1885H353.067C352.828 64.1885 352.599 64.2833 352.431 64.4521C352.262 64.6209 352.167 64.8498 352.167 65.0885V67.7885C352.167 68.0272 352.262 68.2561 352.431 68.4249C352.599 68.5937 352.828 68.6885 353.067 68.6885H355.767C356.006 68.6885 356.235 68.5937 356.403 68.4249C356.572 68.2561 356.667 68.0272 356.667 67.7885V65.0885C356.667 64.8498 356.572 64.6209 356.403 64.4521C356.235 64.2833 356.006 64.1885 355.767 64.1885Z" stroke="#6A7CBC" stroke-width="1.5" stroke-linecap="round" stroke-linejoin="round"/>
<path d="M346.125 87.7715C345.663 87.7715 345.247 87.6637 344.878 87.448C344.892 87.7124 344.883 87.9802 344.852 88.2515C344.824 88.5263 344.767 88.8045 344.68 89.0863C344.579 89.4063 344.43 89.6984 344.231 89.9628C344.033 90.2306 343.788 90.4584 343.496 90.6463C343.176 90.8654 342.814 91.0306 342.41 91.1419C342.007 91.2567 341.553 91.328 341.049 91.3558H340.835C340.379 91.3558 339.963 91.2897 339.588 91.1576C339.212 91.0254 338.877 90.8341 338.581 90.5837C338.313 90.3437 338.092 90.0602 337.918 89.7332C337.748 89.4063 337.635 89.0515 337.579 88.6689C337.551 88.4567 337.537 88.2445 337.537 88.0324C337.541 87.8202 337.555 87.615 337.579 87.4167C337.603 87.2184 337.635 87.0306 337.673 86.8532C337.711 86.6758 337.753 86.5158 337.798 86.3732C337.91 86.0184 338.026 85.7176 338.148 85.4706C338.27 85.2202 338.374 85.0324 338.461 84.9071L339.296 85.5124C339.25 85.5715 339.197 85.6602 339.134 85.7784C339.075 85.8967 339.014 86.0341 338.951 86.1906C338.892 86.3471 338.835 86.5193 338.779 86.7071C338.723 86.8915 338.677 87.0863 338.638 87.2915C338.603 87.4932 338.581 87.6984 338.57 87.9071C338.56 88.1193 338.57 88.3245 338.602 88.5228C338.616 88.6132 338.64 88.721 338.675 88.8463C338.71 88.9715 338.76 89.1002 338.826 89.2324C338.892 89.368 338.977 89.5019 339.082 89.6341C339.19 89.7663 339.323 89.8828 339.483 89.9837C339.643 90.088 339.833 90.1715 340.052 90.2341C340.275 90.3002 340.534 90.3332 340.83 90.3332H340.908C340.925 90.3332 340.941 90.3332 340.955 90.3332C340.972 90.3332 340.99 90.3315 341.007 90.328C341.741 90.2897 342.334 90.1402 342.786 89.8793C343.238 89.6219 343.541 89.2532 343.694 88.7732C343.788 88.4706 343.837 88.1697 343.84 87.8706C343.847 87.5715 343.828 87.2863 343.783 87.015C343.737 86.7402 343.675 86.4845 343.595 86.248C343.515 86.0115 343.435 85.801 343.355 85.6167C343.317 85.5471 343.282 85.4758 343.25 85.4028C343.219 85.3297 343.184 85.255 343.146 85.1784C343.118 85.1228 343.094 85.081 343.073 85.0532C343.052 85.0254 343.042 85.008 343.042 85.001L343.913 84.448C343.923 84.4619 343.962 84.5315 344.028 84.6567C344.097 84.7819 344.183 84.9489 344.283 85.1576C344.475 85.5193 344.654 85.8063 344.821 86.0184C344.991 86.2306 345.153 86.3906 345.306 86.4984C345.459 86.6063 345.603 86.6758 345.739 86.7071C345.875 86.735 346.003 86.7489 346.125 86.7489C346.271 86.7489 346.393 86.7976 346.49 86.895C346.591 86.9924 346.642 87.1141 346.642 87.2602C346.642 87.4028 346.591 87.5245 346.49 87.6254C346.393 87.7228 346.271 87.7715 346.125 87.7715ZM342.087 84.7767L341.237 85.6271L340.381 84.7715L341.231 83.921L342.087 84.7767ZM345.629 87.2602C345.629 87.1906 345.643 87.1245 345.671 87.0619C345.699 86.9993 345.737 86.9454 345.786 86.9002C345.831 86.8515 345.885 86.815 345.948 86.7906C346.01 86.7628 346.076 86.7489 346.146 86.7489H346.193H347.915C348.054 86.7489 348.193 86.721 348.332 86.6654C348.475 86.6097 348.601 86.535 348.713 86.441C348.828 86.3471 348.921 86.241 348.995 86.1228C349.071 86.001 349.115 85.8776 349.125 85.7524C349.142 85.5541 349.116 85.3471 349.047 85.1315C348.981 84.9124 348.885 84.6915 348.76 84.4689C348.635 84.2463 348.488 84.0254 348.321 83.8063C348.155 83.5871 347.979 83.3802 347.795 83.1854C347.614 82.9871 347.431 82.8063 347.247 82.6428C347.062 82.4758 346.892 82.3315 346.735 82.2097L346.871 81.0567L351.483 79.0689L351.885 80.0184L347.748 81.7558C348.012 81.968 348.243 82.1819 348.441 82.3976C348.643 82.6097 348.824 82.8237 348.984 83.0393C349.144 83.255 349.287 83.4706 349.412 83.6863C349.541 83.9019 349.662 84.1176 349.777 84.3332C349.895 84.5489 350.012 84.7663 350.127 84.9854C350.241 85.2045 350.365 85.4254 350.497 85.648C350.598 85.815 350.706 85.9663 350.821 86.1019C350.935 86.2341 351.059 86.3471 351.191 86.441C351.327 86.535 351.475 86.6097 351.635 86.6654C351.798 86.7176 351.977 86.7454 352.172 86.7489H352.391C352.537 86.7489 352.659 86.7993 352.756 86.9002C352.854 86.9976 352.902 87.1176 352.902 87.2602C352.902 87.4063 352.854 87.528 352.756 87.6254C352.659 87.7228 352.537 87.7715 352.391 87.7715H352.349C352.099 87.7715 351.878 87.7558 351.687 87.7245C351.499 87.6932 351.315 87.648 351.134 87.5889C350.887 87.4984 350.659 87.3663 350.45 87.1924C350.241 87.0184 350.059 86.8306 349.902 86.6289C349.781 86.8515 349.631 87.0463 349.454 87.2132C349.339 87.3141 349.217 87.3993 349.088 87.4689C348.963 87.5384 348.831 87.5941 348.692 87.6358C348.556 87.6776 348.417 87.7089 348.275 87.7297C348.132 87.7506 347.989 87.7645 347.847 87.7715H346.146C346.003 87.7715 345.881 87.7228 345.781 87.6254C345.68 87.528 345.629 87.4063 345.629 87.2602ZM351.965 87.2654C351.965 87.1993 351.977 87.1367 352.002 87.0776C352.026 87.015 352.061 86.961 352.106 86.9158C352.148 86.8671 352.198 86.8289 352.257 86.801C352.317 86.7732 352.379 86.7558 352.445 86.7489C352.651 86.7489 352.835 86.7089 352.998 86.6289C353.165 86.5489 353.311 86.4428 353.437 86.3106C353.565 86.175 353.678 86.0202 353.776 85.8463C353.873 85.6724 353.957 85.4915 354.026 85.3037C354.096 85.1124 354.153 84.921 354.198 84.7297C354.247 84.535 354.289 84.3524 354.324 84.1819L355.357 84.401C355.329 84.4845 355.294 84.5924 355.252 84.7245C355.214 84.8567 355.176 84.9993 355.137 85.1524C355.099 85.3019 355.066 85.4567 355.038 85.6167C355.011 85.7732 354.997 85.9193 354.997 86.055C354.997 86.1489 355.005 86.241 355.023 86.3315C355.04 86.4184 355.07 86.4967 355.111 86.5663C355.153 86.6358 355.211 86.6915 355.284 86.7332C355.357 86.775 355.449 86.7958 355.56 86.7958C355.737 86.7958 355.896 86.7471 356.035 86.6497C356.177 86.5524 356.303 86.4254 356.411 86.2689C356.522 86.1124 356.617 85.935 356.697 85.7367C356.777 85.5384 356.845 85.3367 356.901 85.1315C356.96 84.9263 357.009 84.728 357.047 84.5367C357.085 84.3419 357.115 84.1732 357.136 84.0306L358.137 84.2132C358.137 84.2132 358.127 84.2706 358.106 84.3854C358.089 84.4967 358.066 84.6341 358.038 84.7976C358.014 84.9576 357.991 85.1297 357.971 85.3141C357.95 85.495 357.939 85.6567 357.939 85.7993C357.939 85.928 357.948 86.0515 357.965 86.1697C357.986 86.2845 358.017 86.3871 358.059 86.4776C358.104 86.5645 358.162 86.6376 358.231 86.6967C358.304 86.7524 358.393 86.7854 358.497 86.7958C358.657 86.8167 358.79 86.815 358.894 86.7906C359.002 86.7663 359.087 86.735 359.15 86.6967C359.212 86.655 359.257 86.6115 359.285 86.5663C359.317 86.521 359.337 86.488 359.348 86.4671H359.343C359.391 86.3906 359.424 86.3037 359.442 86.2063C359.463 86.1089 359.473 86.0045 359.473 85.8932C359.473 85.695 359.445 85.481 359.39 85.2515C359.337 85.0219 359.273 84.7976 359.197 84.5784C359.124 84.3558 359.045 84.1506 358.962 83.9628C358.882 83.7715 358.814 83.6202 358.758 83.5089L359.671 83.0289C359.689 83.0637 359.722 83.1315 359.771 83.2324C359.819 83.3297 359.875 83.4515 359.937 83.5976C360 83.7402 360.064 83.9019 360.131 84.0828C360.2 84.2637 360.263 84.455 360.318 84.6567C360.374 84.855 360.419 85.0584 360.454 85.2671C360.492 85.4758 360.511 85.6793 360.511 85.8776C360.511 86.1767 360.47 86.448 360.386 86.6915C360.303 86.9315 360.177 87.1367 360.011 87.3071C359.844 87.4776 359.633 87.6097 359.379 87.7037C359.129 87.7941 358.835 87.8376 358.497 87.8341C358.362 87.8341 358.228 87.8132 358.096 87.7715C357.964 87.7297 357.837 87.6741 357.715 87.6045C357.593 87.5315 357.48 87.448 357.376 87.3541C357.271 87.2567 357.183 87.1524 357.11 87.041C356.901 87.2845 356.664 87.4776 356.4 87.6202C356.136 87.7628 355.856 87.8341 355.56 87.8341C355.431 87.8341 355.297 87.8167 355.158 87.7819C355.023 87.7506 354.892 87.7019 354.767 87.6358C354.642 87.5697 354.527 87.488 354.423 87.3906C354.322 87.2932 354.244 87.1802 354.188 87.0515C353.979 87.2706 353.743 87.4445 353.478 87.5732C353.214 87.7019 352.897 87.7697 352.529 87.7767H352.445C352.379 87.7732 352.317 87.7576 352.257 87.7297C352.198 87.7019 352.148 87.6654 352.106 87.6202C352.061 87.575 352.026 87.5228 352.002 87.4637C351.977 87.401 351.965 87.335 351.965 87.2654ZM363.014 79.5332C363.167 80.9489 363.255 82.215 363.28 83.3315C363.318 85.175 363.29 86.6706 363.196 87.8184L362.169 87.761C362.28 86.2132 362.315 84.9141 362.273 83.8637C362.203 82.1767 362.109 80.7854 361.991 79.6897L363.014 79.5332Z" fill="#6A7CBC"/>
</g>
<defs>
<filter id="filter0_d_2168_924" x="88" y="0" width="215" height="154" filterUnits="userSpaceOnUse" color-interpolation-filters="sRGB">
<feFlood flood-opacity="0" result="BackgroundImageFix"/>
<feColorMatrix in="SourceAlpha" type="matrix" values="0 0 0 0 0 0 0 0 0 0 0 0 0 0 0 0 0 0 127 0" result="hardAlpha"/>
<feOffset dy="3"/>
<feGaussianBlur stdDeviation="23"/>
<feComposite in2="hardAlpha" operator="out"/>
<feColorMatrix type="matrix" values="0 0 0 0 0 0 0 0 0 0 0 0 0 0 0 0 0 0 0.34 0"/>
<feBlend mode="normal" in2="BackgroundImageFix" result="effect1_dropShadow_2168_924"/>
<feBlend mode="normal" in="SourceGraphic" in2="effect1_dropShadow_2168_924" result="shape"/>
</filter>
<filter id="filter1_d_2168_924" x="152" y="0" width="89" height="89" filterUnits="userSpaceOnUse" color-interpolation-filters="sRGB">
<feFlood flood-opacity="0" result="BackgroundImageFix"/>
<feColorMatrix in="SourceAlpha" type="matrix" values="0 0 0 0 0 0 0 0 0 0 0 0 0 0 0 0 0 0 127 0" result="hardAlpha"/>
<feOffset dy="4"/>
<feGaussianBlur stdDeviation="8"/>
<feComposite in2="hardAlpha" operator="out"/>
<feColorMatrix type="matrix" values="0 0 0 0 0 0 0 0 0 0 0 0 0 0 0 0 0 0 0.6 0"/>
<feBlend mode="normal" in2="BackgroundImageFix" result="effect1_dropShadow_2168_924"/>
<feBlend mode="normal" in="SourceGraphic" in2="effect1_dropShadow_2168_924" result="shape"/>
</filter>
<filter id="filter2_d_2168_924" x="-7" y="37" width="143" height="70" filterUnits="userSpaceOnUse" color-interpolation-filters="sRGB">
<feFlood flood-opacity="0" result="BackgroundImageFix"/>
<feColorMatrix in="SourceAlpha" type="matrix" values="0 0 0 0 0 0 0 0 0 0 0 0 0 0 0 0 0 0 127 0" result="hardAlpha"/>
<feMorphology radius="5" operator="erode" in="SourceAlpha" result="effect1_dropShadow_2168_924"/>
<feOffset dx="-2" dy="-2"/>
<feGaussianBlur stdDeviation="4.5"/>
<feComposite in2="hardAlpha" operator="out"/>
<feColorMatrix type="matrix" values="0 0 0 0 0 0 0 0 0 0 0 0 0 0 0 0 0 0 0.25 0"/>
<feBlend mode="normal" in2="BackgroundImageFix" result="effect1_dropShadow_2168_924"/>
<feBlend mode="normal" in="SourceGraphic" in2="effect1_dropShadow_2168_924" result="shape"/>
</filter>
<filter id="filter3_d_2168_924" x="256" y="37.0215" width="143" height="70" filterUnits="userSpaceOnUse" color-interpolation-filters="sRGB">
<feFlood flood-opacity="0" result="BackgroundImageFix"/>
<feColorMatrix in="SourceAlpha" type="matrix" values="0 0 0 0 0 0 0 0 0 0 0 0 0 0 0 0 0 0 127 0" result="hardAlpha"/>
<feMorphology radius="5" operator="erode" in="SourceAlpha" result="effect1_dropShadow_2168_924"/>
<feOffset dx="5" dy="-2"/>
<feGaussianBlur stdDeviation="4.5"/>
<feComposite in2="hardAlpha" operator="out"/>
<feColorMatrix type="matrix" values="0 0 0 0 0 0 0 0 0 0 0 0 0 0 0 0 0 0 0.25 0"/>
<feBlend mode="normal" in2="BackgroundImageFix" result="effect1_dropShadow_2168_924"/>
<feBlend mode="normal" in="SourceGraphic" in2="effect1_dropShadow_2168_924" result="shape"/>
</filter>
</defs>
</svg>
