<svg width="12" height="18" viewBox="0 0 12 18" fill="none" xmlns="http://www.w3.org/2000/svg">
<path d="M0.920639 0.396208C0.651304 0.649976 0.5 0.994114 0.5 1.35294C0.5 1.71177 0.651304 2.05591 0.920639 2.30968L8.03218 9.00817L0.920642 15.7067C0.65894 15.9619 0.514131 16.3037 0.517404 16.6585C0.520678 17.0133 0.671771 17.3528 0.938142 17.6037C1.20451 17.8546 1.56485 17.9969 1.94154 18C2.31823 18.003 2.68114 17.8666 2.9521 17.6201L11.0794 9.9649C11.3487 9.71113 11.5 9.367 11.5 9.00817C11.5 8.64934 11.3487 8.3052 11.0794 8.05143L2.95209 0.396207C2.68268 0.142516 2.31732 -3.17751e-07 1.93637 -2.51142e-07C1.55541 -1.84534e-07 1.19005 0.142516 0.920639 0.396208Z" fill="#6A7CBC"/>
</svg>
